<svg width="50" height="37" viewBox="0 0 50 37" fill="none" xmlns="http://www.w3.org/2000/svg">
<path d="M25.1118 9.94714C20.6079 9.94714 16.3617 9.53192 13.1556 8.77778C9.33218 7.8793 7.47363 6.63422 7.47363 4.97364C7.47363 3.31306 9.33218 2.06873 13.1556 1.16935C16.3619 0.415361 20.6086 0 25.1118 0C29.615 0 33.861 0.415361 37.0679 1.16935C40.8913 2.06873 42.7499 3.31306 42.7499 4.97364C42.7499 6.63422 40.8913 7.87856 37.0679 8.77778C33.8616 9.53192 29.6156 9.94714 25.1118 9.94714ZM9.64223 4.97364C9.79571 5.2535 10.8458 6.06965 14.0877 6.77636C17.0838 7.42961 20.999 7.7893 25.1118 7.7893C29.2247 7.7893 33.1393 7.42961 36.1358 6.77636C39.3778 6.06936 40.4278 5.25276 40.5813 4.97364C40.4278 4.69452 39.3778 3.87764 36.1358 3.17093C33.1397 2.51768 29.2247 2.15799 25.1118 2.15799C20.999 2.15799 17.0844 2.51768 14.0875 3.17093C10.8458 3.87764 9.79571 4.69452 9.64223 4.97364Z" fill="#D69E3D"/>
<path d="M8.55255 21.4754C8.26642 21.4753 7.99201 21.3617 7.78969 21.1593C7.58736 20.957 7.47367 20.6826 7.47363 20.3965V4.97369C7.47695 4.68971 7.59209 4.41848 7.79408 4.21884C7.99607 4.0192 8.26863 3.90723 8.55263 3.90723C8.83663 3.90723 9.10919 4.0192 9.31118 4.21884C9.51317 4.41848 9.62831 4.68971 9.63162 4.97369V20.3965C9.63158 20.6826 9.51788 20.957 9.31552 21.1594C9.11316 21.3617 8.83872 21.4754 8.55255 21.4754Z" fill="#D69E3D"/>
<path d="M41.4912 22.0485H41.4789C41.3372 22.0469 41.1972 22.0175 41.0669 21.9618C40.9366 21.9061 40.8185 21.8253 40.7195 21.724C40.6204 21.6227 40.5423 21.5029 40.4896 21.3713C40.4368 21.2398 40.4105 21.0992 40.4122 20.9575L40.592 4.96148C40.5932 4.81951 40.6223 4.67917 40.6778 4.5485C40.7333 4.41783 40.8141 4.2994 40.9154 4.19999C41.0168 4.10058 41.1368 4.02216 41.2685 3.96921C41.4002 3.91626 41.5411 3.88983 41.6831 3.89143C41.825 3.89302 41.9653 3.92262 42.0958 3.97852C42.2263 4.03443 42.3444 4.11554 42.4435 4.21721C42.5426 4.31887 42.6207 4.43909 42.6732 4.57098C42.7258 4.70286 42.7518 4.84382 42.7497 4.98578L42.5699 20.9818C42.5667 21.2658 42.4516 21.537 42.2497 21.7367C42.0478 21.9364 41.7752 22.0484 41.4912 22.0485Z" fill="#D69E3D"/>
<path d="M5.42978 17.7463C4.32944 17.7473 3.25481 17.4136 2.34851 16.7896C1.44221 16.1656 0.747082 15.2808 0.355378 14.2525C-0.0363259 13.2243 -0.106086 12.1012 0.155354 11.0324C0.416794 9.96354 0.997072 8.99949 1.81918 8.26813C3.88129 6.43242 6.90919 6.50208 9.18119 8.43781C9.39737 8.62385 9.5311 8.88791 9.55312 9.17227C9.57515 9.45663 9.4837 9.73814 9.29874 9.95526C9.11379 10.1724 8.8504 10.3074 8.56615 10.3309C8.28191 10.3543 7.99994 10.2643 7.7819 10.0804C6.35198 8.8623 4.4902 8.77997 3.25382 9.88025C2.61202 10.4582 2.22499 11.2666 2.17729 12.1289C2.12959 12.9912 2.42509 13.8374 2.99924 14.4826C3.57339 15.1277 4.37953 15.5195 5.24156 15.5722C6.1036 15.625 6.95148 15.3344 7.6 14.764C7.70574 14.6692 7.82916 14.5962 7.96319 14.5492C8.09722 14.5021 8.23922 14.482 8.38103 14.49C8.52284 14.498 8.66169 14.5339 8.78959 14.5957C8.91749 14.6575 9.03194 14.7439 9.12637 14.85C9.22079 14.9561 9.29334 15.0798 9.33984 15.214C9.38634 15.3482 9.40588 15.4903 9.39734 15.6321C9.38881 15.7739 9.35236 15.9126 9.29009 16.0402C9.22782 16.1679 9.14096 16.282 9.03448 16.376C8.04224 17.2604 6.75895 17.7482 5.42978 17.7463Z" fill="#D69E3D"/>
<path d="M25.4171 29.9655C19.7119 29.9655 14.2849 29.5878 9.72261 28.8734C9.58262 28.8515 9.44833 28.8022 9.32739 28.7284C9.20644 28.6546 9.10123 28.5577 9.01774 28.4432C8.93425 28.3287 8.87413 28.1989 8.84081 28.0612C8.80749 27.9235 8.80162 27.7806 8.82353 27.6406C8.84545 27.5006 8.89472 27.3663 8.96853 27.2454C9.04235 27.1244 9.13927 27.0192 9.25375 26.9357C9.36823 26.8522 9.49803 26.7921 9.63575 26.7588C9.77346 26.7255 9.91639 26.7196 10.0564 26.7415C14.5102 27.4389 19.8219 27.8075 25.4171 27.8075C31.0124 27.8075 36.324 27.4392 40.7777 26.7415C40.9177 26.7196 41.0607 26.7254 41.1984 26.7588C41.3361 26.7921 41.4659 26.8522 41.5804 26.9357C41.6949 27.0191 41.7918 27.1244 41.8656 27.2453C41.9394 27.3662 41.9887 27.5005 42.0107 27.6405C42.0326 27.7805 42.0267 27.9234 41.9934 28.0611C41.9601 28.1989 41.9 28.3287 41.8165 28.4432C41.733 28.5576 41.6278 28.6546 41.5069 28.7284C41.3859 28.8022 41.2516 28.8515 41.1116 28.8734C36.5492 29.5878 31.1222 29.9655 25.4171 29.9655Z" fill="#D69E3D"/>
<line x1="8.82256" y1="20.5838" x2="17.2608" y2="27.3344" stroke="#D69E3D" stroke-width="2" stroke-linecap="round"/>
<line x1="1" y1="-1" x2="11.8062" y2="-1" transform="matrix(-0.780869 0.624695 0.624695 0.780869 42.417 21.74)" stroke="#D69E3D" stroke-width="2" stroke-linecap="round"/>
<path d="M8.56917 20.74C4.15859 22.3268 1.41699 24.5499 1.41699 27.0108C1.41699 31.8318 11.9383 35.74 24.917 35.74C37.8957 35.74 48.417 31.8318 48.417 27.0108C48.417 24.5499 45.6754 22.3268 41.2648 20.74" stroke="#D69E3D" stroke-width="2.5"/>
</svg>
