<svg width="36" height="59" viewBox="0 0 36 59" fill="none" xmlns="http://www.w3.org/2000/svg">
<path d="M17.8658 58.4039C13.2766 58.4039 8.95047 57.9394 5.68441 57.0954C1.91262 56.121 0 54.7617 0 53.0554C0 51.7276 1.16635 50.6035 3.46693 49.7142C5.35377 48.9847 7.96812 48.4173 11.0272 48.0733C11.2877 48.0441 11.5491 48.1195 11.7539 48.2829C11.9588 48.4464 12.0903 48.6845 12.1196 48.945C12.1489 49.2054 12.0735 49.4668 11.91 49.6717C11.7465 49.8765 11.5084 50.0081 11.2479 50.0373C4.17407 50.8332 1.97683 52.5279 1.97683 53.0554C1.97683 53.3252 2.74872 54.2957 6.17922 55.182C9.28865 55.9853 13.4392 56.4277 17.8665 56.4277C22.2938 56.4277 26.4445 55.9853 29.5538 55.182C32.9843 54.2957 33.7563 53.3254 33.7563 53.0554C33.7563 52.5279 31.5592 50.8327 24.4855 50.0373C24.2251 50.008 23.9869 49.8765 23.8235 49.6716C23.66 49.4668 23.5846 49.2054 23.6139 48.9449C23.6432 48.6845 23.7747 48.4463 23.9796 48.2829C24.1845 48.1194 24.4459 48.044 24.7063 48.0733C27.7654 48.4173 30.3795 48.9847 32.2662 49.7142C34.5664 50.6035 35.7332 51.7276 35.7332 53.0554C35.7332 54.7617 33.8206 56.121 30.0488 57.0954C26.781 57.9394 22.455 58.4039 17.8658 58.4039Z" fill="#D69E3D"/>
<path d="M17.8658 8.73651C14.5682 8.73651 11.4376 8.38186 9.05055 7.73825C6.22143 6.97512 4.73686 5.88756 4.63771 4.50592C4.60843 4.09785 4.69667 3.47933 5.2824 2.84989C6.89432 1.11859 11.8334 0 17.8658 0C23.8983 0 28.8376 1.11872 30.4491 2.85002C31.035 3.47933 31.1236 4.09785 31.0938 4.50592C30.9948 5.88756 29.5102 6.97458 26.6811 7.73825C24.2941 8.38186 21.1633 8.73651 17.8658 8.73651ZM17.8658 1.97601C14.7745 1.97601 11.8579 2.29667 9.65381 2.87889C7.23749 3.51724 6.63719 4.21872 6.60872 4.37156C6.63651 4.51604 7.23912 5.22008 9.68296 5.86112C11.8932 6.44119 14.7992 6.76023 17.8658 6.76023C20.9325 6.76023 23.8384 6.44092 26.0484 5.86126C28.4696 5.22615 29.0837 4.52912 29.1219 4.36697C29.0827 4.20509 28.471 3.51117 26.0778 2.87889C23.8736 2.29667 20.9572 1.97601 17.8658 1.97601Z" fill="#D69E3D"/>
<path d="M17.8657 18.6087C13.8569 18.6087 7.01751 17.8415 6.81124 14.9664C6.78426 14.596 6.86331 14.0356 7.38821 13.4724C8.08874 12.7198 9.44637 12.12 11.4232 11.6898C13.2783 11.2859 15.5061 11.0725 17.8657 11.0725C21.6685 11.0725 26.6944 11.701 28.3434 13.4724C28.8681 14.0361 28.9467 14.596 28.9202 14.9664C28.7141 17.8415 21.8745 18.6087 17.8657 18.6087ZM8.81315 14.8396C8.98609 15.0464 9.67651 15.5326 11.422 15.9599C13.1933 16.3935 15.4818 16.6324 17.8657 16.6324C20.2497 16.6324 22.5381 16.3935 24.3094 15.9599C26.0551 15.5326 26.7455 15.0464 26.9183 14.8396C26.7463 14.6335 26.0622 14.1501 24.3378 13.7246C22.5706 13.2886 20.2717 13.0485 17.8657 13.0485C15.4598 13.0485 13.1614 13.2886 11.3936 13.7246C9.66923 14.1501 8.98528 14.6335 8.81315 14.8396Z" fill="#D69E3D"/>
<path d="M17.8652 54.8594C16.4009 54.8629 14.9468 54.6174 13.5648 54.1335C12.054 53.5849 11.2706 52.9077 11.2344 52.1207C11.2236 51.8845 11.2977 51.6523 11.4433 51.4662C11.589 51.28 11.7966 51.1522 12.0284 51.106C12.2602 51.0598 12.5009 51.0982 12.7068 51.2142C12.9128 51.3302 13.0703 51.5163 13.1508 51.7385C13.5782 52.099 15.425 52.883 17.8652 52.883C20.2608 52.883 22.0846 52.1276 22.5546 51.7587C22.7642 50.2245 24.2595 39.2827 25.7559 28.341C26.5627 22.4409 27.3701 16.5408 27.9762 12.1158C28.2793 9.90342 28.5321 8.05921 28.7094 6.76863L28.9708 4.87356C29.1192 3.81716 29.9812 3.88245 30.0783 3.89324C30.3346 3.92198 30.5696 4.04973 30.733 4.24925C30.8965 4.44878 30.9755 4.70427 30.9533 4.96124C30.951 4.98903 30.9473 5.01655 30.9428 5.04366C30.7856 6.12286 24.6742 50.8441 24.4914 52.1821C24.4185 52.9429 23.6363 53.5992 22.1656 54.1335C20.7836 54.6174 19.3294 54.8629 17.8652 54.8594Z" fill="#D69E3D"/>
<path d="M12.2205 53.0632C11.9818 53.0629 11.7513 52.9761 11.5715 52.819C11.3918 52.662 11.275 52.4452 11.2426 52.2086C11.1793 51.7457 4.94562 6.12693 4.78765 5.04288C4.78306 5.0159 4.77956 4.98851 4.77713 4.96072C4.75487 4.70373 4.83392 4.44822 4.99741 4.24869C5.1609 4.04917 5.39588 3.92143 5.65223 3.89272C5.74949 3.88207 6.61163 3.81637 6.75975 4.87304L7.02105 6.76811C7.19831 8.05869 7.45126 9.90264 7.75424 12.1153C8.36048 16.54 9.16758 22.4403 9.97455 28.3405C11.5882 40.1408 13.2007 51.9411 13.2007 51.9411C13.2183 52.0697 13.2103 52.2005 13.1774 52.326C13.1444 52.4515 13.0871 52.5693 13.0086 52.6726C12.9301 52.7759 12.832 52.8628 12.72 52.9282C12.6079 52.9936 12.4841 53.0364 12.3555 53.0539C12.3108 53.0601 12.2657 53.0632 12.2205 53.0632Z" fill="#D69E3D"/>
<path d="M8.4867 32.129C4.99145 32.129 1.89363 29.3805 1.35214 25.6066C1.05928 23.6639 1.51602 21.6826 2.62977 20.0642C3.16248 19.2794 3.85268 18.614 4.65647 18.1103C5.46026 17.6066 6.36005 17.2757 7.29864 17.1386C7.42801 17.1181 7.56016 17.1236 7.68742 17.1546C7.81467 17.1856 7.93449 17.2417 8.0399 17.3194C8.1453 17.3972 8.23419 17.4951 8.3014 17.6075C8.36861 17.72 8.41281 17.8446 8.43141 17.9743C8.45001 18.1039 8.44263 18.236 8.40974 18.3628C8.37684 18.4896 8.31907 18.6086 8.23978 18.7128C8.16048 18.8171 8.06124 18.9045 7.94785 18.9701C7.83445 19.0356 7.70916 19.078 7.57924 19.0947C6.90961 19.1944 6.26803 19.4324 5.69532 19.7934C5.12262 20.1545 4.63131 20.6308 4.25261 21.192C3.42487 22.4001 3.08731 23.8778 3.30832 25.3256C3.74377 28.3608 6.36878 30.5046 9.15891 30.1041C9.41636 30.071 9.67648 30.1406 9.88308 30.2977C10.0897 30.4548 10.2262 30.6869 10.263 30.9439C10.2999 31.2008 10.2341 31.4619 10.0801 31.6708C9.92597 31.8797 9.69586 32.0195 9.4395 32.0602C9.12394 32.1057 8.80553 32.1287 8.4867 32.129Z" fill="#D69E3D"/>
<path d="M8.37317 28.9076C7.44765 28.9071 6.54804 28.6019 5.8133 28.0391C4.90901 27.349 4.31188 26.3314 4.1504 25.2053C3.98893 24.0793 4.27605 22.9349 4.94995 22.0184C5.28208 21.5647 5.70168 21.1821 6.18403 20.8931C6.66637 20.6042 7.2017 20.4147 7.75843 20.3359C8.01587 20.3029 8.276 20.3724 8.48259 20.5295C8.68918 20.6867 8.82565 20.9188 8.86251 21.1757C8.89936 21.4326 8.83365 21.6938 8.67955 21.9026C8.52546 22.1115 8.29538 22.2514 8.03901 22.292C7.74167 22.3343 7.45582 22.4358 7.19833 22.5904C6.94083 22.745 6.71689 22.9496 6.53974 23.1922C6.17457 23.6908 6.01925 24.3127 6.10703 24.9245C6.1948 25.5363 6.5187 26.0894 7.00933 26.4652C7.2476 26.6481 7.52005 26.7814 7.81064 26.8574C8.10124 26.9333 8.4041 26.9504 8.70137 26.9074C8.95882 26.8744 9.21894 26.9439 9.42554 27.101C9.63213 27.2582 9.76861 27.4903 9.80547 27.7472C9.84233 28.0041 9.77659 28.2653 9.6225 28.4741C9.46841 28.683 9.23832 28.8229 8.98196 28.8635C8.78033 28.8926 8.57689 28.9074 8.37317 28.9076Z" fill="#D69E3D"/>
</svg>
