<svg width="44" height="40" viewBox="0 0 44 40" fill="none" xmlns="http://www.w3.org/2000/svg">
<path d="M42.0084 28.4855C40.3411 28.4855 38.6738 25.7284 37.0064 25.7284C35.339 25.7284 33.6717 28.4855 32.0046 28.4855C30.3374 28.4855 28.6699 25.7284 27.0022 25.7284C25.3345 25.7284 23.6675 28.4855 22.0002 28.4855C20.3329 28.4855 18.6655 25.7284 16.9982 25.7284C15.331 25.7284 13.6639 28.4855 11.9963 28.4855C10.3286 28.4855 8.66184 25.7284 6.9943 25.7284C5.32676 25.7284 3.65971 28.4855 1.99229 28.4855H42.0084ZM2.18385 31.5983H41.8163C41.999 31.599 42.174 31.6719 42.3031 31.8011C42.4323 31.9302 42.5052 32.1052 42.5059 32.2879V38.1466C42.5049 38.3292 42.4319 38.504 42.3028 38.6331C42.1737 38.7622 41.9989 38.8352 41.8163 38.8362H2.18385C2.00119 38.8354 1.82626 38.7625 1.69711 38.6334C1.56795 38.5042 1.49504 38.3293 1.49427 38.1466V32.2875C1.49474 32.1047 1.56754 31.9296 1.69676 31.8004C1.82598 31.6712 2.0011 31.5984 2.18385 31.5979V31.5983ZM1.68685 14.9708L23.7462 1.88343C25.3093 0.956178 27.7157 0.813028 29.0458 2.11636L42.3131 15.1209L1.68685 14.9708ZM2.18372 14.9588H41.8162C41.9989 14.9595 42.1739 15.0324 42.303 15.1616C42.4322 15.2907 42.5051 15.4657 42.5058 15.6484V21.5071C42.5048 21.6897 42.4318 21.8645 42.3027 21.9936C42.1736 22.1227 41.9988 22.1956 41.8162 22.1967H2.18372C2.00107 22.1959 1.82614 22.123 1.69698 21.9939C1.56782 21.8647 1.49491 21.6898 1.49414 21.5071V15.648C1.49461 15.4652 1.56742 15.2901 1.69664 15.1609C1.82586 15.0317 2.00098 14.9589 2.18372 14.9584V14.9588Z" stroke="#D69E3D" stroke-width="1.78784" stroke-linecap="round" stroke-linejoin="round"/>
</svg>
