<svg width="46" height="46" viewBox="0 0 46 46" fill="none" xmlns="http://www.w3.org/2000/svg">
<path d="M22.5321 36.8112C22.7494 37.1577 23.0048 37.4788 23.2934 37.7686C25.5017 39.9769 27.389 40.1148 26.4045 42.4396C25.4624 44.6673 21.5791 44.6677 17.516 43.3978C15.7257 42.8209 14.0358 41.9698 12.5063 40.875M15.9666 5.36069L15.9164 5.29006C14.7747 3.69202 10.2741 7.4372 9.01461 8.61742L8.96814 8.66074L8.95501 8.67387L8.913 8.71324L8.89988 8.72638L8.86195 8.76261L8.85027 8.77455L8.81771 8.80645L8.80602 8.81918L8.77399 8.85173L8.76231 8.86355L8.72595 8.90136L8.71283 8.91382L8.67344 8.95596L8.66032 8.96909L8.61714 9.01542C7.43613 10.2751 3.69147 14.7753 5.28965 15.9173L5.36026 15.9675M15.9666 5.36069C21.0388 10.1468 25.002 15.4079 27.3836 21.3477L27.4214 21.4009C27.987 22.1925 28.1144 23.2427 27.4413 23.9387L27.4214 23.9597L27.4097 23.9713L23.9705 27.4105L23.9587 27.4223L23.9377 27.4423C23.242 28.1153 22.1918 27.9877 21.3998 27.4223L21.3473 27.3844C15.4074 25.0028 10.1464 21.0395 5.36026 15.9675M15.9666 5.36069C18.2604 3.83733 28.5415 -0.457986 29.9854 3.1537C32.8681 10.3679 33.5588 15.6854 32.9287 20.5568C32.8016 21.5413 32.2225 22.5664 31.2448 22.644L28.0603 22.8964M5.36026 15.9675C3.83678 18.2606 -0.459068 28.5419 3.15261 29.9859C10.3668 32.8686 15.6843 33.5591 20.5556 32.929C21.5401 32.8021 22.5652 32.2229 22.6427 31.2452L22.8953 28.0607M21.7269 32.9714L22.6426 35.1504C22.9298 35.833 22.5237 36.2512 21.9323 36.7111C19.0026 38.9884 16.8363 40.0506 10.9798 40.438C7.95842 40.6379 3.85593 32.7937 4.42051 30.7795M36.8103 22.5334C37.1568 22.7507 37.4779 23.0061 37.7676 23.2948C39.9759 25.5031 40.1139 27.3903 42.4386 26.4058C44.6663 25.4637 44.6669 21.5803 43.3975 17.5173C42.8203 15.7269 41.9691 14.0367 40.874 12.5071M32.9697 21.7276L35.1487 22.6433C35.8313 22.9305 36.2495 22.5244 36.7092 21.933C38.9868 19.0033 40.0489 16.837 40.4363 10.9805C40.6362 7.95912 32.7919 3.85663 30.7778 4.42121" stroke="#D69E3D" stroke-width="1.83774" stroke-linecap="round" stroke-linejoin="round"/>
</svg>
