<svg width="108" height="111" viewBox="0 0 108 111" fill="none" xmlns="http://www.w3.org/2000/svg">
<path d="M16.7398 79.0744C8.24879 68.6131 13.4501 54.5227 21.5281 45.6555C25.2351 41.5872 29.284 37.8357 33.5389 34.3504C46.9306 23.3751 65.2164 13.7651 82.1825 22.7777C82.5583 22.9782 82.8191 22.4192 82.4742 22.2021C65.7461 11.6041 45.7738 22.3832 32.3243 33.4375C19.9421 43.6149 2.12408 62.5601 16.0687 78.5623C16.251 78.7705 16.4417 78.9688 16.6432 79.1592C16.6939 79.2102 16.7842 79.133 16.7398 79.0744" fill="#D0C9BE"/>
<path d="M94.2228 32.3967C91.5005 35.3361 86.7872 34.7304 83.4485 36.6553C81.413 37.829 80.4959 40.4512 81.6222 42.4844C81.798 42.2238 81.9744 41.9639 82.1509 41.7039C79.5002 41.0523 77.7948 38.9711 75.5637 37.6132C75.1896 37.3843 74.814 37.8852 75.0282 38.218C76.5653 40.6086 79.4105 41.4403 81.8147 42.6587C82.2227 42.865 82.65 42.4627 82.5283 42.0418C81.2419 37.6429 86.4036 36.5507 89.4804 35.8087C91.5021 35.3205 93.2333 34.2527 94.3285 32.4684C94.3689 32.4045 94.2695 32.3467 94.2228 32.3967" fill="#D0C9BE"/>
<path d="M76.6022 39.2884C76.272 41.3023 75.8548 43.6043 73.7844 44.5916C73.0226 44.9554 71.9508 44.9188 71.1173 45.1205C69.9208 45.4087 68.8458 45.8115 67.7369 46.3474C64.1994 48.0544 61.004 51.0728 58.0036 53.5706C56.546 54.783 55.1287 56.0461 53.7244 57.3245C53.1315 57.864 52.3603 58.9553 51.4416 58.9155C50.5834 58.8797 49.6788 58.975 48.8382 59.141C45.7395 59.7541 42.8047 60.9977 41.0154 63.6872C40.8256 63.9742 41.2316 64.2553 41.4839 64.1015C43.2544 62.9944 44.9734 61.8271 46.9423 61.0864C47.8911 60.7306 48.9009 60.5707 49.9023 60.4461C50.6913 60.3516 51.7882 60.6471 52.5186 60.4058C53.9321 59.9384 55.695 57.6136 56.7941 56.67C58.6457 55.0827 60.5578 53.5674 62.5055 52.1032C64.2099 50.8217 65.9502 49.583 67.7564 48.4591C68.9857 47.6927 70.2404 47.0838 71.6264 46.6528C72.5337 46.3728 73.5635 46.3486 74.4116 45.8744C77.0116 44.422 77.1383 42.0291 76.8584 39.3078C76.8431 39.1675 76.6265 39.1388 76.6022 39.2884" fill="#D0C9BE"/>
<path d="M38.912 62.7919C36.5481 64.6719 33.8421 66.1544 30.9485 67.0246C28.6562 67.7151 26.357 67.7452 24.7624 69.7267C23.4537 71.3572 23.2018 73.8406 22.2859 75.6818C21.0799 78.1168 18.6021 79.302 17.3206 81.5334C17.2103 81.7256 17.3841 81.9692 17.5955 81.9553C21.4951 81.6997 23.986 76.0415 24.9856 72.8849C25.6632 70.7503 26.6216 69.6333 28.9338 69.0913C30.354 68.7614 31.6479 68.4148 32.9873 67.8215C35.4857 66.7131 37.3594 65.0424 38.9967 62.8885C39.0382 62.834 38.9726 62.745 38.912 62.7919" fill="#D0C9BE"/>
<path d="M93.6823 34.451C92.0992 34.929 91.2738 35.9577 90.5881 37.4183C90.1189 38.4186 89.9921 39.6086 89.8449 40.6922C89.7718 41.2302 88.2994 47.2074 86.8991 45.6075C84.4881 42.8618 79.4769 45.7295 77.217 47.089C73.2516 49.474 69.9295 52.875 66.5697 56.0104C62.6781 59.6432 58.7353 62.4978 53.8631 64.6618C53.6187 64.7712 53.6488 65.2215 53.9568 65.1655C62.6605 63.56 68.8348 55.1314 75.6826 50.2133C77.6177 48.8235 79.7155 47.6511 81.9601 46.8441C83.4153 46.3225 85.0119 46.0938 86.1879 47.3101C86.573 47.7098 87.2673 47.4168 87.6889 47.32C89.0192 47.0167 90.1739 45.3716 90.5481 44.1597C91.5141 41.026 90.0879 36.3185 93.7232 34.5745C93.7965 34.5383 93.7643 34.4262 93.6823 34.451" fill="#D0C9BE"/>
<path d="M96.4524 33.656C102.022 52.4536 85.4823 67.341 71.6116 76.7328C63.7948 82.0236 55.3114 86.6531 46.0191 88.6572C41.6225 89.605 37.0468 89.7694 32.5886 89.2375C28.2861 88.7258 24.372 87.1373 20.4324 85.4297C20.2401 85.3449 20.032 85.6081 20.2174 85.7467C26.958 90.8247 36.6839 91.3436 44.7393 90.1505C54.8583 88.6574 64.0796 83.6354 72.4062 77.9265C86.5259 68.2465 103.126 52.6401 96.5751 33.6145C96.5477 33.5362 96.429 33.5769 96.4524 33.656" fill="#D0C9BE"/>
<path d="M94.2395 31.7912C89.2548 25.2072 82.0481 20.5541 73.954 18.8032C66.3806 17.1662 57.0078 18.8945 50.5802 23.2216C50.1022 23.5431 50.4923 24.1977 51.0021 24.0815C58.2718 22.4586 65.624 20.3524 73.1485 20.6648C81.1048 20.9994 88.9709 26.125 94.1899 31.8346C94.216 31.8608 94.2607 31.8217 94.2395 31.7912Z" fill="#D0C9BE"/>
<path d="M76.9291 28.6611C74.7228 22.9377 67.4803 21.57 62.0861 21.2515C58.2649 21.0288 54.3995 21.6489 50.6987 22.5644C47.1651 23.4374 43.4539 24.7097 40.9541 27.4659C40.6629 27.7826 41.0093 28.2561 41.3991 28.1412C44.3874 27.2696 47.232 25.9715 50.2203 25.0745C53.5287 24.0848 56.9328 23.6344 60.3732 23.4397C66.1414 23.12 73.0281 23.8278 76.8715 28.6892C76.8922 28.7151 76.9415 28.697 76.9291 28.6611" fill="#D0C9BE"/>
<path d="M61.7784 31.3043C57.9564 28.6158 52.7628 27.7898 48.188 28.0144C43.3947 28.2512 36.7029 29.3474 33.5579 33.4197C33.3485 33.6945 33.6481 34.0011 33.9379 33.8533C38.3704 31.5797 42.5751 29.9776 47.6029 29.5424C52.2683 29.1388 57.513 29.0683 61.7416 31.3584C61.7732 31.3764 61.808 31.3248 61.7784 31.3043" fill="#D0C9BE"/>
<path d="M46.5856 33.1186C43.3659 32.0321 40.0027 31.7347 36.6988 32.6177C33.8873 33.3698 30.25 34.9592 29.0535 37.7932C28.9712 37.9876 29.1413 38.2409 29.3671 38.1541C31.8909 37.1776 33.8995 35.3055 36.4824 34.3446C39.6919 33.1486 43.184 32.6998 46.5749 33.1819C46.617 33.1875 46.626 33.1313 46.5856 33.1186" fill="#D0C9BE"/>
<path d="M36.7292 39.5024C32.9849 38.3624 29.0684 38.6889 25.6413 40.6204C22.8132 42.2128 19.3053 44.5142 18.4901 47.8765C18.4373 48.0914 18.7402 48.2521 18.8817 48.0734C22.9459 42.9107 29.9896 38.4673 36.7008 39.6273C36.7854 39.643 36.8075 39.5256 36.7292 39.5024" fill="#D0C9BE"/>
<path d="M29.6076 45.8526C23.6473 45.5097 16.5475 48.784 14.5214 54.7089C14.4014 55.0545 14.92 55.2772 15.1331 55.0182C18.8291 50.5072 23.5263 46.3985 29.6086 45.9172C29.6545 45.9132 29.6471 45.856 29.6076 45.8526" fill="#D0C9BE"/>
<path d="M15.642 61.7729C16.0507 57.6743 19.0771 53.7787 21.5302 50.673C25.7367 45.3407 30.8683 40.7295 36.3451 36.7352C42.7777 32.0425 49.9892 28.2754 57.5607 25.7964C66.0804 23.008 74.7111 22.6505 83.5576 23.494C84.0062 23.5347 84.1584 22.9143 83.7061 22.7983C66.9651 18.565 48.9512 25.8147 35.7657 35.8706C30.1892 40.1256 25.1013 45.1305 20.9146 50.7684C18.6091 53.8705 15.8581 57.772 15.579 61.7668C15.5756 61.8064 15.6381 61.8079 15.642 61.7729" fill="#D0C9BE"/>
<path d="M45.781 35.2852C45.781 35.2852 46.2999 34.9555 47.2239 34.3963C47.6801 34.116 48.2532 33.7978 48.9073 33.4286C49.5606 33.0502 50.3094 32.6542 51.1349 32.2376C51.9518 31.801 52.8658 31.3905 53.827 30.939C54.8002 30.5187 55.8198 30.0482 56.9051 29.6413C57.444 29.4346 57.9962 29.2222 58.5531 29.0094C59.1161 28.8146 59.6883 28.6189 60.2626 28.4208C60.8365 28.218 61.4274 28.0507 62.0196 27.8718C62.6075 27.6979 63.1985 27.5052 63.8001 27.3555C64.3993 27.2037 64.9985 27.052 65.5951 26.8981C66.1963 26.7692 66.7996 26.6379 67.394 26.5119C67.9873 26.3722 68.5817 26.2716 69.1744 26.1782C69.7626 26.0851 70.3441 25.9695 70.9179 25.8985C72.0678 25.754 73.1826 25.6056 74.245 25.545C74.7733 25.508 75.2892 25.4606 75.7887 25.4377C76.2869 25.4265 76.7689 25.4143 77.2325 25.4038C78.1602 25.362 79.0101 25.4078 79.7612 25.4345C80.1368 25.4479 80.489 25.4586 80.8112 25.4697C81.1371 25.4967 81.4343 25.5209 81.7031 25.5424C82.7791 25.6334 83.3896 25.6995 83.3896 25.6995C83.3896 25.6995 82.7743 25.7186 81.6988 25.73C81.4299 25.7339 81.1328 25.7354 80.8079 25.7391C80.4871 25.7546 80.1352 25.7739 79.7604 25.7951C79.0153 25.8372 78.1768 25.869 77.2627 25.9605C76.804 26.0006 76.3269 26.0423 75.8361 26.0853C75.3444 26.1445 74.8389 26.2049 74.3151 26.2669C73.2709 26.3767 72.1813 26.5761 71.0497 26.7444C70.4841 26.8309 69.9155 26.9615 69.3377 27.0675C68.7583 27.1806 68.1739 27.2895 67.5873 27.4264C67.0028 27.5607 66.4112 27.6933 65.8196 27.826C65.23 27.9815 64.6405 28.1371 64.0509 28.2927C63.4555 28.4349 62.8729 28.6176 62.2891 28.7866C61.7057 28.9601 61.1207 29.1153 60.551 29.313C59.9801 29.497 59.4113 29.6785 58.8516 29.8592C58.2956 30.0558 57.7443 30.2519 57.2038 30.4402C56.6629 30.6239 56.1402 30.8314 55.6235 31.0268C55.1046 31.2247 54.5983 31.4077 54.1116 31.6028C53.1422 32.0135 52.2088 32.3609 51.3684 32.7395C50.5271 33.1089 49.7489 33.4335 49.0717 33.7493C48.3915 34.0584 47.7928 34.3211 47.3126 34.5642C46.3409 35.0282 45.781 35.2852 45.781 35.2852" fill="#D0C9BE"/>
<path d="M23.8165 55.1038C23.8165 55.1038 23.8306 55.001 23.8625 54.811C23.8919 54.6189 23.9229 54.3388 24.0545 53.9945C24.1181 53.8226 24.1672 53.6172 24.2562 53.4199C24.3494 53.2176 24.4485 53.0033 24.5531 52.7722C24.6548 52.5345 24.8015 52.3091 24.9345 52.0594C25.0746 51.8114 25.2201 51.5468 25.4011 51.2906C25.5725 51.0306 25.7498 50.7586 25.9379 50.4787C26.1385 50.2092 26.3479 49.9344 26.5631 49.6474C26.994 49.0782 27.4799 48.5041 27.9976 47.9227C28.5256 47.3542 29.0646 46.7523 29.656 46.1945C30.2291 45.6128 30.8538 45.0659 31.461 44.5043C32.0886 43.9641 32.724 43.4347 33.359 42.9262C34.004 42.426 34.633 41.9296 35.2715 41.4878C35.9025 41.0397 36.5118 40.6073 37.1143 40.2288C37.7142 39.8481 38.2708 39.4736 38.8108 39.1744C39.3472 38.8594 39.8404 38.5805 40.279 38.3364C40.72 38.0945 41.1171 37.9049 41.4379 37.7405C42.0826 37.4229 42.4551 37.2424 42.4551 37.2424C42.4551 37.2424 42.1203 37.4843 41.5357 37.9076C41.2415 38.1113 40.8846 38.3643 40.4776 38.6519C40.0739 38.9507 39.62 39.2839 39.1194 39.6374C38.6163 39.9887 38.1008 40.4106 37.5316 40.8255C36.962 41.2359 36.3934 41.7108 35.7845 42.1732C35.1701 42.6267 34.5838 43.1634 33.9519 43.6532C33.3331 44.1626 32.7143 44.6974 32.1026 45.2339C31.4984 45.7768 30.8767 46.3049 30.3065 46.8679C29.719 47.4162 29.1568 47.9645 28.6218 48.5059C28.3445 48.7705 28.1063 49.0595 27.847 49.3179C27.593 49.5851 27.3428 49.8427 27.1189 50.1096C26.89 50.3723 26.6648 50.6254 26.4485 50.8731C26.2421 51.1292 26.0441 51.3753 25.8523 51.614C25.6531 51.8463 25.4939 52.0868 25.3284 52.3092C25.1705 52.538 24.9964 52.7404 24.8764 52.9543C24.6149 53.3724 24.3785 53.7351 24.2357 54.0573C24.0641 54.3681 23.9723 54.6396 23.9121 54.8228C23.8494 55.0039 23.8165 55.1038 23.8165 55.1038" fill="#D0C9BE"/>
<path d="M23.2132 52.4809C18.5768 52.318 12.8284 55.4001 12.5109 60.5146C12.4945 60.8026 12.8784 60.806 12.9983 60.6176C14.0619 58.9599 14.9482 57.2554 16.3624 55.8536C18.1853 54.0509 20.7022 52.8901 23.2143 52.5455C23.2577 52.5394 23.2549 52.4819 23.2132 52.4809" fill="#D0C9BE"/>
<path d="M73.76 65.184C72.9484 69.9264 69.8379 73.8152 66.7895 77.3692C63.4691 81.2391 59.4161 83.6101 55.073 86.0948C54.8232 86.238 54.9684 86.6531 55.2479 86.6284C60.2774 86.1648 64.7159 81.9197 67.9046 78.3474C71.0503 74.824 73.5744 69.9757 73.8229 65.1901C73.824 65.1528 73.7641 65.1492 73.76 65.184" fill="#D0C9BE"/>
<path d="M62.9691 71.691C61.951 75.8818 59.1658 79.0531 56.2157 82.0564C53.3302 84.9906 49.6994 86.4663 46.5329 88.9479C46.3256 89.1098 46.4284 89.4128 46.6878 89.4222C50.5747 89.5682 54.3108 86.0599 56.9209 83.5662C60.1517 80.4797 62.58 76.1928 63.0316 71.7051C63.0351 71.6656 62.9785 71.652 62.9691 71.691" fill="#D0C9BE"/>
<path d="M51.9776 76.6417C49.3848 83.8848 42.3004 88.9147 34.7491 89.8762C34.4943 89.9089 34.4613 90.2552 34.7135 90.3224C38.5778 91.3802 42.9179 88.893 46.043 86.8442C49.1438 84.8132 51.2788 80.1612 52.0994 76.6845C52.1159 76.6132 52.0021 76.573 51.9776 76.6417" fill="#D0C9BE"/>
<path d="M43.6587 78.7144C39.804 83.904 32.987 87.2754 26.6772 88.0248C26.2839 88.073 26.2174 88.6335 26.6231 88.7274C33.2124 90.2698 40.6539 84.1199 43.7097 78.7529C43.7277 78.7213 43.6807 78.6861 43.6587 78.7144Z" fill="#D0C9BE"/>
<path d="M75.7704 70.7858C75.7704 70.7858 76.0687 70.5134 76.5909 70.0334C76.8547 69.8 77.1768 69.5135 77.5461 69.1858C77.9202 68.8707 78.3266 68.4891 78.7642 68.0785C79.2057 67.6669 79.6828 67.2214 80.195 66.7629C80.6979 66.2923 81.2017 65.7673 81.7471 65.2516C82.0161 64.9927 82.2922 64.7271 82.5703 64.4589C82.8388 64.1785 83.1094 63.8955 83.38 63.6125C83.9234 63.0399 84.4995 62.4819 85.03 61.8857C85.567 61.2908 86.1043 60.696 86.6311 60.1138C87.163 59.5315 87.6455 58.9206 88.1329 58.3519C88.6114 57.7716 89.1015 57.235 89.513 56.6793C89.9322 56.1342 90.34 55.6263 90.7175 55.1567C91.103 54.6897 91.4215 54.2387 91.7151 53.8432C92.0086 53.4519 92.2674 53.108 92.4787 52.8263C92.9114 52.2671 93.1613 51.9455 93.1613 51.9455C93.1613 51.9455 92.9713 52.3046 92.6416 52.929C92.4703 53.24 92.2626 53.6183 92.0259 54.0487C91.7842 54.4792 91.5213 54.9727 91.1757 55.4733C90.8462 55.983 90.4838 56.5375 90.0947 57.1121C89.719 57.7022 89.2674 58.2839 88.8023 58.8839C88.568 59.1889 88.3325 59.4928 88.0941 59.8028C87.8566 60.1177 87.6151 60.4294 87.3429 60.7238C86.8144 61.3259 86.2788 61.9348 85.7408 62.546C85.1956 63.1426 84.6045 63.7006 84.0448 64.2724C83.7622 64.558 83.4806 64.836 83.1983 65.1049C82.9056 65.3651 82.6148 65.6226 82.3291 65.8759C81.7598 66.3801 81.2103 66.8668 80.6706 67.3065C80.1217 67.7428 79.5963 68.1435 79.1132 68.5116C78.8711 68.6952 78.6391 68.8704 78.4188 69.0383C78.1896 69.1944 77.974 69.3409 77.7706 69.4805C77.3599 69.7521 77.0016 69.9913 76.7068 70.186C76.112 70.5667 75.7704 70.7858 75.7704 70.7858" fill="#D0C9BE"/>
<path d="M24.2632 83.1769C24.2632 83.1769 24.4425 83.2722 24.7771 83.4509C25.1133 83.6225 25.5922 83.9181 26.2534 84.1583C26.5835 84.2866 26.9369 84.4429 27.3354 84.586C27.7431 84.7028 28.1796 84.8311 28.6514 84.9678C29.1157 85.1236 29.6349 85.1937 30.1715 85.3039C30.7095 85.4068 31.2709 85.5336 31.8707 85.5821C32.4706 85.6392 33.0867 85.7396 33.7334 85.7723C34.3806 85.7968 35.0496 85.8226 35.7377 85.8474C36.425 85.8631 37.1331 85.8069 37.8537 85.791C38.2164 85.7681 38.5811 85.7766 38.9466 85.7391C39.3151 85.6997 39.6845 85.6611 40.0587 85.6224C40.8029 85.5328 41.5683 85.5035 42.3268 85.3451C43.0885 85.2149 43.8593 85.0839 44.6381 84.9511C45.4107 84.8003 46.1809 84.5966 46.9615 84.4185L48.1294 84.1446C48.5161 84.0398 48.8975 83.9136 49.2837 83.7998C50.0517 83.5729 50.8217 83.3436 51.5869 83.1185C52.3478 82.8687 53.0911 82.5785 53.8353 82.3147C54.207 82.1802 54.5779 82.0452 54.9454 81.9116C55.3169 81.7855 55.6817 81.6496 56.0384 81.4899C56.753 81.1884 57.4573 80.891 58.1536 80.5955C59.557 80.039 60.8512 79.3653 62.1053 78.7728C62.7246 78.4679 63.3411 78.1946 63.9165 77.8868C64.4898 77.5773 65.0449 77.278 65.5773 76.9895C66.1098 76.7053 66.6219 76.4294 67.1064 76.1686C67.5938 75.9103 68.0632 75.6751 68.4806 75.4133C69.3285 74.9092 70.0669 74.4705 70.6753 74.1097C71.8986 73.3978 72.5977 72.9897 72.5977 72.9897C72.5977 72.9897 71.9425 73.46 70.7781 74.2682C70.1935 74.6702 69.4842 75.1589 68.6704 75.7214C67.8594 76.2862 66.8913 76.8382 65.8523 77.4752C65.3307 77.7899 64.7887 78.1172 64.2263 78.4571C63.661 78.7945 63.0481 79.0878 62.4348 79.419C61.192 80.0593 59.9117 80.7914 58.5002 81.3794C57.8035 81.6916 57.0962 82.0077 56.3792 82.3283C55.6714 82.6653 54.908 82.9045 54.1606 83.1954C53.407 83.4684 52.6544 83.7677 51.8872 84.025C51.1098 84.261 50.3283 84.4979 49.5476 84.7354C49.1556 84.8485 48.7683 84.9697 48.3736 85.0763L47.1827 85.3479C46.3884 85.523 45.603 85.7225 44.8137 85.872C43.2264 86.1255 41.6666 86.3893 40.1313 86.4739C39.7512 86.5035 39.3731 86.5347 38.9981 86.5643C38.6237 86.5987 38.2493 86.5778 37.8791 86.5859C37.1412 86.5788 36.42 86.6112 35.7182 86.5707C35.0171 86.5178 34.336 86.4649 33.6759 86.4168C33.0192 86.3504 32.3911 86.2186 31.7865 86.1277C31.1774 86.0502 30.6082 85.8998 30.0678 85.7567C29.5301 85.6073 29.0102 85.5026 28.5498 85.3118C28.0797 85.1426 27.645 84.9818 27.2416 84.8346C26.8453 84.6635 26.4916 84.4772 26.1686 84.3252C25.513 84.0428 25.0756 83.6929 24.7486 83.495C24.4324 83.2892 24.2632 83.1769 24.2632 83.1769" fill="#D0C9BE"/>
<path d="M56.2226 76.7105C56.2226 76.7105 56.734 76.4809 57.6369 76.0993C58.0896 75.9139 58.6362 75.6798 59.2539 75.3991C59.8744 75.1164 60.5781 74.8143 61.3346 74.4588C62.092 74.1082 62.9144 73.7314 63.7727 73.3083C64.6382 72.8998 65.5311 72.4334 66.4583 71.9576C67.3931 71.4924 68.318 70.9423 69.2796 70.4274C70.2217 69.8705 71.1902 69.3316 72.1132 68.7205C73.0658 68.1469 73.9678 67.5097 74.8697 66.8937C75.3053 66.5706 75.7407 66.2473 76.1679 65.93C76.3833 65.7707 76.5953 65.6128 76.8065 65.4543C77.0087 65.2882 77.2102 65.1215 77.4094 64.9571C77.8073 64.6237 78.2083 64.3099 78.5818 63.9772C78.9518 63.6416 79.3112 63.3142 79.6633 62.9933C80.025 62.6848 80.3232 62.3315 80.6421 62.0168C80.9472 61.6947 81.2705 61.4006 81.5333 61.0814C81.8011 60.7663 82.0595 60.4603 82.3032 60.1719C82.4274 60.0295 82.5487 59.889 82.6658 59.7535C82.7721 59.609 82.8733 59.4686 82.9734 59.3316C83.1724 59.0565 83.3589 58.8008 83.5297 58.5658C83.7095 58.3298 83.8614 58.1088 83.9762 57.8949C84.4749 57.0595 84.7763 56.5813 84.7763 56.5813C84.7763 56.5813 84.5558 57.0933 84.1424 57.9876C84.0453 58.2163 83.9136 58.4543 83.7584 58.7066C83.6079 58.9629 83.4458 59.2392 83.2721 59.5354C83.1847 59.6831 83.0941 59.8367 83.0025 59.9935C82.897 60.143 82.7871 60.2973 82.6784 60.4526C82.4498 60.7666 82.2127 61.0947 81.9631 61.4378C81.7162 61.7832 81.4125 62.1021 81.1201 62.4561C80.8194 62.7988 80.5256 63.1728 80.1749 63.5076C79.8319 63.8531 79.4795 64.2077 79.1208 64.5698C78.7612 64.9311 78.3538 65.2565 77.9602 65.6106C77.7626 65.7848 77.5619 65.9606 77.3591 66.139C77.1487 66.3067 76.9372 66.4736 76.7247 66.6438C76.2957 66.9808 75.8654 67.3296 75.4178 67.6553C74.507 68.2894 73.5943 68.9517 72.6311 69.5418C71.686 70.1514 70.6976 70.6906 69.7376 71.2452C69.2527 71.5141 68.7597 71.7592 68.2798 72.0069C67.7977 72.2568 67.3189 72.5011 66.8408 72.7205C66.3637 72.945 65.8948 73.1636 65.4368 73.3786C64.9744 73.5857 64.5146 73.7736 64.0727 73.9638C63.1895 74.3533 62.3349 74.6733 61.5461 74.972C60.7673 75.2833 60.0299 75.5147 59.3816 75.7357C58.735 75.9582 58.168 76.137 57.6999 76.2755C56.7622 76.5598 56.2226 76.7105 56.2226 76.7105" fill="#D0C9BE"/>
<path d="M27.2435 80.591C27.2435 80.591 27.2613 80.6103 27.2988 80.6417C27.3383 80.6706 27.3831 80.7337 27.4659 80.7819C27.6244 80.8766 27.87 80.9892 28.212 81.0679C28.8842 81.2494 29.8874 81.3304 31.0887 81.3524C31.6882 81.3623 32.3436 81.3512 33.0328 81.3302C33.7198 81.3117 34.4487 81.256 35.1984 81.2135C36.7006 81.0969 38.3005 80.9433 39.8929 80.7238C40.6898 80.6189 41.4859 80.5049 42.2657 80.3729C43.0448 80.2361 43.814 80.1207 44.5533 79.9675C46.0315 79.682 47.4045 79.3677 48.5723 79.064C49.1546 78.9065 49.6909 78.7658 50.1612 78.6206C50.6334 78.4813 51.0403 78.351 51.3791 78.24C52.051 78.0132 52.4355 77.8811 52.4355 77.8811C52.4355 77.8811 52.3477 77.9306 52.1809 78.0245C52.0123 78.1125 51.7732 78.2647 51.452 78.4201C50.8198 78.744 49.8905 79.1713 48.7402 79.5959C48.1652 79.8105 47.5379 80.0237 46.8651 80.2243C46.1941 80.4263 45.4808 80.631 44.7347 80.804C43.9894 80.982 43.218 81.1592 42.4259 81.2979C41.6356 81.4423 40.83 81.5697 40.0206 81.6853C39.2099 81.7828 38.3983 81.8754 37.598 81.9391C36.7959 82.0142 36.006 82.0356 35.2408 82.0651C33.7082 82.101 32.2732 82.053 31.0518 81.9079C29.8309 81.7675 28.8173 81.5419 28.1496 81.2536C27.8124 81.1237 27.575 80.9456 27.4274 80.8176C27.3551 80.7569 27.3211 80.6859 27.2879 80.6495C27.2593 80.6127 27.2435 80.591 27.2435 80.591" fill="#D0C9BE"/>
<path d="M33.3091 82.4206C31.5909 84.0773 29.5964 84.9752 27.3214 85.5995C25.1099 86.209 22.873 85.6836 20.6547 85.4756C20.4334 85.4556 20.1893 85.7566 20.4301 85.9204C24.6616 88.8251 30.6103 86.217 33.3578 82.4614C33.3832 82.4276 33.3393 82.3907 33.3091 82.4206" fill="#D0C9BE"/>
</svg>
