<svg width="111" height="108" viewBox="0 0 111 108" fill="none" xmlns="http://www.w3.org/2000/svg">
<path d="M31.814 17.2801C42.2753 8.78908 56.3658 13.9904 65.233 22.0684C69.3012 25.7754 73.0528 29.8243 76.5381 34.0792C87.5133 47.4708 97.1234 65.7567 88.1107 82.7228C87.9102 83.0986 88.4692 83.3594 88.6863 83.0145C99.2844 66.2864 88.5052 46.314 77.451 32.8646C67.2735 20.4824 48.3284 2.66436 32.3261 16.609C32.1179 16.7913 31.9196 16.982 31.7293 17.1835C31.6782 17.2342 31.7555 17.3245 31.814 17.2801Z" fill="#D0C9BE"/>
<path d="M78.4915 94.7633C75.5521 92.041 76.1578 87.3277 74.2329 83.9891C73.0592 81.9535 70.437 81.0364 68.4038 82.1628C68.6643 82.3385 68.9243 82.515 69.1843 82.6914C69.8359 80.0407 71.9171 78.3354 73.275 76.1042C73.5038 75.7302 73.003 75.3545 72.6702 75.5688C70.2796 77.1059 69.4478 79.951 68.2295 82.3553C68.0232 82.7632 68.4255 83.1905 68.8463 83.0688C73.2453 81.7824 74.3375 86.9441 75.0795 90.0209C75.5677 92.0427 76.6355 93.7739 78.4198 94.869C78.4837 94.9094 78.5415 94.81 78.4915 94.7633Z" fill="#D0C9BE"/>
<path d="M71.6 77.1432C69.5862 76.813 67.2841 76.3958 66.2969 74.3255C65.933 73.5637 65.9696 72.4918 65.7679 71.6583C65.4798 70.4618 65.0769 69.3868 64.541 68.2779C62.834 64.7404 59.8156 61.545 57.3178 58.5446C56.1055 57.087 54.8423 55.6697 53.5639 54.2654C53.0244 53.6725 51.9331 52.9013 51.9729 51.9826C52.0088 51.1244 51.9135 50.2198 51.7475 49.3792C51.1343 46.2806 49.8908 43.3457 47.2013 41.5565C46.9143 41.3666 46.6331 41.7726 46.7869 42.0249C47.894 43.7954 49.0613 45.5144 49.8021 47.4833C50.1578 48.4321 50.3178 49.4419 50.4424 50.4433C50.5368 51.2324 50.2413 52.3292 50.4827 53.0596C50.95 54.4731 53.2748 56.236 54.2184 57.3351C55.8057 59.1868 57.321 61.0988 58.7852 63.0465C60.0667 64.7509 61.3054 66.4912 62.4293 68.2975C63.1957 69.5267 63.8047 70.7815 64.2356 72.1674C64.5156 73.0747 64.5398 74.1045 65.0141 74.9526C66.4664 77.5526 68.8593 77.6793 71.5806 77.3994C71.721 77.3841 71.7496 77.1676 71.6 77.1432Z" fill="#D0C9BE"/>
<path d="M48.0973 39.4522C46.2172 37.0883 44.7348 34.3823 43.8646 31.4887C43.1741 29.1964 43.1439 26.8972 41.1625 25.3026C39.5319 23.9939 37.0486 23.7419 35.2074 22.8261C32.7723 21.6201 31.5872 19.1423 29.3558 17.8607C29.1636 17.7504 28.9199 17.9243 28.9338 18.1357C29.1895 22.0352 34.8477 24.5262 38.0043 25.5257C40.1389 26.2033 41.2558 27.1617 41.7978 29.4739C42.1278 30.8941 42.4744 32.1881 43.0677 33.5274C44.176 36.0258 45.8468 37.8995 48.0007 39.5369C48.0551 39.5783 48.1442 39.5128 48.0973 39.4522Z" fill="#D0C9BE"/>
<path d="M76.4382 94.2228C75.9602 92.6397 74.9314 91.8143 73.4709 91.1286C72.4705 90.6594 71.2806 90.5326 70.1969 90.3855C69.659 90.3124 63.6817 88.8399 65.2817 87.4397C68.0273 85.0287 65.1597 80.0174 63.8002 77.7575C61.4151 73.7921 58.0142 70.4701 54.8788 67.1102C51.2459 63.2186 48.3914 59.2758 46.2274 54.4036C46.118 54.1592 45.6676 54.1893 45.7237 54.4974C47.3292 63.201 55.7578 69.3753 60.6759 76.2231C62.0657 78.1582 63.2381 80.256 64.0451 82.5007C64.5667 83.9559 64.7953 85.5525 63.579 86.7285C63.1794 87.1135 63.4724 87.8078 63.5691 88.2294C63.8725 89.5597 65.5176 90.7144 66.7294 91.0886C69.8632 92.0546 74.5707 90.6284 76.3147 94.2637C76.3509 94.337 76.4629 94.3048 76.4382 94.2228Z" fill="#D0C9BE"/>
<path d="M77.2329 96.9929C58.4353 102.563 43.5479 86.0228 34.1561 72.1522C28.8653 64.3353 24.2359 55.8519 22.2318 46.5597C21.2839 42.163 21.1195 37.5873 21.6514 33.1291C22.1631 28.8267 23.7516 24.9125 25.4592 20.9729C25.544 20.7806 25.2808 20.5725 25.1422 20.758C20.0642 27.4986 19.5454 37.2244 20.7384 45.2798C22.2316 55.3989 27.2535 64.6201 32.9624 72.9467C42.6424 87.0664 58.2488 103.667 77.2744 97.1157C77.3527 97.0882 77.312 96.9696 77.2329 96.9929Z" fill="#D0C9BE"/>
<path d="M79.097 94.7805C85.681 89.7959 90.3341 82.5891 92.085 74.495C93.7219 66.9216 91.9937 57.5488 87.6666 51.1212C87.3451 50.6432 86.6905 51.0333 86.8067 51.5431C88.4296 58.8128 90.5357 66.165 90.2234 73.6895C89.8887 81.6458 84.7632 89.5119 79.0536 94.7309C79.0274 94.757 79.0665 94.8017 79.097 94.7805Z" fill="#D0C9BE"/>
<path d="M82.2273 77.4699C87.9507 75.2635 89.3185 68.0211 89.6369 62.6269C89.8596 58.8057 89.2395 54.9403 88.3241 51.2395C87.451 47.7059 86.1788 43.9947 83.4225 41.4949C83.1058 41.2036 82.6323 41.5501 82.7473 41.9399C83.6188 44.9281 84.9169 47.7728 85.8139 50.7611C86.8036 54.0695 87.254 57.4736 87.4487 60.914C87.7685 66.6822 87.0606 73.5688 82.1992 77.4122C82.1733 77.433 82.1914 77.4822 82.2273 77.4699Z" fill="#D0C9BE"/>
<path d="M79.5839 62.3191C82.2724 58.4971 83.0983 53.3034 82.8737 48.7286C82.637 43.9354 81.5408 37.2436 77.4685 34.0986C77.1936 33.8892 76.887 34.1887 77.0349 34.4785C79.3085 38.911 80.9105 43.1157 81.3458 48.1435C81.7493 52.809 81.8199 58.0536 79.5298 62.2822C79.5118 62.3139 79.5633 62.3486 79.5839 62.3191Z" fill="#D0C9BE"/>
<path d="M77.77 47.1263C78.8565 43.9067 79.1539 40.5435 78.2709 37.2396C77.5188 34.4281 75.9295 30.7908 73.0954 29.5943C72.901 29.5119 72.6478 29.682 72.7346 29.9079C73.7111 32.4316 75.5832 34.4403 76.5441 37.0232C77.7401 40.2327 78.1889 43.7248 77.7067 47.1157C77.7012 47.1578 77.7574 47.1667 77.77 47.1263Z" fill="#D0C9BE"/>
<path d="M71.3863 37.2701C72.5263 33.5258 72.1998 29.6093 70.2683 26.1822C68.6758 23.3541 66.3745 19.8462 63.0122 19.031C62.7972 18.9782 62.6365 19.2811 62.8153 19.4226C67.978 23.4868 72.4214 30.5305 71.2613 37.2417C71.2456 37.3263 71.3631 37.3484 71.3863 37.2701Z" fill="#D0C9BE"/>
<path d="M65.0364 30.1481C65.3792 24.1878 62.105 17.088 56.18 15.0619C55.8344 14.9419 55.6117 15.4606 55.8707 15.6736C60.3818 19.3696 64.4904 24.0668 64.9717 30.1491C64.9757 30.195 65.0329 30.1877 65.0364 30.1481Z" fill="#D0C9BE"/>
<path d="M49.1155 16.182C53.2142 16.5907 57.1097 19.6171 60.2155 22.0702C65.5477 26.2767 70.1589 31.4084 74.1533 36.8852C78.846 43.3178 82.6131 50.5292 85.092 58.1007C87.8804 66.6204 88.238 75.2511 87.3944 84.0976C87.3537 84.5463 87.9741 84.6984 88.0901 84.2461C92.3234 67.5052 85.0737 49.4912 75.0178 36.3057C70.7628 30.7292 65.7579 25.6413 60.12 21.4546C57.0179 19.1491 53.1165 16.3982 49.1216 16.1191C49.082 16.1156 49.0805 16.1781 49.1155 16.182Z" fill="#D0C9BE"/>
<path d="M75.6037 46.3213C75.6037 46.3213 75.9334 46.8402 76.4926 47.7642C76.7729 48.2204 77.0911 48.7935 77.4603 49.4475C77.8387 50.1008 78.2347 50.8496 78.6513 51.6752C79.0879 52.4921 79.4984 53.4061 79.9499 54.3673C80.3702 55.3405 80.8407 56.3601 81.2477 57.4454C81.4543 57.9843 81.6667 58.5365 81.8795 59.0934C82.0743 59.6564 82.27 60.2286 82.4682 60.8029C82.6709 61.3768 82.8382 61.9677 83.0171 62.5598C83.191 63.1478 83.3837 63.7388 83.5334 64.3404C83.6852 64.9396 83.837 65.5388 83.9909 66.1354C84.1197 66.7366 84.2511 67.3398 84.377 67.9343C84.5168 68.5276 84.6173 69.122 84.7108 69.7147C84.8038 70.3028 84.9194 70.8843 84.9904 71.4582C85.1349 72.6081 85.2833 73.7229 85.3439 74.7853C85.3809 75.3136 85.4283 75.8295 85.4512 76.329C85.4624 76.8272 85.4746 77.3091 85.4851 77.7728C85.527 78.7005 85.4811 79.5503 85.4544 80.3015C85.4411 80.677 85.4303 81.0293 85.4192 81.3515C85.3922 81.6774 85.3681 81.9746 85.3465 82.2434C85.2555 83.3193 85.1895 83.9299 85.1895 83.9299C85.1895 83.9299 85.1703 83.3146 85.1589 82.2391C85.1551 81.9702 85.1536 81.6731 85.1499 81.3482C85.1343 81.0274 85.115 80.6755 85.0938 80.3006C85.0517 79.5555 85.02 78.7171 84.9284 77.803C84.8883 77.3443 84.8466 76.8672 84.8036 76.3764C84.7444 75.8847 84.684 75.3792 84.622 74.8554C84.5122 73.8112 84.3129 72.7216 84.1445 71.59C84.0581 71.0244 83.9274 70.4558 83.8214 69.878C83.7083 69.2986 83.5994 68.7142 83.4626 68.1276C83.3282 67.5431 83.1956 66.9515 83.0629 66.3599C82.9074 65.7703 82.7518 65.1807 82.5962 64.5912C82.454 63.9958 82.2713 63.4132 82.1024 62.8294C81.9288 62.246 81.7736 61.661 81.5759 61.0913C81.3919 60.5203 81.2104 59.9515 81.0297 59.3919C80.8331 58.8359 80.637 58.2846 80.4487 57.7441C80.265 57.2032 80.0576 56.6805 79.8621 56.1637C79.6642 55.6449 79.4813 55.1386 79.2861 54.6518C78.8755 53.6824 78.528 52.7491 78.1494 51.9087C77.78 51.0674 77.4554 50.2892 77.1396 49.6119C76.8305 48.9318 76.5678 48.3331 76.3247 47.8529C75.8607 46.8812 75.6037 46.3213 75.6037 46.3213Z" fill="#D0C9BE"/>
<path d="M55.7851 24.3569C55.7851 24.3569 55.888 24.371 56.0779 24.4029C56.27 24.4323 56.5501 24.4633 56.8944 24.595C57.0664 24.6585 57.2717 24.7076 57.469 24.7966C57.6713 24.8898 57.8857 24.9889 58.1167 25.0935C58.3544 25.1952 58.5798 25.3419 58.8295 25.4749C59.0775 25.615 59.3421 25.7605 59.5983 25.9415C59.8583 26.1129 60.1303 26.2902 60.4102 26.4783C60.6797 26.6789 60.9546 26.8883 61.2415 27.1035C61.8107 27.5344 62.3848 28.0203 62.9662 28.538C63.5347 29.066 64.1366 29.605 64.6944 30.1964C65.2761 30.7695 65.823 31.3942 66.3846 32.0014C66.9248 32.629 67.4542 33.2644 67.9627 33.8994C68.4629 34.5444 68.9593 35.1734 69.4011 35.8119C69.8492 36.4429 70.2816 37.0522 70.6602 37.6547C71.0408 38.2546 71.4154 38.8112 71.7145 39.3512C72.0295 39.8876 72.3084 40.3808 72.5525 40.8194C72.7944 41.2604 72.984 41.6575 73.1485 41.9783C73.466 42.623 73.6465 42.9955 73.6465 42.9955C73.6465 42.9955 73.4046 42.6607 72.9813 42.0761C72.7776 41.7819 72.5246 41.425 72.2371 41.018C71.9383 40.6143 71.605 40.1604 71.2516 39.6598C70.9002 39.1567 70.4784 38.6412 70.0634 38.072C69.653 37.5024 69.1781 36.9338 68.7157 36.3249C68.2622 35.7105 67.7255 35.1243 67.2358 34.4923C66.7263 33.8735 66.1915 33.2547 65.655 32.643C65.1122 32.0388 64.584 31.4171 64.0211 30.8469C63.4728 30.2594 62.9244 29.6972 62.383 29.1622C62.1184 28.8849 61.8295 28.6467 61.571 28.3874C61.3038 28.1334 61.0462 27.8832 60.7793 27.6593C60.5166 27.4304 60.2635 27.2052 60.0158 26.9889C59.7597 26.7825 59.5136 26.5845 59.275 26.3927C59.0426 26.1935 58.8022 26.0343 58.5797 25.8688C58.3509 25.7109 58.1485 25.5368 57.9346 25.4168C57.5166 25.1553 57.1538 24.9189 56.8317 24.7761C56.5208 24.6045 56.2493 24.5127 56.0661 24.4525C55.885 24.3898 55.7851 24.3569 55.7851 24.3569Z" fill="#D0C9BE"/>
<path d="M58.4075 23.7537C58.5704 19.1172 55.4883 13.3688 50.3738 13.0513C50.0858 13.0349 50.0824 13.4188 50.2709 13.5387C51.9285 14.6024 53.6331 15.4886 55.0348 16.9028C56.8375 18.7257 57.9983 21.2426 58.3429 23.7547C58.349 23.7981 58.4066 23.7953 58.4075 23.7537Z" fill="#D0C9BE"/>
<path d="M45.7042 74.3C40.9617 73.4884 37.073 70.378 33.519 67.3295C29.6491 64.0092 27.278 59.9561 24.7934 55.613C24.6502 55.3632 24.2351 55.5084 24.2598 55.788C24.7234 60.8175 28.9685 65.2559 32.5407 68.4447C36.0642 71.5903 40.9125 74.1144 45.6981 74.363C45.7354 74.3641 45.739 74.3042 45.7042 74.3Z" fill="#D0C9BE"/>
<path d="M39.1972 63.5099C35.0064 62.4918 31.835 59.7066 28.8318 56.7564C25.8976 53.871 24.4219 50.2402 21.9403 47.0736C21.7784 46.8664 21.4754 46.9692 21.4659 47.2286C21.32 51.1154 24.8283 54.8516 27.322 57.4617C30.4085 60.6925 34.6954 63.1208 39.183 63.5724C39.2226 63.5759 39.2361 63.5192 39.1972 63.5099Z" fill="#D0C9BE"/>
<path d="M34.2464 52.5179C27.0034 49.9251 21.9735 42.8407 21.012 35.2894C20.9793 35.0346 20.633 35.0016 20.5658 35.2538C19.508 39.118 21.9952 43.4581 24.044 46.5833C26.075 49.6841 30.727 51.8191 34.2037 52.6397C34.2749 52.6561 34.3151 52.5424 34.2464 52.5179Z" fill="#D0C9BE"/>
<path d="M32.1745 44.1989C26.9849 40.3441 23.6136 33.5271 22.8642 27.2173C22.8159 26.824 22.2554 26.7575 22.1615 27.1633C20.6192 33.7526 26.769 41.1941 32.136 44.2499C32.1676 44.2679 32.2028 44.2209 32.1745 44.1989Z" fill="#D0C9BE"/>
<path d="M40.1031 76.3109C40.1031 76.3109 40.3756 76.6092 40.8555 77.1314C41.0889 77.3952 41.3754 77.7173 41.7031 78.0866C42.0183 78.4607 42.3998 78.8671 42.8104 79.3047C43.222 79.7462 43.6675 80.2233 44.126 80.7355C44.5966 81.2384 45.1217 81.7423 45.6374 82.2876C45.8962 82.5566 46.1618 82.8327 46.43 83.1108C46.7105 83.3793 46.9934 83.6499 47.2764 83.9205C47.849 84.4639 48.407 85.04 49.0032 85.5705C49.5981 86.1075 50.1929 86.6448 50.7751 87.1717C51.3574 87.7036 51.9683 88.1861 52.537 88.6734C53.1173 89.1519 53.6539 89.642 54.2096 90.0535C54.7548 90.4727 55.2626 90.8805 55.7322 91.258C56.1992 91.6435 56.6503 91.9621 57.0457 92.2557C57.437 92.5491 57.7809 92.8079 58.0626 93.0192C58.6218 93.4519 58.9435 93.7018 58.9435 93.7018C58.9435 93.7018 58.5843 93.5118 57.9599 93.1821C57.6489 93.0108 57.2706 92.8031 56.8402 92.5665C56.4097 92.3247 55.9162 92.0619 55.4157 91.7162C54.9059 91.3867 54.3514 91.0243 53.7768 90.6352C53.1867 90.2595 52.605 89.808 52.005 89.3428C51.7001 89.1085 51.3961 88.8731 51.0862 88.6346C50.7712 88.3971 50.4595 88.1556 50.1651 87.8835C49.563 87.3549 48.9541 86.8193 48.3429 86.2814C47.7463 85.7361 47.1883 85.145 46.6165 84.5854C46.3309 84.3028 46.0529 84.0211 45.784 83.7389C45.5238 83.4462 45.2663 83.1553 45.013 82.8696C44.5088 82.3004 44.0221 81.7509 43.5824 81.2111C43.1462 80.6622 42.7455 80.1369 42.3773 79.6537C42.1937 79.4116 42.0185 79.1797 41.8507 78.9593C41.6945 78.7301 41.548 78.5145 41.4084 78.3111C41.1368 77.9004 40.8977 77.5421 40.7029 77.2474C40.3223 76.6525 40.1031 76.3109 40.1031 76.3109Z" fill="#D0C9BE"/>
<path d="M27.7113 24.8037C27.7113 24.8037 27.616 24.983 27.4373 25.3176C27.2656 25.6539 26.9701 26.1327 26.7298 26.7939C26.6016 27.124 26.4453 27.4774 26.3022 27.8759C26.1853 28.2836 26.0571 28.7201 25.9204 29.192C25.7646 29.6563 25.6945 30.1755 25.5843 30.712C25.4814 31.2501 25.3546 31.8114 25.3061 32.4112C25.249 33.0111 25.1485 33.6272 25.1159 34.2739C25.0914 34.9211 25.0656 35.5901 25.0407 36.2782C25.0251 36.9655 25.0813 37.6736 25.0972 38.3942C25.1201 38.7569 25.1115 39.1216 25.1491 39.4872C25.1885 39.8556 25.2271 40.225 25.2658 40.5992C25.3554 41.3434 25.3847 42.1089 25.5431 42.8674C25.6732 43.629 25.8042 44.3999 25.9371 45.1786C26.0879 45.9512 26.2916 46.7215 26.4697 47.5021L26.7436 48.6699C26.8483 49.0566 26.9746 49.438 27.0884 49.8242C27.3153 50.5922 27.5446 51.3623 27.7697 52.1274C28.0195 52.8883 28.3096 53.6316 28.5735 54.3758C28.7079 54.7475 28.843 55.1184 28.9766 55.486C29.1027 55.8574 29.2386 56.2222 29.3983 56.5789C29.6998 57.2935 29.9972 57.9978 30.2926 58.6941C30.8492 60.0975 31.5229 61.3917 32.1154 62.6459C32.4203 63.2651 32.6936 63.8816 33.0014 64.457C33.3108 65.0303 33.6102 65.5854 33.8987 66.1178C34.1829 66.6504 34.4588 67.1624 34.7196 67.6469C34.9778 68.1343 35.2131 68.6037 35.4749 69.0211C35.979 69.8691 36.4177 70.6074 36.7785 71.2158C37.4904 72.4392 37.8984 73.1382 37.8984 73.1382C37.8984 73.1382 37.4281 72.483 36.62 71.3187C36.218 70.734 35.7293 70.0247 35.1668 69.211C34.602 68.4 34.05 67.4318 33.413 66.3928C33.0983 65.8712 32.771 65.3292 32.4311 64.7669C32.0937 64.2015 31.8004 63.5886 31.4691 62.9753C30.8289 61.7325 30.0968 60.4522 29.5088 59.0408C29.1966 58.344 28.8805 57.6367 28.5599 56.9197C28.2229 56.2119 27.9837 55.4485 27.6928 54.7011C27.4198 53.9475 27.1205 53.1949 26.8632 52.4277C26.6272 51.6503 26.3903 50.8689 26.1528 50.0882C26.0397 49.6961 25.9185 49.3088 25.8118 48.9141L25.5403 47.7232C25.3652 46.9289 25.1657 46.1435 25.0162 45.3542C24.7627 43.7669 24.4989 42.2071 24.4143 40.6719C24.3847 40.2917 24.3535 39.9136 24.3239 39.5386C24.2895 39.1642 24.3104 38.7898 24.3023 38.4196C24.3094 37.6817 24.277 36.9605 24.3175 36.2588C24.3704 35.5576 24.4233 34.8765 24.4714 34.2164C24.5378 33.5598 24.6696 32.9317 24.7605 32.327C24.838 31.7179 24.9883 31.1487 25.1315 30.6084C25.2809 30.0707 25.3856 29.5507 25.5764 29.0903C25.7456 28.6202 25.9063 28.1856 26.0536 27.7821C26.2246 27.3858 26.411 27.0321 26.563 26.7091C26.8453 26.0535 27.1953 25.6161 27.3932 25.2891C27.599 24.973 27.7113 24.8037 27.7113 24.8037Z" fill="#D0C9BE"/>
<path d="M34.1784 56.7636C34.1784 56.7636 34.4081 57.275 34.7896 58.1779C34.975 58.6306 35.2091 59.1772 35.4899 59.7949C35.7725 60.4155 36.0746 61.1191 36.4301 61.8756C36.7807 62.633 37.1575 63.4554 37.5806 64.3137C37.9891 65.1793 38.4555 66.0721 38.9314 66.9993C39.3965 67.9341 39.9466 68.859 40.4616 69.8206C41.0184 70.7627 41.5573 71.7312 42.1685 72.6542C42.742 73.6068 43.3792 74.5088 43.9953 75.4108C44.3183 75.8463 44.6416 76.2817 44.9589 76.709C45.1182 76.9243 45.2761 77.1363 45.4347 77.3475C45.6007 77.5498 45.7674 77.7512 45.9318 77.9504C46.2652 78.3483 46.579 78.7494 46.9117 79.1228C47.2473 79.4928 47.5748 79.8522 47.8956 80.2043C48.2041 80.566 48.5574 80.8642 48.8722 81.1831C49.1942 81.4882 49.4883 81.8115 49.8076 82.0743C50.1226 82.3421 50.4286 82.6005 50.7171 82.8442C50.8594 82.9684 50.9999 83.0897 51.1354 83.2068C51.28 83.3132 51.4203 83.4144 51.5573 83.5145C51.8324 83.7134 52.0882 83.9 52.3231 84.0708C52.5591 84.2505 52.7801 84.4024 52.994 84.5172C53.8294 85.0159 54.3076 85.3173 54.3076 85.3173C54.3076 85.3173 53.7956 85.0968 52.9013 84.6834C52.6726 84.5863 52.4346 84.4546 52.1823 84.2994C51.926 84.1489 51.6497 83.9868 51.3535 83.8131C51.2058 83.7257 51.0523 83.6351 50.8954 83.5435C50.7459 83.438 50.5916 83.3281 50.4363 83.2194C50.1223 82.9908 49.7942 82.7538 49.4511 82.5041C49.1057 82.2573 48.7868 81.9535 48.4328 81.6611C48.0901 81.3604 47.7161 81.0666 47.3813 80.7159C47.0358 80.3729 46.6812 80.0205 46.3191 79.6618C45.9579 79.3022 45.6324 78.8948 45.2784 78.5012C45.1041 78.3036 44.9283 78.1029 44.7499 77.9001C44.5822 77.6897 44.4153 77.4783 44.2451 77.2657C43.9081 76.8367 43.5594 76.4064 43.2336 75.9588C42.5995 75.048 41.9373 74.1353 41.3471 73.1721C40.7375 72.2271 40.1983 71.2386 39.6437 70.2786C39.3748 69.7937 39.1297 69.3007 38.8821 68.8209C38.6321 68.3387 38.3878 67.8599 38.1684 67.3818C37.9439 66.9048 37.7254 66.4358 37.5103 65.9778C37.3033 65.5154 37.1154 65.0556 36.9251 64.6137C36.5356 63.7305 36.2156 62.8759 35.9169 62.0871C35.6056 61.3083 35.3742 60.5709 35.1532 59.9226C34.9307 59.276 34.7519 58.709 34.6134 58.2409C34.3292 57.3032 34.1784 56.7636 34.1784 56.7636Z" fill="#D0C9BE"/>
<path d="M30.2979 27.784C30.2979 27.784 30.2787 27.8019 30.2473 27.8393C30.2184 27.8788 30.1553 27.9236 30.107 28.0064C30.0123 28.1649 29.8997 28.4105 29.821 28.7525C29.6395 29.4247 29.5586 30.4279 29.5366 31.6293C29.5266 32.2287 29.5377 32.8841 29.5587 33.5733C29.5772 34.2604 29.6329 34.9892 29.6754 35.7389C29.792 37.2411 29.9456 38.8411 30.1651 40.4334C30.27 41.2303 30.384 42.0264 30.516 42.8062C30.6528 43.5853 30.7682 44.3545 30.9214 45.0938C31.2069 46.572 31.5212 47.945 31.8249 49.1128C31.9824 49.6951 32.1231 50.2314 32.2683 50.7017C32.4076 51.1739 32.5379 51.5809 32.6489 51.9197C32.8757 52.5915 33.0078 52.9761 33.0078 52.9761C33.0078 52.9761 32.9583 52.8882 32.8644 52.7215C32.7764 52.5528 32.6242 52.3138 32.4688 51.9925C32.1449 51.3603 31.7177 50.431 31.293 49.2807C31.0784 48.7058 30.8652 48.0784 30.6647 47.4057C30.4627 46.7346 30.2579 46.0213 30.0849 45.2752C29.9069 44.53 29.7297 43.7585 29.5911 42.9664C29.4466 42.1762 29.3192 41.3706 29.2036 40.5612C29.1061 39.7504 29.0136 38.9388 28.9498 38.1385C28.8748 37.3364 28.8533 36.5465 28.8238 35.7813C28.7879 34.2488 28.8359 32.8138 28.981 31.5924C29.1214 30.3714 29.3471 29.3579 29.6353 28.6902C29.7653 28.3529 29.9433 28.1155 30.0713 27.9679C30.132 27.8956 30.203 27.8617 30.2394 27.8284C30.2762 27.7998 30.2979 27.784 30.2979 27.784Z" fill="#D0C9BE"/>
<path d="M28.4675 33.8499C26.8109 32.1317 25.913 30.1372 25.2887 27.8622C24.6792 25.6507 25.2046 23.4138 25.4126 21.1954C25.4325 20.9741 25.1316 20.7301 24.9677 20.9709C22.0631 25.2024 24.6712 31.1511 28.4267 33.8986C28.4606 33.924 28.4975 33.8801 28.4675 33.8499Z" fill="#D0C9BE"/>
</svg>
