<svg width="49" height="46" viewBox="0 0 49 46" fill="none" xmlns="http://www.w3.org/2000/svg">
<path d="M30.6199 8.87594C26.0857 8.87594 21.8117 8.52688 18.5856 7.89475C13.3594 6.86993 12.7549 5.43098 12.7549 4.43805C12.7549 2.36444 16.0826 1.4721 18.5856 0.98119C21.8117 0.348429 26.0857 0 30.6199 0C35.1541 0 39.4281 0.349064 42.6543 0.98119C47.8806 2.00617 48.4851 3.44496 48.4851 4.43805C48.4851 6.5115 45.1574 7.404 42.6543 7.89475C39.4283 8.52688 35.1543 8.87594 30.6199 8.87594ZM15.3035 4.43805C15.7705 4.7292 16.9602 5.26676 19.8157 5.75736C22.7961 6.26953 26.6334 6.55148 30.6208 6.55148C34.6083 6.55148 38.4452 6.26953 41.426 5.75736C44.282 5.26676 45.472 4.7292 45.9383 4.43805C45.4714 4.14674 44.2817 3.60918 41.426 3.11874C38.4455 2.60657 34.6083 2.32446 30.6208 2.32446C26.6334 2.32446 22.7965 2.60657 19.8157 3.11874C16.9595 3.60918 15.7699 4.14674 15.3035 4.43805Z" fill="#D69E3D"/>
<path d="M30.6212 45.9997C26.2971 45.9997 21.9869 45.4361 18.4847 44.413C14.6835 43.3024 12.7568 41.9521 12.7568 40.4002C12.7567 40.1023 12.8709 39.8157 13.076 39.5996C13.281 39.3834 13.5612 39.2543 13.8588 39.2389C14.1563 39.2234 14.4484 39.3228 14.6747 39.5165C14.9011 39.7102 15.0444 39.9834 15.0751 40.2798C15.2909 40.5812 16.4891 41.4812 19.754 42.3543C22.9403 43.2065 26.7999 43.6759 30.6218 43.6759C34.4438 43.6759 38.3035 43.2065 41.4905 42.3543C44.7552 41.4817 45.9536 40.5812 46.1692 40.2798C46.2003 39.9837 46.3438 39.7108 46.5701 39.5174C46.7964 39.324 47.0883 39.2248 47.3856 39.2402C47.6829 39.2557 47.9629 39.3846 48.168 39.6004C48.373 39.8162 48.4874 40.1025 48.4877 40.4002C48.4877 41.9521 46.5603 43.3024 42.7598 44.413C39.2557 45.4361 34.9453 45.9997 30.6212 45.9997Z" fill="#D69E3D"/>
<path d="M47.1808 41.7884C46.8725 41.7884 46.5769 41.666 46.359 41.448C46.141 41.2301 46.0186 40.9345 46.0186 40.6262V5.1886C46.0186 4.88036 46.141 4.58474 46.359 4.36678C46.5769 4.14882 46.8725 4.02637 47.1808 4.02637C47.489 4.02637 47.7846 4.14882 48.0026 4.36678C48.2206 4.58474 48.343 4.88036 48.343 5.1886V40.6262C48.343 40.9345 48.2206 41.2301 48.0026 41.448C47.7846 41.666 47.489 41.7884 47.1808 41.7884Z" fill="#D69E3D"/>
<path d="M13.9513 41.7884C13.6431 41.7884 13.3474 41.666 13.1295 41.448C12.9115 41.2301 12.7891 40.9345 12.7891 40.6262V5.1886C12.7891 4.88036 12.9115 4.58474 13.1295 4.36678C13.3474 4.14882 13.6431 4.02637 13.9513 4.02637C14.2595 4.02637 14.5552 4.14882 14.7731 4.36678C14.9911 4.58474 15.1135 4.88036 15.1135 5.1886V40.6262C15.1135 40.9345 14.9911 41.2301 14.7731 41.448C14.5552 41.666 14.2595 41.7884 13.9513 41.7884Z" fill="#D69E3D"/>
<path d="M12.9924 36.9705C5.82829 36.9705 0 30.7519 0 23.1081C0 15.4644 5.82829 9.24561 12.9924 9.24561C13.145 9.24561 13.2961 9.27567 13.4372 9.33408C13.5782 9.39248 13.7063 9.47809 13.8142 9.58602C13.9221 9.69394 14.0077 9.82206 14.0661 9.96307C14.1246 10.1041 14.1546 10.2552 14.1546 10.4078C14.1546 10.5605 14.1246 10.7116 14.0661 10.8526C14.0077 10.9936 13.9221 11.1217 13.8142 11.2297C13.7063 11.3376 13.5782 11.4232 13.4372 11.4816C13.2961 11.54 13.145 11.5701 12.9924 11.5701C7.11015 11.5701 2.32446 16.7459 2.32446 23.1081C2.32446 29.4703 7.11015 34.646 12.9924 34.646C13.3006 34.646 13.5962 34.7684 13.8142 34.9864C14.0322 35.2044 14.1546 35.5 14.1546 35.8082C14.1546 36.1165 14.0322 36.4121 13.8142 36.63C13.5962 36.848 13.3006 36.9705 12.9924 36.9705Z" fill="#D69E3D"/>
<path d="M12.9928 30.7072C8.85053 30.7072 5.48047 27.2981 5.48047 23.1071C5.48047 18.9161 8.85053 15.5078 12.9928 15.5078C13.1454 15.5078 13.2966 15.5379 13.4376 15.5963C13.5786 15.6547 13.7067 15.7403 13.8146 15.8482C13.9226 15.9561 14.0082 16.0843 14.0666 16.2253C14.125 16.3663 14.1551 16.5174 14.1551 16.67C14.1551 16.8227 14.125 16.9738 14.0666 17.1148C14.0082 17.2558 13.9226 17.3839 13.8146 17.4919C13.7067 17.5998 13.5786 17.6854 13.4376 17.7438C13.2966 17.8022 13.1454 17.8323 12.9928 17.8323C10.1324 17.8323 7.80445 20.1985 7.80445 23.1071C7.80445 26.0158 10.1318 28.3818 12.9928 28.3818C13.2987 28.3854 13.5909 28.5094 13.806 28.727C14.021 28.9446 14.1416 29.2382 14.1416 29.5441C14.1416 29.8501 14.021 30.1437 13.806 30.3613C13.5909 30.5788 13.2987 30.7029 12.9928 30.7064V30.7072Z" fill="#D69E3D"/>
</svg>
