<svg width="52" height="44" viewBox="0 0 52 44" fill="none" xmlns="http://www.w3.org/2000/svg">
<path d="M25.8242 43.3524C19.1404 43.3524 12.8453 42.7714 8.09835 41.7152C2.64906 40.5033 0 38.8826 0 36.7607C0 35.1073 1.60293 33.7707 4.90068 32.6732C7.62779 31.7655 11.4171 31.0585 15.8584 30.6286C16.1464 30.6007 16.4338 30.6884 16.6572 30.8723C16.8806 31.0562 17.0218 31.3214 17.0497 31.6094C17.0776 31.8975 16.9899 32.1848 16.806 32.4082C16.6221 32.6316 16.3569 32.7728 16.0689 32.8007C11.7877 33.2151 8.16418 33.887 5.58975 34.7438C2.79443 35.6741 2.18237 36.5151 2.18237 36.7607C2.18237 37.1248 3.3563 38.425 8.57262 39.5851C13.1687 40.6072 19.2956 41.1701 25.8248 41.1701C32.354 41.1701 38.4808 40.6072 43.0768 39.5851C48.2929 38.425 49.4671 37.1248 49.4671 36.7607C49.4671 36.5141 48.8625 35.6719 46.1007 34.7474C43.5487 33.8932 39.9408 33.2229 35.667 32.8092C35.3789 32.7813 35.1138 32.6401 34.9298 32.4167C34.7459 32.1933 34.6582 31.906 34.6861 31.618C34.714 31.33 34.8552 31.0648 35.0786 30.8808C35.3019 30.6969 35.5893 30.6092 35.8773 30.6371C41.7675 31.2072 51.6489 32.7609 51.6489 36.7607C51.6489 38.8826 48.9998 40.5033 43.5505 41.7152C38.8031 42.771 32.5079 43.3524 25.8242 43.3524Z" fill="#D69E3D"/>
<path d="M25.8234 38.8828C20.9039 38.8828 16.1993 38.027 12.5762 36.4734C12.4445 36.4169 12.3252 36.3351 12.2252 36.2325C12.1251 36.1299 12.0462 36.0087 11.993 35.8756C11.9398 35.7426 11.9134 35.6003 11.9151 35.4571C11.9169 35.3138 11.9468 35.1723 12.0033 35.0406C12.0598 34.9089 12.1416 34.7896 12.2442 34.6895C12.3468 34.5895 12.468 34.5106 12.6011 34.4574C12.7341 34.4042 12.8763 34.3777 13.0196 34.3795C13.1629 34.3812 13.3044 34.4112 13.4361 34.4677C16.7939 35.9075 21.1931 36.7004 25.8234 36.7004C30.4537 36.7004 34.8528 35.9075 38.2103 34.4677C38.342 34.4112 38.4836 34.3812 38.6268 34.3795C38.7701 34.3777 38.9123 34.4042 39.0454 34.4574C39.1784 34.5106 39.2997 34.5895 39.4023 34.6895C39.5048 34.7896 39.5867 34.9089 39.6431 35.0406C39.6996 35.1723 39.7296 35.3138 39.7314 35.4571C39.7331 35.6003 39.7067 35.7426 39.6535 35.8756C39.6003 36.0087 39.5214 36.1299 39.4213 36.2325C39.3212 36.3351 39.202 36.4169 39.0703 36.4734C35.4473 38.027 30.7428 38.8828 25.8234 38.8828Z" fill="#D69E3D"/>
<path d="M26.0583 8.02296C22.0125 8.02296 18.1983 7.71209 15.3185 7.14725C11.6929 6.43628 10.0752 5.46909 10.0752 4.01155C10.0752 2.55401 11.6921 1.58683 15.3185 0.875712C18.1981 0.310868 22.0123 0 26.0583 0C30.1042 0 33.9183 0.310868 36.7981 0.875712C40.4237 1.58683 42.0413 2.55386 42.0413 4.01155C42.0413 5.46924 40.4244 6.43628 36.7981 7.14725C33.9181 7.71149 30.1041 8.02296 26.0583 8.02296ZM12.4828 4.01155C13.7111 4.73816 18.3276 5.84075 26.0583 5.84075C33.789 5.84075 38.4053 4.73846 39.6336 4.01155C38.4054 3.28479 33.7888 2.18221 26.0583 2.18221C18.3277 2.18221 13.7111 3.28479 12.4828 4.01155Z" fill="#D69E3D"/>
<path d="M26.0696 39.0038C23.6503 39.0157 21.2469 38.6119 18.9644 37.8099C16.6384 36.9608 15.459 35.9768 15.459 34.8836C15.459 34.614 15.5589 34.3539 15.7394 34.1535C15.9198 33.9531 16.1681 33.8266 16.4363 33.7985C16.7045 33.7703 16.9736 33.8424 17.1917 34.0009C17.4099 34.1595 17.5616 34.3931 17.6177 34.6569C18.2089 35.3314 21.6605 36.8216 26.0698 36.8216C30.479 36.8216 33.9307 35.332 34.5219 34.6569C34.5779 34.3931 34.7297 34.1595 34.9478 34.0009C35.166 33.8424 35.4351 33.7703 35.7033 33.7985C35.9715 33.8266 36.2197 33.9531 36.4002 34.1535C36.5807 34.3539 36.6805 34.614 36.6806 34.8836C36.6806 35.9768 35.5011 36.9613 33.1752 37.8099C30.8925 38.6119 28.489 39.0158 26.0696 39.0038Z" fill="#D69E3D"/>
<path d="M16.5497 35.9748C16.2664 35.9747 15.9942 35.8643 15.7908 35.6671C15.5874 35.4699 15.4687 35.2013 15.4598 34.9181C15.4568 34.8277 15.1586 25.7829 13.8391 18.0872C12.7056 11.4769 10.6514 5.65719 10.3364 4.88693C10.2562 4.72842 10.2159 4.55274 10.2189 4.37512C10.2219 4.1975 10.2682 4.0233 10.3538 3.86762C10.4394 3.71194 10.5616 3.57947 10.7099 3.48169C10.8582 3.38392 11.0281 3.32378 11.2049 3.3065C12.0416 3.22488 12.3238 3.96907 12.4431 4.28664C12.5018 4.4432 12.6008 4.71281 12.7386 5.10873C12.9553 5.73152 13.2972 6.75113 13.6949 8.07298C14.6513 11.2399 15.4176 14.461 15.9899 17.7193C17.3354 25.5668 17.638 34.7581 17.6408 34.85C17.6453 34.9933 17.6216 35.136 17.571 35.27C17.5203 35.404 17.4438 35.5268 17.3457 35.6313C17.2477 35.7357 17.13 35.8198 16.9994 35.8788C16.8688 35.9378 16.7279 35.9705 16.5847 35.975C16.5729 35.9745 16.5616 35.9748 16.5497 35.9748ZM11.0892 5.46251C11.1468 5.47449 11.2052 5.48161 11.264 5.48381C11.2052 5.48142 11.1468 5.4743 11.0892 5.46251ZM10.3808 4.96619C10.4143 5.02109 10.4529 5.07275 10.4961 5.1205C10.4532 5.0725 10.4146 5.02082 10.3808 4.96603V4.96619Z" fill="#D69E3D"/>
<path d="M35.6182 35.9748C35.6064 35.9748 35.5948 35.9748 35.583 35.9748C35.4398 35.9703 35.2989 35.9376 35.1683 35.8787C35.0377 35.8197 34.92 35.7356 34.822 35.6311C34.7239 35.5267 34.6474 35.4039 34.5967 35.2699C34.5461 35.1358 34.5224 34.9931 34.5269 34.8499C34.5299 34.758 34.8323 25.5666 36.1779 17.7191C36.7501 14.4609 37.5165 11.2398 38.4731 8.07298C38.8706 6.75158 39.2125 5.73197 39.4294 5.10873C39.567 4.71281 39.6661 4.4432 39.7249 4.28664C39.8441 3.96922 40.1249 3.22577 40.962 3.30636C41.1389 3.32349 41.309 3.38352 41.4574 3.48125C41.6059 3.57898 41.7282 3.71146 41.8139 3.86718C41.8995 4.02291 41.9459 4.19717 41.949 4.37488C41.952 4.55258 41.9117 4.72835 41.8315 4.88693C41.5158 5.65615 39.4631 11.4743 38.3289 18.0872C37.0091 25.7829 36.7111 34.8277 36.7081 34.9181C36.6991 35.2013 36.5804 35.4699 36.377 35.667C36.1736 35.8643 35.9015 35.9746 35.6182 35.9748ZM41.066 5.46489C41.0155 5.47464 40.9643 5.48077 40.913 5.48321C40.9644 5.48087 41.0155 5.47475 41.066 5.46489ZM41.788 4.96454C41.7534 5.02079 41.7137 5.07379 41.6695 5.12288C41.7141 5.07406 41.7537 5.02103 41.788 4.96454Z" fill="#D69E3D"/>
<path d="M15.946 29.1442C15.778 29.1445 15.6123 29.1059 15.4617 29.0315C15.3111 28.9571 15.1798 28.8489 15.078 28.7154C13.8494 27.1066 12.0729 25.9647 10.3549 24.8602C7.59037 23.083 4.73189 21.2453 4.73145 17.5655C4.73145 15.8319 5.31132 14.3811 6.40868 13.3698C7.41772 12.4401 8.78022 11.9485 10.3483 11.9485C11.2673 11.9363 12.1755 12.1481 12.9942 12.5658C13.813 12.9834 14.5177 13.5942 15.0473 14.3454C15.1293 14.4635 15.1872 14.5967 15.2176 14.7373C15.2479 14.8779 15.2502 15.0232 15.2242 15.1646C15.1983 15.3061 15.1446 15.4411 15.0663 15.5617C14.9879 15.6824 14.8865 15.7864 14.7679 15.8677C14.6492 15.949 14.5157 16.006 14.3749 16.0356C14.2341 16.0651 14.0889 16.0664 13.9475 16.0396C13.8062 16.0128 13.6716 15.9583 13.5514 15.8792C13.4313 15.8002 13.3279 15.6982 13.2473 15.579C12.9179 15.1205 12.4818 14.7491 11.9767 14.4967C11.4717 14.2444 10.9128 14.1188 10.3483 14.1307C9.33762 14.1307 8.48635 14.4225 7.88754 14.9747C7.24122 15.5705 6.9135 16.4418 6.91365 17.5654C6.91365 19.9338 8.67 21.1826 11.535 23.0245C13.324 24.1746 15.3515 25.4781 16.8123 27.3907C16.9357 27.5523 17.0115 27.7453 17.0311 27.9477C17.0508 28.1501 17.0134 28.354 16.9233 28.5363C16.8332 28.7187 16.694 28.8722 16.5213 28.9796C16.3486 29.087 16.1493 29.144 15.946 29.1442Z" fill="#D69E3D"/>
<path d="M26.0583 21.3455C22.9898 21.3455 20.091 21.0231 17.8972 20.4382C15.1939 19.7174 13.8232 18.6556 13.8232 17.2827C13.8232 15.9097 15.1936 14.8478 17.8972 14.127C20.091 13.5419 22.9895 13.2197 26.0583 13.2197C29.1271 13.2197 32.0252 13.5419 34.2192 14.127C36.9224 14.8478 38.2931 15.9096 38.2931 17.2827C38.2931 18.6558 36.9227 19.7174 34.2192 20.4382C32.0255 21.0231 29.1269 21.3455 26.0583 21.3455ZM16.0676 17.2827C16.273 17.4839 16.9548 17.9843 18.9496 18.4521C20.9038 18.9106 23.4283 19.1631 26.0583 19.1631C28.6882 19.1631 31.2122 18.9099 33.1668 18.4521C35.1618 17.9841 35.8434 17.4839 36.0488 17.2827C35.8434 17.0814 35.1618 16.5811 33.1669 16.1131C31.2126 15.6546 28.6881 15.4021 26.0583 15.4021C23.4284 15.4021 20.9044 15.6544 18.9496 16.1131C16.9548 16.5811 16.273 17.0811 16.0676 17.2827Z" fill="#D69E3D"/>
</svg>
