<svg width="59" height="38" viewBox="0 0 59 38" fill="none" xmlns="http://www.w3.org/2000/svg">
<g clip-path="url(#clip0_33_671)">
<path d="M31.7026 37.6513C24.7753 37.6513 18.2501 37.0487 13.3292 35.9541C7.65116 34.6914 4.8916 32.9923 4.8916 30.7601C4.8916 26.5664 15.2182 24.9408 21.3749 24.345C21.6891 24.3165 22.0018 24.4135 22.2447 24.6148C22.4876 24.816 22.641 25.1053 22.6714 25.4193C22.7018 25.7333 22.6067 26.0465 22.4069 26.2906C22.2071 26.5348 21.9188 26.6899 21.605 26.7222C17.1756 27.1508 13.4274 27.8458 10.7653 28.7316C7.92048 29.6786 7.28003 30.5348 7.28003 30.7601C7.28003 31.056 8.39543 32.41 13.8482 33.6227C18.604 34.6806 24.945 35.2629 31.7031 35.2629C38.4613 35.2629 44.8019 34.6806 49.5579 33.6227C55.0114 32.41 56.1263 31.056 56.1263 30.7601C56.1263 30.5348 55.4858 29.6786 52.6409 28.7318C49.9792 27.8458 46.2311 27.1508 41.8018 26.7222C41.488 26.6899 41.1997 26.5348 40.9999 26.2906C40.8001 26.0465 40.705 25.7333 40.7354 25.4193C40.7658 25.1053 40.9192 24.816 41.1621 24.6148C41.405 24.4135 41.7177 24.3165 42.0319 24.345C48.1877 24.9408 58.5145 26.5664 58.5145 30.7601C58.5145 32.9923 55.7544 34.6914 50.0769 35.9541C45.1547 37.0487 38.6297 37.6513 31.7026 37.6513Z" fill="#D69E3D"/>
<path d="M31.046 33.1002C28.0852 33.1196 25.1255 32.9789 22.1799 32.6787C19.0569 32.3218 17.3634 31.8594 17.3584 30.4418C17.3574 30.1251 17.4822 29.8209 17.7055 29.5963C17.9287 29.3716 18.232 29.2448 18.5487 29.2438H18.5526C18.7475 29.2436 18.9395 29.2913 19.1118 29.3825C19.284 29.4737 19.4313 29.6058 19.5407 29.7671C20.4855 30.1392 24.5507 30.7305 31.3882 30.7114C38.2257 30.6924 42.2871 30.0713 43.2296 29.6935C43.3384 29.531 43.4854 29.3977 43.6578 29.3054C43.8302 29.2131 44.0226 29.1645 44.2182 29.1641H44.2216C44.5377 29.1641 44.841 29.2894 45.0648 29.5126C45.2887 29.7359 45.4149 30.0387 45.4158 30.3549C45.4201 31.7723 43.7296 32.2449 40.6087 32.6217C37.5488 32.9511 34.473 33.1107 31.3954 33.0999C31.2789 33.1001 31.1625 33.1002 31.046 33.1002Z" fill="#D69E3D"/>
<path d="M31.3919 32.4267C29.497 32.4464 27.6043 32.2915 25.7379 31.9638C24.789 31.7777 22.5674 31.342 22.5674 29.781C22.5675 29.52 22.6572 29.267 22.8215 29.0643C22.9859 28.8616 23.2149 28.7215 23.4702 28.6675C23.7255 28.6135 23.9916 28.6488 24.224 28.7676C24.4563 28.8863 24.6408 29.0813 24.7466 29.3199C25.3696 29.6423 27.697 30.1501 31.3919 30.1501C35.0869 30.1501 37.4143 29.6423 38.0373 29.3199C38.1431 29.0813 38.3276 28.8863 38.56 28.7676C38.7923 28.6488 39.0584 28.6135 39.3137 28.6675C39.569 28.7215 39.798 28.8616 39.9624 29.0643C40.1267 29.267 40.2164 29.52 40.2165 29.781C40.2165 31.342 37.9949 31.7779 37.046 31.9638C35.1796 32.2915 33.2869 32.4465 31.3919 32.4267Z" fill="#D69E3D"/>
<path d="M31.3905 9.75648C25.823 9.75648 20.5809 9.46647 16.6302 8.93952C10.7879 8.16071 9.59082 7.14658 9.59082 5.86314C9.59082 4.57969 10.7879 3.56609 16.6302 2.78674C20.5809 2.25998 25.8234 1.96997 31.3905 1.96997C36.9577 1.96997 42.2002 2.25998 46.1508 2.78674C51.9932 3.56573 53.1903 4.57969 53.1903 5.86314C53.1903 7.14658 51.9932 8.16035 46.1508 8.93952C42.2 9.46647 36.9583 9.75648 31.3905 9.75648ZM12.7321 5.86349C13.597 6.13209 15.1609 6.48507 17.939 6.80872C21.6575 7.24049 26.4345 7.47995 31.3905 7.47995C36.3466 7.47995 41.1235 7.24139 44.8421 6.80872C47.6213 6.48489 49.1841 6.13209 50.0488 5.86349C49.1841 5.59489 47.6213 5.24209 44.8421 4.91844C41.1236 4.48559 36.3464 4.24721 31.3905 4.24721C26.4347 4.24721 21.6576 4.48559 17.939 4.91844C15.16 5.24191 13.597 5.59489 12.7321 5.86349Z" fill="#D69E3D"/>
<path d="M24.5148 30.0036C24.2129 30.0036 23.9234 29.8837 23.7099 29.6703C23.4964 29.4568 23.3764 29.1673 23.3764 28.8654C23.3764 27.7679 22.6101 27.0242 21.1414 25.6972C19.383 24.1087 16.9748 21.9331 15.4108 17.6884C14.9139 16.3403 14.607 14.8741 14.3102 13.4561C13.5726 9.93604 12.9863 7.77465 11.0539 7.44326C10.9052 7.41956 10.7626 7.36658 10.6345 7.28738C10.5064 7.20819 10.3952 7.10435 10.3075 6.9819C10.2199 6.85945 10.1573 6.72081 10.1236 6.57402C10.0899 6.42722 10.0856 6.2752 10.1111 6.12675C10.1366 5.97831 10.1912 5.83638 10.272 5.70922C10.3527 5.58205 10.4578 5.47217 10.5813 5.38594C10.7048 5.29971 10.8441 5.23883 10.9913 5.20686C11.1385 5.17488 11.2906 5.17243 11.4387 5.19965C15.0368 5.81637 15.8349 9.62731 16.5389 12.9896C16.8188 14.327 17.1084 15.7101 17.5463 16.9013C18.9165 20.6197 20.996 22.4985 22.6668 24.0075C24.2021 25.3946 25.6532 26.7049 25.6532 28.865C25.6533 29.0145 25.6239 29.1626 25.5667 29.3008C25.5095 29.4389 25.4256 29.5644 25.3199 29.6702C25.2142 29.7759 25.0887 29.8598 24.9505 29.917C24.8124 29.9742 24.6643 30.0037 24.5148 30.0036Z" fill="#D69E3D"/>
<path d="M38.2662 30.0036C37.9643 30.0036 37.6748 29.8837 37.4613 29.6702C37.2479 29.4567 37.1279 29.1672 37.1279 28.8653C37.1279 26.7054 38.5781 25.3951 40.1144 24.0079C41.7851 22.4983 43.8645 20.6195 45.2348 16.9016C45.6736 15.7104 45.9631 14.3273 46.2432 12.9899C46.9472 9.62762 47.7453 5.81668 51.3434 5.19996C51.4907 5.1747 51.6415 5.17871 51.7873 5.21175C51.9331 5.2448 52.0709 5.30623 52.1929 5.39254C52.315 5.47885 52.4188 5.58835 52.4985 5.71478C52.5782 5.84122 52.6322 5.98213 52.6575 6.12944C52.6828 6.27676 52.6788 6.42761 52.6457 6.57338C52.6127 6.71915 52.5512 6.85697 52.4649 6.979C52.3786 7.10103 52.2691 7.20486 52.1427 7.28457C52.0162 7.36428 51.8753 7.41831 51.728 7.44357C49.7955 7.77495 49.2093 9.93634 48.4717 13.4564C48.1747 14.8744 47.8678 16.3406 47.3711 17.6887C45.807 21.9334 43.3989 24.109 41.6405 25.6975C40.1718 27.0245 39.4054 27.7682 39.4054 28.8657C39.4053 29.0152 39.3758 29.1632 39.3185 29.3014C39.2613 29.4395 39.1773 29.565 39.0715 29.6706C38.9657 29.7763 38.8402 29.8601 38.702 29.9172C38.5638 29.9744 38.4157 30.0037 38.2662 30.0036Z" fill="#D69E3D"/>
<path d="M14.2461 21.3966C14.2042 21.3966 14.1625 21.3966 14.1202 21.394C13.6273 21.3863 13.1448 21.2511 12.7196 21.0017C12.2944 20.7523 11.9409 20.3971 11.6936 19.9706C11.5451 19.6921 11.5129 19.3661 11.6041 19.0639C11.6952 18.7617 11.9023 18.5079 12.1801 18.3579C12.4578 18.208 12.7837 18.1741 13.0863 18.2637C13.389 18.3532 13.6439 18.559 13.7953 18.836C13.8487 18.8929 13.9138 18.9377 13.9861 18.9673C14.0583 18.9969 14.1361 19.0106 14.2141 19.0076C14.371 19.0114 14.5258 18.9718 14.6617 18.8933C14.7975 18.8147 14.909 18.7002 14.9839 18.5623C15.2443 18.1595 15.0489 17.5327 14.9825 17.3503C14.7795 16.8239 12.6437 15.5996 9.16073 14.6717C2.24011 12.8277 0.745451 9.89105 0.223544 7.84282C-0.240433 6.02325 0.0283637 4.1749 0.961176 2.77181C1.63294 1.76092 2.98637 0.473329 5.61912 0.0804142C7.40936 -0.186926 9.11558 0.217321 10.4226 1.2185C11.669 2.17362 12.4309 3.56951 12.6257 5.25558C12.6607 5.56949 12.5698 5.88446 12.3731 6.13155C12.1764 6.37864 11.8898 6.53773 11.576 6.57401C11.2623 6.61029 10.9469 6.52081 10.699 6.32514C10.4511 6.12946 10.2907 5.84354 10.2531 5.52995C10.1344 4.50178 9.69057 3.66648 8.96986 3.11435C8.18169 2.51041 7.11682 2.27149 5.9719 2.44258C4.55442 2.65415 3.53796 3.2097 2.95057 4.09358C2.39124 4.93517 2.24102 6.08676 2.53823 7.25291C3.14019 9.61417 5.37245 11.1905 9.77619 12.3639C12.2314 13.018 16.4645 14.4301 17.2284 16.5362C17.4848 17.2431 17.7946 18.6145 16.9904 19.8587C16.6995 20.3254 16.2955 20.7111 15.8157 20.98C15.3359 21.2488 14.7961 21.3921 14.2461 21.3966Z" fill="#D69E3D"/>
</g>
<defs>
<clipPath id="clip0_33_671">
<rect width="58.5131" height="37.6514" fill="white"/>
</clipPath>
</defs>
</svg>
