<svg width="134" height="146" viewBox="0 0 134 146" fill="none" xmlns="http://www.w3.org/2000/svg">
<g opacity="0.8">
<path d="M109.532 33.3178C123.008 45.0052 119.466 64.5721 110.972 77.9902C107.074 84.1467 102.658 89.9688 97.9115 95.4911C82.9746 112.879 61.3429 129.613 37.1505 121.762C36.6145 121.587 36.403 122.376 36.9025 122.58C61.1491 132.552 84.7109 113.907 99.7049 96.4021C113.509 80.2861 132.385 51.4892 110.525 33.8313C110.239 33.6017 109.945 33.387 109.639 33.1852C109.561 33.1303 109.461 33.2518 109.532 33.3178" fill="#D0C9BE"/>
<path d="M19.2396 111.989C22.1132 107.531 28.3976 107.237 32.308 103.96C34.6921 101.962 35.285 98.3321 33.3491 95.9401C33.1799 96.3203 33.0095 96.6998 32.8392 97.0793C36.4451 97.3195 39.1469 99.6409 42.368 100.898C42.9084 101.111 43.283 100.371 42.9272 99.9868C40.3735 97.2233 36.4728 96.7929 33.058 95.7572C32.4787 95.582 32.0141 96.2048 32.2695 96.7255C34.958 102.165 28.4793 104.776 24.6384 106.451C22.1146 107.552 20.103 109.342 19.0854 111.92C19.0474 112.013 19.1902 112.065 19.2396 111.989" fill="#D0C9BE"/>
<path d="M40.6292 98.9533C40.5967 96.2517 40.6114 93.1543 43.0838 91.3912C43.9934 90.7417 45.3992 90.543 46.4396 90.0884C47.9333 89.4377 49.2423 88.6653 50.5649 87.7117C54.7847 84.6728 58.2569 80.0028 61.5945 76.0564C63.2163 74.1407 64.7738 72.1679 66.3107 70.1783C66.9598 69.3386 67.7144 67.7385 68.9213 67.5792C70.0485 67.4286 71.206 67.0964 72.2638 66.6867C76.1629 65.175 79.7035 62.8789 81.4179 58.961C81.5995 58.5431 81.0056 58.2699 80.712 58.5285C78.6581 60.3789 76.6852 62.296 74.2884 63.7145C73.1332 64.3964 71.8534 64.8371 70.5764 65.2298C69.5694 65.5343 68.0714 65.4011 67.1745 65.8838C65.4391 66.8181 63.6751 70.2544 62.459 71.7374C60.4097 74.2325 58.2652 76.6478 56.0623 79.0045C54.1347 81.0673 52.1506 83.0824 50.0539 84.9629C48.6275 86.2447 47.1315 87.3272 45.4236 88.2076C44.305 88.7813 42.9679 89.0496 41.9712 89.8629C38.9152 92.3542 39.3001 95.5032 40.2907 98.9869C40.3429 99.1663 40.6318 99.1539 40.6292 98.9533" fill="#D0C9BE"/>
<path d="M84.3681 59.6445C87.0178 56.6498 90.2051 54.0949 93.7778 52.2951C96.6077 50.8679 99.5985 50.3 101.222 47.35C102.553 44.9232 102.311 41.6275 103.082 39.0164C104.094 35.5643 107.052 33.4496 108.21 30.2456C108.31 29.9697 108.027 29.692 107.755 29.7586C102.729 30.9885 100.783 38.9383 100.205 43.2836C99.8123 46.2225 98.8195 47.8991 95.9294 49.1374C94.1536 49.894 92.5463 50.6434 90.9364 51.7248C87.9338 53.7443 85.875 56.3533 84.2354 59.538C84.1939 59.6185 84.2998 59.7196 84.3681 59.6445" fill="#D0C9BE"/>
<path d="M19.4732 109.187C21.4274 108.2 22.267 106.669 22.8253 104.607C23.2071 103.195 23.0988 101.614 23.0415 100.168C23.0132 99.4494 23.5589 91.3178 25.7523 93.0819C29.527 96.1074 35.4014 91.2165 38.0352 88.9245C42.657 84.9032 46.2065 79.7053 49.8662 74.8449C54.1049 69.2138 58.5893 64.5856 64.4441 60.6441C64.7377 60.4453 64.5948 59.865 64.2061 60.009C53.2274 64.1031 47.115 76.5118 39.3175 84.4982C37.1141 86.7551 34.6485 88.766 31.9074 90.3342C30.1301 91.3487 28.101 92.0139 26.2881 90.6985C25.6942 90.266 24.8564 90.8076 24.3289 91.0306C22.6642 91.732 21.5369 94.1423 21.3276 95.8083C20.7886 100.116 23.7303 105.926 19.3915 109.035C19.3042 109.1 19.372 109.238 19.4732 109.187" fill="#D0C9BE"/>
<path d="M16.042 110.86C4.45841 87.6321 22.6008 64.4194 38.5261 48.9856C47.5014 40.2904 57.4977 32.3043 69.1523 27.5551C74.6667 25.3085 80.5947 24.0423 86.5295 23.7108C92.2567 23.3889 97.7252 24.5601 103.254 25.8807C103.524 25.9472 103.735 25.5562 103.462 25.4181C93.5058 20.347 80.7059 21.9065 70.4776 25.3139C57.6277 29.5869 46.7596 38.2545 37.2158 47.6119C21.0319 63.4788 2.97656 87.6426 15.8915 110.942C15.9452 111.038 16.0906 110.958 16.042 110.86" fill="#D0C9BE"/>
<path d="M19.3555 112.783C27.3681 120.221 37.834 124.631 48.7896 125.053C59.0401 125.446 70.863 121.038 78.2485 113.919C78.7978 113.39 78.1388 112.626 77.5008 112.895C68.3957 116.682 59.2941 121.118 49.4118 122.441C38.9615 123.834 27.5273 118.959 19.4102 112.715C19.3702 112.687 19.3209 112.748 19.3555 112.783Z" fill="#D0C9BE"/>
<path d="M42.6446 112.884C46.8369 119.839 56.594 119.958 63.7002 119.133C68.7335 118.545 73.6306 116.847 78.2453 114.803C82.6516 112.852 87.1979 110.341 89.8235 106.172C90.1304 105.692 89.5698 105.155 89.088 105.394C85.3923 107.217 81.9819 109.564 78.2919 111.42C74.206 113.471 69.8712 114.841 65.4305 115.886C57.9834 117.629 48.8419 118.289 42.7132 112.834C42.6802 112.805 42.6202 112.84 42.6446 112.884" fill="#D0C9BE"/>
<path d="M61.7916 105.955C67.3928 108.582 74.3541 108.465 80.2671 107.12C86.4622 105.709 94.9349 102.742 98.0991 96.7092C98.3089 96.3028 97.8479 95.9719 97.504 96.2313C92.2476 100.215 87.1339 103.27 80.6787 104.993C74.6887 106.592 67.8669 107.89 61.8272 105.876C61.7818 105.86 61.7484 105.935 61.7916 105.955" fill="#D0C9BE"/>
<path d="M81.1812 100.097C85.6288 100.773 90.0821 100.388 94.1867 98.477C97.6794 96.8501 102.056 93.9417 102.965 89.9716C103.027 89.6992 102.747 89.4082 102.473 89.5732C99.407 91.4266 97.2185 94.3292 94.0718 96.1758C90.1623 98.473 85.7125 99.861 81.1805 100.012C81.1244 100.014 81.1256 100.09 81.1812 100.097" fill="#D0C9BE"/>
<path d="M92.566 89.5078C97.7099 90.1333 102.741 88.8072 106.765 85.5011C110.087 82.7747 114.131 78.9677 114.421 74.3965C114.44 74.1042 114.009 73.9643 113.865 74.2299C109.753 81.8953 101.591 89.3079 92.5743 89.3384C92.4604 89.3373 92.4586 89.4956 92.566 89.5078" fill="#D0C9BE"/>
<path d="M100.392 79.5914C108.242 78.6683 116.745 72.7671 118.025 64.5763C118.102 64.0982 117.375 63.927 117.156 64.3137C113.375 71.0449 108.195 77.4816 100.376 79.5074C100.317 79.5232 100.339 79.596 100.392 79.5914" fill="#D0C9BE"/>
<path d="M114.941 55.6236C115.351 61.0614 112.3 66.8361 109.816 71.4493C105.557 79.3686 99.9269 86.5604 93.7046 93.0273C86.3966 100.624 77.8603 107.194 68.5585 112.167C58.0915 117.761 46.9211 120.211 35.1931 121.145C34.5988 121.195 34.5431 122.039 35.1594 122.086C57.9595 123.757 79.7793 110.163 94.6588 94.0212C100.951 87.1916 106.434 79.4965 110.597 71.1834C112.889 66.6088 115.579 60.8897 115.025 55.617C115.02 55.5646 114.938 55.5771 114.941 55.6236" fill="#D0C9BE"/>
<path d="M81.7345 97.0873C81.7345 97.0873 81.1338 97.6364 80.0576 98.578C79.5273 99.0482 78.8533 99.5949 78.0854 100.227C77.3206 100.87 76.4354 101.559 75.4547 102.292C74.49 103.049 73.3928 103.794 72.2434 104.604C71.0712 105.375 69.8499 106.223 68.5285 107.003C67.8734 107.397 67.2022 107.8 66.5251 108.206C65.8358 108.589 65.1347 108.976 64.4315 109.366C63.7299 109.763 62.998 110.117 62.2671 110.486C61.5404 110.848 60.8142 111.235 60.0642 111.568C59.3179 111.904 58.5716 112.24 57.8291 112.578C57.0749 112.884 56.3186 113.194 55.5725 113.495C54.8311 113.813 54.0792 114.081 53.3279 114.339C52.5825 114.596 51.8509 114.88 51.119 115.105C49.6531 115.557 48.2337 116.007 46.8624 116.33C46.1821 116.5 45.5204 116.68 44.8745 116.825C44.2275 116.954 43.6019 117.081 42.9999 117.201C41.7999 117.469 40.6813 117.605 39.6959 117.742C39.2031 117.811 38.7414 117.878 38.3188 117.938C37.8877 117.978 37.4946 118.015 37.1391 118.048C35.7154 118.177 34.9042 118.231 34.9042 118.231C34.9042 118.231 35.7021 118.065 37.1017 117.803C37.4514 117.736 37.8384 117.666 38.2611 117.586C38.6758 117.492 39.1302 117.386 39.614 117.272C40.5758 117.046 41.6617 116.812 42.8325 116.482C43.4213 116.325 44.0337 116.16 44.6638 115.992C45.2913 115.801 45.9364 115.606 46.6051 115.405C47.9413 115.022 49.3161 114.512 50.7527 114.032C51.4702 113.789 52.1817 113.488 52.9105 113.217C53.64 112.936 54.3769 112.66 55.1103 112.347C55.8415 112.037 56.5823 111.728 57.3231 111.419C58.056 111.081 58.7889 110.743 59.5219 110.404C60.2654 110.082 60.983 109.71 61.7053 109.355C62.426 108.995 63.1531 108.658 63.8504 108.269C64.5525 107.898 65.2524 107.531 65.9405 107.167C66.6202 106.782 67.294 106.4 67.9554 106.03C68.6184 105.666 69.2521 105.276 69.881 104.902C70.5119 104.525 71.13 104.17 71.7198 103.804C72.8892 103.045 74.0262 102.378 75.035 101.691C76.0469 101.016 76.9869 100.414 77.7973 99.8463C78.613 99.2869 79.3332 98.8068 79.9034 98.3795C81.0636 97.5511 81.7345 97.0873 81.7345 97.0873" fill="#D0C9BE"/>
<path d="M105.815 66.1982C105.815 66.1982 105.82 66.3355 105.822 66.5906C105.828 66.8478 105.852 67.2201 105.759 67.6992C105.716 67.938 105.699 68.217 105.629 68.4948C105.554 68.7799 105.474 69.0822 105.39 69.4074C105.312 69.7407 105.173 70.0684 105.057 70.4245C104.931 70.7801 104.802 71.1585 104.625 71.5341C104.462 71.9125 104.293 72.3079 104.112 72.7161C103.913 73.1136 103.703 73.5201 103.488 73.9437C103.057 74.7849 102.556 75.6451 102.014 76.5222C101.457 77.3848 100.892 78.2934 100.249 79.1567C99.636 80.0468 98.9472 80.9035 98.2847 81.7752C97.5906 82.6239 96.8838 83.4602 96.1728 84.2692C95.4469 85.0695 94.7409 85.8614 94.01 86.5842C93.2903 87.3135 92.5953 88.0173 91.8969 88.6494C91.2022 89.2836 90.5626 89.8999 89.9273 90.4141C89.3004 90.9481 88.7214 91.4251 88.2058 91.8441C87.6863 92.261 87.2122 92.5995 86.8318 92.8876C86.0642 93.4498 85.6201 93.7708 85.6201 93.7708C85.6201 93.7708 86.0009 93.3784 86.6658 92.6922C87.0026 92.359 87.4097 91.947 87.8742 91.4785C88.3319 90.9962 88.8471 90.4574 89.4185 89.8814C89.9937 89.3076 90.5688 88.6391 91.2155 87.9673C91.8638 87.3013 92.496 86.5513 93.1836 85.8085C93.8804 85.0759 94.5214 84.2415 95.2327 83.4576C95.9223 82.6512 96.6062 81.8116 97.2804 80.9715C97.9434 80.1248 98.6326 79.2933 99.2465 78.4282C99.8865 77.5783 100.493 76.7341 101.066 75.9053C101.367 75.4965 101.611 75.065 101.89 74.6685C102.16 74.2617 102.427 73.8683 102.657 73.4689C102.895 73.0737 103.131 72.692 103.356 72.3192C103.566 71.9379 103.768 71.5715 103.963 71.2163C104.169 70.8675 104.321 70.5175 104.486 70.1894C104.639 69.8548 104.82 69.5509 104.927 69.2444C105.172 68.6392 105.397 68.112 105.509 67.6591C105.661 67.2144 105.718 66.8393 105.755 66.5866C105.795 66.336 105.815 66.1982 105.815 66.1982" fill="#D0C9BE"/>
<path d="M107.205 69.4794C113.288 68.6259 120.074 63.2859 119.312 56.5447C119.267 56.1654 118.766 56.2492 118.653 56.5225C117.647 58.9283 116.884 61.3544 115.362 63.5071C113.4 66.2765 110.385 68.3686 107.189 69.3954C107.134 69.4133 107.151 69.4877 107.205 69.4794" fill="#D0C9BE"/>
<path d="M38.3829 64.5367C38.3508 58.167 41.5122 52.3818 44.6698 47.0472C48.1092 41.2383 52.8485 37.2152 57.9398 32.9772C58.2325 32.7331 57.9478 32.2253 57.589 32.3218C51.1381 34.0825 46.3272 40.6376 42.9909 46.0282C39.6996 51.3452 37.5234 58.2467 38.2995 64.5433C38.3066 64.5922 38.3856 64.5831 38.3829 64.5367" fill="#D0C9BE"/>
<path d="M50.9541 53.5724C51.3181 47.8744 54.2204 43.0993 57.3763 38.5055C60.4638 34.0165 64.8584 31.2577 68.4164 27.2942C68.6494 27.0355 68.4458 26.6641 68.1053 26.7114C63.0041 27.4147 58.9395 32.8478 56.1097 36.6991C52.607 41.466 50.4265 47.6135 50.8694 53.5683C50.8739 53.6207 50.9509 53.6253 50.9541 53.5724" fill="#D0C9BE"/>
<path d="M64.1485 44.5908C65.8638 34.5512 73.9441 26.3646 83.5684 23.375C83.8931 23.2738 83.8566 22.8146 83.5123 22.7851C78.2309 22.2943 73.144 26.5349 69.5405 29.9245C65.9645 33.2853 64.2504 39.8415 63.9798 44.5631C63.9748 44.6597 64.1323 44.686 64.1485 44.5908" fill="#D0C9BE"/>
<path d="M74.5183 39.9763C78.351 32.3239 86.4639 26.3612 94.5184 23.9335C95.02 23.7801 94.9779 23.0341 94.4273 23.0049C85.4816 22.5089 77.1932 32.2378 74.4429 39.9378C74.4267 39.9832 74.4961 40.0182 74.5183 39.9763Z" fill="#D0C9BE"/>
<path d="M34.4734 57.696C34.4734 57.696 34.1471 58.1198 33.5767 58.8656C33.2863 59.2305 32.9323 59.6782 32.5261 60.1903C32.1108 60.6872 31.6686 61.2781 31.1925 61.914C30.7115 62.5522 30.1919 63.2427 29.6295 63.9583C29.082 64.6875 28.5458 65.4878 27.9533 66.2856C27.662 66.6849 27.3632 67.0947 27.0622 67.5082C26.7766 67.9357 26.4889 68.3668 26.2011 68.798C25.6243 69.6695 25.0014 70.5293 24.4469 71.4286C23.8834 72.3278 23.3197 73.2267 22.7666 74.107C22.207 74.9884 21.7184 75.8959 21.2137 76.7493C20.7233 77.616 20.2076 78.4282 19.7988 79.2474C19.3776 80.0545 18.9626 80.8104 18.5785 81.5094C18.1832 82.207 17.8716 82.8683 17.5797 83.4514C17.287 84.029 17.0287 84.5368 16.8179 84.9527C16.3823 85.7813 16.1305 86.2581 16.1305 86.2581C16.1305 86.2581 16.2956 85.7462 16.5819 84.8563C16.7338 84.4114 16.9176 83.8705 17.1272 83.2548C17.3435 82.638 17.5727 81.9342 17.9082 81.2021C18.2207 80.4617 18.5658 79.6555 18.9409 78.8168C19.2951 77.9611 19.7501 77.0989 20.2187 76.2097C20.454 75.7582 20.6911 75.3078 20.9307 74.8488C21.168 74.3836 21.4112 73.9217 21.6984 73.4753C22.2491 72.5688 22.8074 71.6518 23.3682 70.7312C23.9419 69.8281 24.5844 68.9645 25.1826 68.0905C25.4854 67.6531 25.7887 67.2259 26.0949 66.8103C26.4167 66.4038 26.7367 66.0013 27.0509 65.6053C27.6772 64.8171 28.2818 64.0562 28.8845 63.3589C29.4997 62.6639 30.0926 62.0207 30.6379 61.4296C30.9113 61.1345 31.1735 60.8528 31.4222 60.5833C31.6851 60.327 31.9325 60.0865 32.1656 59.8577C32.6387 59.4091 33.0509 59.015 33.3904 58.6933C34.0784 58.0603 34.4734 57.696 34.4734 57.696" fill="#D0C9BE"/>
<path d="M98.7803 29.6989C98.7803 29.6989 98.5246 29.616 98.0473 29.4599C97.5694 29.3134 96.8772 29.0381 95.9599 28.8769C95.4999 28.7855 95.0032 28.663 94.4508 28.5681C93.8923 28.5094 93.2938 28.4426 92.6472 28.3729C92.006 28.2764 91.3129 28.3044 90.588 28.2841C89.8629 28.2736 89.1018 28.2373 88.3087 28.312C87.5134 28.3755 86.687 28.3861 85.8363 28.4923C84.9869 28.6091 84.1087 28.7292 83.2058 28.855C82.3061 28.9926 81.3959 29.2286 80.46 29.415C79.9924 29.5283 79.5149 29.601 79.0469 29.734C78.5757 29.87 78.1029 30.0053 77.6239 30.1418C76.6742 30.4298 75.683 30.6439 74.7304 31.0247C73.7673 31.3696 72.7924 31.7176 71.8076 32.0698C70.835 32.444 69.8775 32.8867 68.9007 33.2984L67.4411 33.9239C66.9609 34.1495 66.4927 34.4018 66.0154 34.6389C65.0662 35.1113 64.1149 35.5873 63.169 36.0566C62.2344 36.5573 61.332 37.1065 60.4224 37.6216C59.9687 37.8823 59.5162 38.1437 59.0677 38.4024C58.6124 38.6522 58.168 38.9132 57.7396 39.2034C56.8773 39.7608 56.0274 40.3104 55.1874 40.8558C53.4856 41.904 51.9531 43.0799 50.4542 44.1407C49.7169 44.6806 48.9759 45.1787 48.2965 45.7122C47.6202 46.2475 46.9653 46.7654 46.3375 47.264C45.7084 47.7569 45.1043 48.2344 44.5326 48.6857C43.9564 49.1345 43.3985 49.5491 42.9145 49.9865C41.9248 50.8386 41.063 51.5804 40.3528 52.1907C38.9214 53.4 38.1038 54.0928 38.1038 54.0928C38.1038 54.0928 38.8499 53.329 40.1822 52.0076C40.8521 51.3491 41.6645 50.5489 42.5961 49.6284C43.5237 48.7055 44.659 47.7633 45.8672 46.6939C46.475 46.1637 47.1063 45.6124 47.7614 45.0399C48.4209 44.47 49.1526 43.9467 49.876 43.3739C51.3492 42.2534 52.8502 41.0045 54.5553 39.9134C55.3919 39.3462 56.2414 38.7715 57.1026 38.1886C57.9479 37.5866 58.8883 37.0992 59.7958 36.548C60.7156 36.0189 61.6281 35.4557 62.5692 34.9438C63.5284 34.4574 64.4929 33.9689 65.4562 33.4798C65.9413 33.2422 66.4184 32.9951 66.9084 32.7653L68.3988 32.1375C69.3941 31.7266 70.3722 31.2859 71.367 30.9095C73.3782 30.2141 75.3512 29.5116 77.3334 29.0483C77.8222 28.9224 78.308 28.7947 78.7902 28.6699C79.2704 28.5391 79.7634 28.4802 80.2442 28.3845C81.2078 28.2241 82.1407 28.0161 83.065 27.9076C83.9913 27.8153 84.8915 27.7278 85.7632 27.6387C86.6346 27.5744 87.4838 27.6018 88.293 27.5812C89.1049 27.5423 89.8816 27.6075 90.6191 27.6699C91.3545 27.741 92.0564 27.758 92.7006 27.901C93.3524 28.0135 93.9561 28.1231 94.5159 28.2224C95.0719 28.3543 95.5759 28.5159 96.032 28.6398C96.9517 28.8572 97.6025 29.213 98.0743 29.3958C98.5338 29.5914 98.7803 29.6989 98.7803 29.6989" fill="#D0C9BE"/>
<path d="M58.5972 45.4769C58.5972 45.4769 57.9832 45.8939 56.8938 46.5989C56.3462 46.9447 55.6873 47.3756 54.9465 47.8837C54.2024 48.3948 53.3545 48.9505 52.4499 49.5879C51.5429 50.2191 50.5573 50.8994 49.5356 51.6484C48.5009 52.38 47.444 53.1934 46.3446 54.0269C45.2327 54.8484 44.1534 55.7782 43.0179 56.6706C41.9177 57.6133 40.7788 58.5385 39.7159 59.5475C38.6058 60.5142 37.5763 61.5525 36.5419 62.563C36.0483 63.0843 35.555 63.6059 35.0708 64.1178C34.8267 64.3751 34.5867 64.6297 34.3477 64.8849C34.1222 65.1479 33.8978 65.4116 33.6759 65.6717C33.2338 66.1979 32.7831 66.6992 32.3726 67.2188C31.9673 67.7414 31.5741 68.251 31.1888 68.7503C30.7881 69.2357 30.4805 69.7649 30.1371 70.2485C29.8134 70.7385 29.4595 71.1963 29.1902 71.673C28.9135 72.1453 28.647 72.6036 28.3955 73.0358C28.2663 73.2499 28.1405 73.461 28.019 73.6646C27.9135 73.8775 27.8138 74.0837 27.7148 74.2854C27.5187 74.6898 27.3342 75.0661 27.1655 75.4117C26.9855 75.7607 26.8383 76.0838 26.7377 76.3891C26.2795 77.593 25.9966 78.2857 25.9966 78.2857C25.9966 78.2857 26.1664 77.5674 26.4997 76.3064C26.5738 75.9859 26.6907 75.6453 26.8351 75.2807C26.9723 74.9119 27.1202 74.5145 27.2786 74.0883C27.3586 73.8756 27.4414 73.6546 27.5248 73.4291C27.628 73.2099 27.7358 72.9835 27.8418 72.756C28.0676 72.294 28.3013 71.8118 28.5479 71.3071C28.7903 70.8 29.1131 70.3143 29.4128 69.7856C29.7262 69.2696 30.0233 68.7145 30.4035 68.1974C30.7713 67.6681 31.1492 67.1247 31.5336 66.5701C31.9195 66.0164 32.3758 65.4985 32.8076 64.9464C33.0252 64.6738 33.2464 64.3984 33.4698 64.1192C33.7056 63.8522 33.9429 63.586 34.1808 63.3152C34.6627 62.7771 35.1436 62.2236 35.6523 61.696C36.694 60.6598 37.7318 59.5865 38.8519 58.5957C39.9439 57.5836 41.1086 56.6533 42.2328 55.7096C42.8032 55.2475 43.3896 54.8146 43.9583 54.3814C44.5295 53.9447 45.0975 53.5161 45.6705 53.1202C46.2408 52.7178 46.8021 52.325 47.3497 51.9394C47.905 51.5631 48.4613 51.2124 48.9937 50.8627C50.0557 50.1519 51.0963 49.5382 52.056 48.9674C53 48.3825 53.9081 47.9113 54.7026 47.4741C55.4945 47.0353 56.1926 46.6719 56.7711 46.3837C57.9283 45.7975 58.5972 45.4769 58.5972 45.4769" fill="#D0C9BE"/>
<path d="M95.4873 33.7556C95.4873 33.7556 95.4596 33.7346 95.4036 33.7023C95.3455 33.6737 95.2725 33.6017 95.1535 33.5579C94.9251 33.4708 94.579 33.3805 94.115 33.3565C93.1968 33.2744 91.8703 33.3995 90.2989 33.647C89.515 33.7718 88.6631 33.937 87.7694 34.1228C86.8778 34.3049 85.9403 34.545 84.9726 34.7728C83.0409 35.2702 80.9902 35.8383 78.9646 36.4905C77.9496 36.8105 76.9379 37.1422 75.9516 37.4935C74.9672 37.851 73.9908 38.1783 73.0621 38.548C71.2006 39.2601 69.4826 39.9855 68.0299 40.6499C67.307 40.9891 66.6401 41.2959 66.0602 41.5932C65.4766 41.8834 64.976 42.1469 64.5598 42.3695C63.736 42.8197 63.265 43.0803 63.265 43.0803C63.265 43.0803 63.3681 42.9956 63.5639 42.8349C63.7636 42.6813 64.0403 42.428 64.4234 42.1514C65.1732 41.5839 66.2866 40.8131 67.6888 39.995C68.389 39.583 69.1579 39.1608 69.989 38.7447C70.8174 38.3271 71.7003 37.8961 72.6334 37.4991C73.5641 37.0957 74.5291 36.6872 75.53 36.3244C76.5271 35.9543 77.5482 35.6031 78.5769 35.2662C79.6115 34.9527 80.6485 34.6455 81.6773 34.3784C82.7058 34.0962 83.7307 33.8866 84.7215 33.6722C86.7115 33.2731 88.5935 33.0058 90.2192 32.9141C91.8435 32.8166 93.2168 32.8777 94.1536 33.1C94.6231 33.192 94.9736 33.3695 95.1954 33.5025C95.3037 33.565 95.3643 33.6498 95.416 33.6896C95.4618 33.7309 95.4873 33.7556 95.4873 33.7556" fill="#D0C9BE"/>
<path d="M87.159 32.7645C89.0184 30.2095 91.4124 28.5803 94.2349 27.2434C96.9782 25.9403 100.015 26.111 102.956 25.8723C103.249 25.8474 103.498 25.3988 103.146 25.2406C96.9613 22.4264 89.805 27.1944 87.0862 32.7225C87.0608 32.7725 87.1265 32.8104 87.159 32.7645" fill="#D0C9BE"/>
</g>
</svg>
