<svg width="54" height="35" viewBox="0 0 54 35" fill="none" xmlns="http://www.w3.org/2000/svg">
<g clip-path="url(#clip0_33_697)">
<path d="M27 34.5363C20.0089 34.5363 13.4252 33.9657 8.46169 32.9299C2.76778 31.7416 0 30.1389 0 28.0302C0 26.4741 1.37395 25.2196 4.20036 24.195C6.52759 23.351 9.88204 22.666 13.8989 22.2136C14.0428 22.1969 14.1887 22.2088 14.328 22.2485C14.4674 22.2883 14.5975 22.3551 14.711 22.4453C14.8244 22.5355 14.919 22.6471 14.9892 22.7739C15.0594 22.9007 15.1039 23.0401 15.1201 23.1841C15.1363 23.3281 15.1239 23.4739 15.0837 23.6131C15.0434 23.7523 14.9761 23.8822 14.8855 23.9953C14.795 24.1085 14.683 24.2026 14.5559 24.2724C14.4289 24.3421 14.2894 24.3861 14.1453 24.4018C4.22908 25.5184 2.20218 27.5479 2.20218 28.0302C2.20218 28.0436 2.59633 29.4562 8.91167 30.7742C13.7315 31.7802 20.1554 32.334 26.9993 32.334C33.8431 32.334 40.2677 31.7802 45.0876 30.7742C51.4029 29.4562 51.7971 28.0436 51.7971 28.0302C51.7971 27.5322 49.6824 25.4483 39.3373 24.3503C39.1935 24.335 39.0541 24.2916 38.9271 24.2224C38.8001 24.1533 38.688 24.0598 38.5971 23.9473C38.4136 23.7202 38.3278 23.4295 38.3587 23.1391C38.3895 22.8487 38.5344 22.5824 38.7616 22.3989C38.9887 22.2154 39.2795 22.1296 39.5698 22.1605C43.7382 22.6023 47.2223 23.2883 49.6447 24.1424C52.5744 25.1751 53.9985 26.4468 53.9985 28.031C53.9985 30.1396 51.2306 31.7428 45.5368 32.9307C40.5748 33.9657 33.9911 34.5363 27 34.5363Z" fill="#D69E3D"/>
<path d="M26.677 29.4262C23.7057 29.4262 21.5464 29.0066 20.2582 28.6545C18.1424 28.0763 17.2793 27.4869 17.2793 26.6201C17.2794 26.392 17.3517 26.1698 17.4859 25.9854C17.6201 25.801 17.8093 25.6638 18.0264 25.5937C18.2434 25.5235 18.4771 25.5239 18.6939 25.5948C18.9107 25.6657 19.0994 25.8035 19.233 25.9884C19.8699 26.3713 22.535 27.2684 26.677 27.2684C31.1718 27.2684 34.0086 25.9575 34.4993 25.7131C34.7855 25.4805 35.7426 24.7034 36.7034 23.9281C37.2787 23.4638 37.8554 23.0001 38.2911 22.6543C38.5131 22.4775 38.6992 22.3312 38.8312 22.2295C39.1095 22.015 39.5752 21.655 40.1918 21.9714C40.3637 22.0594 40.5088 22.1919 40.6121 22.3551C40.7154 22.5183 40.773 22.7062 40.7789 22.8992C40.7848 23.0922 40.7388 23.2833 40.6457 23.4525C40.5526 23.6217 40.4159 23.7628 40.2497 23.8612C39.8331 24.1692 37.315 26.2049 35.7747 27.4572C35.7241 27.4984 35.6699 27.5348 35.6127 27.5662C35.4741 27.6422 32.1571 29.4262 26.677 29.4262ZM39.4587 23.9843C39.6952 24.0389 39.9432 24.0118 40.1623 23.9074C39.9986 23.9852 39.8179 24.0204 39.6369 24.0097C39.5769 24.0061 39.5173 23.9976 39.4587 23.9843V23.9843Z" fill="#D69E3D"/>
<path d="M18.3575 27.6985C18.1104 27.6988 17.8707 27.6138 17.679 27.4578C16.1176 26.1922 13.5695 24.1371 13.1828 23.8491C13.0205 23.7483 12.8879 23.6063 12.7984 23.4375C12.709 23.2686 12.666 23.0791 12.6737 22.8882C12.6815 22.6973 12.7399 22.5119 12.8428 22.351C12.9457 22.19 13.0894 22.0592 13.2594 21.972C13.8772 21.6549 14.3615 22.0309 14.6217 22.2337C14.7522 22.3352 14.937 22.4812 15.1576 22.6568C15.5924 23.0027 16.1689 23.4657 16.7444 23.9292C17.8933 24.8544 19.0374 25.7816 19.0374 25.7816C19.2108 25.922 19.3364 26.1127 19.3968 26.3274C19.4573 26.5421 19.4498 26.7703 19.3752 26.9806C19.3007 27.1908 19.1628 27.3728 18.9805 27.5014C18.7983 27.6301 18.5806 27.6991 18.3575 27.6989V27.6985ZM13.2465 23.885C13.4834 24.0107 13.7586 24.0437 14.0186 23.9777C13.952 23.9945 13.8839 24.005 13.8153 24.0089C13.6178 24.0212 13.4207 23.9784 13.246 23.8853L13.2465 23.885Z" fill="#D69E3D"/>
<path d="M26.6939 9.94714C22.1899 9.94714 17.9438 9.53192 14.7376 8.77778C10.9142 7.8793 9.05566 6.63422 9.05566 4.97364C9.05566 3.31306 10.9142 2.06873 14.7376 1.16935C17.9439 0.415361 22.1907 0 26.6939 0C31.1971 0 35.4431 0.415361 38.6499 1.16935C42.4734 2.06873 44.3319 3.31306 44.3319 4.97364C44.3319 6.63422 42.4734 7.87856 38.6499 8.77778C35.4437 9.53192 31.1976 9.94714 26.6939 9.94714ZM11.2243 4.97364C11.3777 5.2535 12.4278 6.06965 15.6697 6.77636C18.6658 7.42961 22.581 7.7893 26.6939 7.7893C30.8067 7.7893 34.7213 7.42961 37.7179 6.77636C40.9598 6.06936 42.0098 5.25276 42.1633 4.97364C42.0098 4.69452 40.9598 3.87764 37.7179 3.17093C34.7218 2.51768 30.8067 2.15799 26.6939 2.15799C22.581 2.15799 18.6664 2.51768 15.6696 3.17093C12.4278 3.87764 11.3777 4.69452 11.2243 4.97364Z" fill="#D69E3D"/>
<path d="M26.6939 25.3702C21.5525 25.3702 16.7353 24.8234 13.4776 23.8703C10.5023 22.9997 9.05571 21.8634 9.05571 20.3966C9.05318 20.1109 9.16405 19.8359 9.36399 19.6319C9.56394 19.4278 9.83664 19.3114 10.1223 19.3082C10.4079 19.3049 10.6832 19.4151 10.8878 19.6145C11.0923 19.8139 11.2094 20.0863 11.2134 20.372C11.2545 20.4503 11.6598 21.0902 14.0836 21.7992C17.1527 22.6977 21.749 23.2122 26.6939 23.2122C30.8068 23.2122 34.7214 22.8525 37.7179 22.1993C41.0513 21.4727 42.0675 20.6294 42.1743 20.3742C42.1788 20.0891 42.2959 19.8173 42.5002 19.6184C42.7044 19.4194 42.9791 19.3093 43.2642 19.3123C43.5494 19.3153 43.8217 19.431 44.0218 19.6341C44.2219 19.8373 44.3334 20.1114 44.332 20.3966C44.332 22.0571 42.4734 23.3015 38.65 24.2008C35.4437 24.9548 31.1977 25.3702 26.6939 25.3702Z" fill="#D69E3D"/>
<path d="M10.1346 21.4754C9.84845 21.4753 9.57404 21.3617 9.37172 21.1593C9.16939 20.957 9.0557 20.6826 9.05566 20.3965V4.97369C9.05898 4.68971 9.17412 4.41848 9.37611 4.21884C9.5781 4.0192 9.85066 3.90723 10.1347 3.90723C10.4187 3.90723 10.6912 4.0192 10.8932 4.21884C11.0952 4.41848 11.2103 4.68971 11.2137 4.97369V20.3965C11.2136 20.6826 11.0999 20.957 10.8976 21.1594C10.6952 21.3617 10.4207 21.4754 10.1346 21.4754V21.4754Z" fill="#D69E3D"/>
<path d="M43.0733 22.0485H43.0609C42.9192 22.0469 42.7792 22.0175 42.6489 21.9618C42.5186 21.9061 42.4006 21.8253 42.3015 21.724C42.2025 21.6227 42.1243 21.5029 42.0716 21.3713C42.0189 21.2398 41.9926 21.0992 41.9942 20.9575L42.1741 4.96148C42.1752 4.81951 42.2044 4.67917 42.2599 4.5485C42.3154 4.41783 42.3961 4.2994 42.4975 4.19999C42.5988 4.10058 42.7188 4.02216 42.8505 3.96921C42.9823 3.91626 43.1231 3.88983 43.2651 3.89143C43.4071 3.89302 43.5473 3.92262 43.6778 3.97852C43.8083 4.03443 43.9265 4.11554 44.0256 4.21721C44.1247 4.31887 44.2027 4.43909 44.2553 4.57098C44.3078 4.70286 44.3338 4.84382 44.3318 4.98578L44.1519 20.9818C44.1487 21.2658 44.0336 21.537 43.8317 21.7367C43.6298 21.9364 43.3573 22.0484 43.0733 22.0485V22.0485Z" fill="#D69E3D"/>
<path d="M7.01279 17.7463C5.91245 17.7473 4.83782 17.4136 3.93152 16.7896C3.02522 16.1656 2.33009 15.2808 1.93839 14.2525C1.54668 13.2243 1.47692 12.1012 1.73836 11.0324C1.9998 9.96354 2.58008 8.99949 3.40219 8.26813C5.46429 6.43242 8.4922 6.50208 10.7642 8.43781C10.9804 8.62385 11.1141 8.88791 11.1361 9.17227C11.1582 9.45663 11.0667 9.73814 10.8818 9.95526C10.6968 10.1724 10.4334 10.3074 10.1492 10.3309C9.86492 10.3543 9.58295 10.2643 9.36491 10.0804C7.93499 8.8623 6.07321 8.77997 4.83683 9.88025C4.19502 10.4582 3.808 11.2666 3.7603 12.1289C3.7126 12.9912 4.0081 13.8374 4.58225 14.4826C5.1564 15.1277 5.96253 15.5195 6.82457 15.5722C7.68661 15.625 8.53449 15.3344 9.183 14.764C9.28874 14.6692 9.41217 14.5962 9.5462 14.5492C9.68023 14.5021 9.82222 14.482 9.96404 14.49C10.1059 14.498 10.2447 14.5339 10.3726 14.5957C10.5005 14.6575 10.6149 14.7439 10.7094 14.85C10.8038 14.9561 10.8763 15.0798 10.9228 15.214C10.9693 15.3482 10.9889 15.4903 10.9804 15.6321C10.9718 15.7739 10.9354 15.9126 10.8731 16.0402C10.8108 16.1679 10.724 16.282 10.6175 16.376C9.62525 17.2604 8.34196 17.7482 7.01279 17.7463V17.7463Z" fill="#D69E3D"/>
<path d="M27.0001 29.9655C21.2949 29.9655 15.8679 29.5878 11.3056 28.8734C11.1656 28.8515 11.0313 28.8022 10.9104 28.7284C10.7895 28.6546 10.6842 28.5577 10.6007 28.4432C10.5173 28.3287 10.4571 28.1989 10.4238 28.0612C10.3905 27.9235 10.3846 27.7806 10.4065 27.6406C10.4285 27.5006 10.4777 27.3663 10.5515 27.2454C10.6254 27.1244 10.7223 27.0192 10.8368 26.9357C10.9512 26.8522 11.081 26.7921 11.2188 26.7588C11.3565 26.7255 11.4994 26.7196 11.6394 26.7415C16.0932 27.4389 21.4049 27.8075 27.0001 27.8075C32.5954 27.8075 37.907 27.4392 42.3607 26.7415C42.5007 26.7196 42.6437 26.7254 42.7814 26.7588C42.9191 26.7921 43.0489 26.8522 43.1634 26.9357C43.2779 27.0191 43.3748 27.1244 43.4486 27.2453C43.5225 27.3662 43.5717 27.5005 43.5937 27.6405C43.6156 27.7805 43.6097 27.9234 43.5764 28.0611C43.5431 28.1989 43.483 28.3287 43.3995 28.4432C43.316 28.5576 43.2108 28.6546 43.0899 28.7284C42.9689 28.8022 42.8346 28.8515 42.6947 28.8734C38.1323 29.5878 32.7052 29.9655 27.0001 29.9655Z" fill="#D69E3D"/>
</g>
<defs>
<clipPath id="clip0_33_697">
<rect width="54" height="34.5363" fill="white"/>
</clipPath>
</defs>
</svg>
