<svg width="46" height="46" viewBox="0 0 46 46" fill="none" xmlns="http://www.w3.org/2000/svg">
<path d="M15.7455 8.9376C14.4929 9.94617 13.2956 11.0216 12.1588 12.1592C11.678 12.6403 11.2117 13.1272 10.7611 13.6199L7.67357 17.397C14.9049 17.4293 21.3277 19.1966 25.431 21.9244C27.5399 23.3269 27.6471 24.4221 28.6624 25.2334C29.0296 25.5264 29.4857 25.6857 29.9555 25.6848C30.228 25.6849 30.4978 25.6312 30.7495 25.527C31.0012 25.4227 31.2299 25.2699 31.4226 25.0773C31.6152 24.8846 31.768 24.6559 31.8723 24.4042C31.9766 24.1525 32.0302 23.8827 32.0302 23.6103C32.0302 21.1003 27.7337 18.0205 25.79 17.0071C21.9407 15.0007 16.6765 13.7077 10.8239 13.5519M20.3945 5.69062C28.653 0.758254 37.1018 -0.0262741 41.5638 4.43614C47.5514 10.4235 44.0938 23.5892 33.8407 33.8415C23.5876 44.0938 10.4229 47.5521 4.43548 41.5644C0.986251 38.1159 0.671273 32.2851 2.98421 26.0014M4.80052 21.9728C5.63664 20.4091 6.57887 18.9046 7.62059 17.4696H9.63249M20.358 5.71319C24.394 6.24807 27.9934 7.33827 30.8264 8.8149C32.7701 9.82796 37.0666 12.908 37.0666 15.418C37.0666 15.6905 37.013 15.9603 36.9087 16.2121C36.8044 16.4638 36.6516 16.6925 36.4589 16.8852C36.2663 17.0779 36.0375 17.2307 35.7858 17.3349C35.534 17.4392 35.2642 17.4928 34.9917 17.4928C34.5219 17.4936 34.0658 17.3343 33.6986 17.0413C32.6834 16.23 32.576 15.1348 30.4673 13.7323C26.8634 11.3366 21.4697 9.68216 15.311 9.29268L20.358 5.71319ZM4.88431 21.8148C10.1131 22.1382 14.793 23.3738 18.2991 25.201C20.2427 26.2141 24.5393 29.2941 24.5393 31.8041C24.5391 32.3542 24.3204 32.8818 23.9313 33.2707C23.5422 33.6596 23.0146 33.8781 22.4644 33.878C21.9946 33.8788 21.5386 33.7196 21.1714 33.4265C20.156 32.6153 20.0487 31.5201 17.9399 30.1175C14.3973 27.7624 9.12656 26.1231 3.09921 25.6981L4.88431 21.8148Z" stroke="#D69E3D" stroke-width="1.85906" stroke-linecap="round" stroke-linejoin="round"/>
</svg>
