<svg width="53" height="53" viewBox="0 0 53 53" fill="none" xmlns="http://www.w3.org/2000/svg">
<path fill-rule="evenodd" clip-rule="evenodd" d="M26.6514 3.08012C20.4 3.08016 14.4045 5.56357 9.98405 9.98404C5.56357 14.4045 3.08016 20.4 3.08012 26.6514C3.08016 32.9029 5.56357 38.8984 9.98404 43.3189C14.4045 47.7394 20.3999 50.2228 26.6515 50.2229C32.903 50.2229 38.8984 47.7394 43.3189 43.3189C47.7394 38.8984 50.2229 32.903 50.2229 26.6514C50.2229 20.3999 47.7394 14.4045 43.3189 9.984C38.8984 5.56352 32.903 3.08012 26.6514 3.08012ZM8.45655 8.45655C13.2821 3.63096 19.827 0.919965 26.6514 0.919922C33.4759 0.919922 40.0208 3.63091 44.8464 8.4565C49.672 13.2821 52.3831 19.827 52.3831 26.6514C52.3831 33.4759 49.6721 40.0208 44.8464 44.8464C40.0208 49.6721 33.4759 52.3831 26.6514 52.3831C19.827 52.383 13.2821 49.672 8.45654 44.8464C3.63096 40.0208 0.919965 33.4759 0.919922 26.6514C0.919965 19.827 3.63097 13.2821 8.45655 8.45655ZM26.6514 22.4336C25.5328 22.4337 24.46 22.8781 23.6691 23.6691C22.8781 24.46 22.4337 25.5328 22.4336 26.6514M26.6515 22.4336C27.7701 22.4337 28.8429 22.878 29.6339 23.669C30.4249 24.46 30.8692 25.5328 30.8692 26.6514C30.8692 27.7701 30.4249 28.8429 29.6339 29.6339C28.8429 30.4249 27.7701 30.8692 26.6514 30.8692C25.5328 30.8692 24.46 30.4249 23.669 29.6339C22.878 28.8429 22.4337 27.7701 22.4336 26.6515M22.1416 22.1416C23.3377 20.9455 24.9599 20.2735 26.6514 20.2735H26.6514C28.343 20.2735 29.9653 20.9454 31.1614 22.1415C32.3575 23.3376 33.0294 24.9599 33.0294 26.6514C33.0294 28.343 32.3575 29.9653 31.1614 31.1614C29.9653 32.3575 28.343 33.0294 26.6514 33.0294C24.9599 33.0294 23.3376 32.3575 22.1415 31.1614C20.9454 29.9653 20.2734 28.343 20.2734 26.6514V26.6514C20.2735 24.9599 20.9455 23.3377 22.1416 22.1416Z" fill="#D69E3D"/>
</svg>
