<svg width="115" height="118" viewBox="0 0 115 118" fill="none" xmlns="http://www.w3.org/2000/svg">
<path d="M96.6178 33.2529C105.618 44.3422 100.105 59.2785 91.542 68.6779C87.6125 72.9904 83.3205 76.9672 78.8102 80.6617C64.6147 92.2957 45.2312 102.483 27.2467 92.929C26.8484 92.7164 26.5719 93.309 26.9375 93.5391C44.6698 104.773 65.8409 93.3472 80.0977 81.6294C93.2232 70.841 112.111 50.7586 97.3291 33.7958C97.1359 33.5751 96.9338 33.3649 96.7201 33.1631C96.6664 33.109 96.5707 33.1909 96.6178 33.2529Z" fill="#373533"/>
<path d="M14.4823 82.7328C17.368 79.617 22.3642 80.2591 25.9033 78.2187C28.061 76.9745 29.0332 74.1949 27.8392 72.0396C27.6529 72.3158 27.4659 72.5914 27.2788 72.867C30.0887 73.5577 31.8964 75.7638 34.2614 77.2032C34.658 77.4458 35.0561 76.9149 34.829 76.5622C33.1997 74.028 30.1838 73.1464 27.6352 71.8549C27.2027 71.6362 26.7498 72.0627 26.8787 72.5088C28.2424 77.1717 22.7709 78.3295 19.5094 79.1161C17.3662 79.6336 15.5311 80.7655 14.3703 82.6569C14.3274 82.7246 14.4328 82.7859 14.4823 82.7328Z" fill="#373533"/>
<path d="M33.161 75.4275C33.511 73.2927 33.9533 70.8525 36.1479 69.806C36.9554 69.4203 38.0916 69.4591 38.9752 69.2453C40.2434 68.9398 41.383 68.5128 42.5584 67.9448C46.3083 66.1353 49.6955 62.9357 52.876 60.288C54.4211 59.0029 55.9235 57.6639 57.412 56.3087C58.0406 55.7368 58.8581 54.58 59.8319 54.6222C60.7417 54.6602 61.7005 54.5592 62.5916 54.3833C65.8762 53.7333 68.9873 52.4151 70.8839 49.5641C71.0851 49.2599 70.6548 48.9619 70.3874 49.1249C68.5106 50.2985 66.6884 51.5358 64.6013 52.3211C63.5955 52.6981 62.5251 52.8677 61.4636 52.9998C60.6272 53.0999 59.4646 52.7866 58.6903 53.0425C57.1919 53.5379 55.3232 56.0023 54.1581 57.0025C52.1953 58.6851 50.1685 60.2914 48.1039 61.8434C46.2972 63.2019 44.4524 64.515 42.5377 65.7063C41.2347 66.5187 39.9046 67.1642 38.4355 67.621C37.4737 67.9178 36.3821 67.9435 35.4831 68.4462C32.727 69.9857 32.5927 72.5223 32.8895 75.407C32.9057 75.5557 33.1352 75.5861 33.161 75.4275Z" fill="#373533"/>
<path d="M73.1143 50.5132C75.6201 48.5203 78.4885 46.9488 81.5558 46.0264C83.9857 45.2944 86.4229 45.2625 88.1133 43.1621C89.5005 41.4337 89.7676 38.8013 90.7384 36.8496C92.0168 34.2683 94.6433 33.012 96.0018 30.6467C96.1187 30.4429 95.9345 30.1847 95.7104 30.1994C91.5767 30.4704 88.9363 36.4683 87.8767 39.8143C87.1585 42.0771 86.1425 43.2611 83.6915 43.8356C82.1861 44.1854 80.8145 44.5528 79.3947 45.1816C76.7463 46.3565 74.7601 48.1276 73.0245 50.4108C72.9806 50.4685 73.0501 50.5629 73.1143 50.5132Z" fill="#373533"/>
<path d="M15.0565 80.556C16.7346 80.0493 17.6096 78.9588 18.3365 77.4106C18.8339 76.3501 18.9682 75.0887 19.1242 73.9401C19.2017 73.3699 20.7626 67.0338 22.2468 68.7298C24.8026 71.6402 30.1146 68.6005 32.5102 67.1594C36.7136 64.6311 40.2351 61.0261 43.7966 57.7024C47.9218 53.8515 52.1013 50.8256 57.266 48.5317C57.525 48.4157 57.4931 47.9384 57.1666 47.9978C47.9405 49.6996 41.3955 58.6342 34.1367 63.8475C32.0855 65.3207 29.8617 66.5635 27.4823 67.4189C25.9398 67.9718 24.2473 68.2142 23.0007 66.9249C22.5925 66.5013 21.8566 66.8119 21.4097 66.9144C19.9995 67.236 18.7755 68.9798 18.3788 70.2644C17.3549 73.5863 18.8667 78.5764 15.0132 80.425C14.9354 80.4634 14.9696 80.5822 15.0565 80.556Z" fill="#373533"/>
<path d="M12.1175 81.398C6.21323 61.472 23.7461 45.6909 38.4494 35.7354C46.7354 30.127 55.7281 25.2196 65.5781 23.0952C70.2387 22.0905 75.0891 21.9163 79.8148 22.48C84.3756 23.0225 88.5247 24.7063 92.7008 26.5164C92.9046 26.6063 93.1252 26.3274 92.9286 26.1804C85.7834 20.7976 75.4737 20.2476 66.9348 21.5123C56.2083 23.095 46.4336 28.4184 37.6072 34.47C22.6399 44.7311 5.0433 61.2743 11.9874 81.4419C12.0165 81.5249 12.1423 81.4818 12.1175 81.398Z" fill="#373533"/>
<path d="M14.4633 83.3749C19.7472 90.3542 27.3866 95.2866 35.9665 97.1426C43.9945 98.8778 53.9299 97.0458 60.7434 92.4589C61.2501 92.1182 60.8366 91.4243 60.2962 91.5475C52.5901 93.2677 44.7966 95.5003 36.8204 95.1692C28.3865 94.8145 20.0482 89.3812 14.5159 83.3289C14.4883 83.3012 14.4409 83.3426 14.4633 83.3749Z" fill="#373533"/>
<path d="M32.8134 86.6928C35.1521 92.7597 42.8293 94.2096 48.5473 94.5472C52.5979 94.7832 56.6953 94.1259 60.6183 93.1555C64.364 92.2301 68.298 90.8815 70.9478 87.9597C71.2566 87.624 70.8893 87.1221 70.4761 87.244C67.3085 88.1679 64.2931 89.5439 61.1254 90.4947C57.6184 91.5438 54.0099 92.0212 50.3631 92.2276C44.2486 92.5666 36.9486 91.8162 32.8744 86.663C32.8524 86.6355 32.8002 86.6548 32.8134 86.6928Z" fill="#373533"/>
<path d="M48.8743 83.8907C52.9258 86.7406 58.4312 87.6161 63.2806 87.3781C68.3616 87.1271 75.455 85.9651 78.7888 81.6483C79.0108 81.357 78.6933 81.032 78.3861 81.1887C73.6875 83.5988 69.2304 85.297 63.9008 85.7584C58.9553 86.1862 53.3958 86.261 48.9134 83.8334C48.8799 83.8143 48.843 83.8689 48.8743 83.8907Z" fill="#373533"/>
<path d="M64.9774 81.9681C68.3903 83.1198 71.9554 83.435 75.4576 82.499C78.4378 81.7018 82.2935 80.017 83.5618 77.0128C83.6491 76.8068 83.4688 76.5384 83.2294 76.6303C80.5541 77.6655 78.4249 79.6499 75.6869 80.6685C72.2848 81.9363 68.5831 82.4121 64.9886 81.901C64.944 81.8951 64.9345 81.9547 64.9774 81.9681Z" fill="#373533"/>
<path d="M75.4267 75.2011C79.3958 76.4095 83.5473 76.0634 87.1801 74.016C90.178 72.328 93.8965 69.8885 94.7606 66.3243C94.8166 66.0965 94.4955 65.9261 94.3455 66.1157C90.0374 71.5882 82.5708 76.2983 75.4568 75.0687C75.3671 75.052 75.3437 75.1765 75.4267 75.2011Z" fill="#373533"/>
<path d="M82.9762 68.4698C89.2943 68.8332 96.8202 65.3624 98.968 59.0818C99.0952 58.7155 98.5454 58.4794 98.3195 58.7539C94.4017 63.5358 89.4225 67.8911 82.9752 68.4013C82.9265 68.4055 82.9343 68.4661 82.9762 68.4698Z" fill="#373533"/>
<path d="M97.7811 51.5933C97.3478 55.938 94.1397 60.0674 91.5394 63.3596C87.0804 69.0119 81.6407 73.8999 75.8352 78.134C69.0165 83.1084 61.3721 87.1016 53.3461 89.7294C44.315 92.6851 35.1662 93.0642 25.7887 92.17C25.3131 92.1268 25.1518 92.7845 25.6313 92.9074C43.3771 97.3949 62.4724 89.71 76.4494 79.0504C82.3606 74.5401 87.754 69.2347 92.192 63.2584C94.6358 59.9701 97.5519 55.8344 97.8478 51.5998C97.8515 51.5578 97.7852 51.5562 97.7811 51.5933Z" fill="#373533"/>
<path d="M65.832 79.6709C65.832 79.6709 65.282 80.0203 64.3025 80.6131C63.8189 80.9102 63.2114 81.2475 62.5181 81.6389C61.8256 82.04 61.0318 82.4598 60.1567 82.9014C59.2907 83.3643 58.3219 83.7993 57.303 84.278C56.2714 84.7235 55.1906 85.2223 54.0402 85.6536C53.4689 85.8726 52.8835 86.0978 52.2933 86.3234C51.6964 86.5299 51.0899 86.7373 50.4811 86.9474C49.8727 87.1623 49.2464 87.3396 48.6187 87.5293C47.9954 87.7136 47.369 87.9179 46.7312 88.0766C46.0961 88.2375 45.461 88.3984 44.8285 88.5615C44.1912 88.6981 43.5518 88.8373 42.9216 88.9708C42.2927 89.119 41.6626 89.2255 41.0343 89.3246C40.4109 89.4232 39.7945 89.5458 39.1862 89.621C37.9673 89.7742 36.7856 89.9315 35.6594 89.9957C35.0993 90.0349 34.5525 90.0852 34.023 90.1095C33.4949 90.1214 32.984 90.1343 32.4926 90.1454C31.5092 90.1898 30.6083 90.1412 29.8121 90.1129C29.414 90.0987 29.0406 90.0873 28.6991 90.0755C28.3536 90.047 28.0385 90.0214 27.7536 89.9985C26.6131 89.9021 25.9658 89.832 25.9658 89.832C25.9658 89.832 26.6181 89.8117 27.7582 89.7997C28.0432 89.7956 28.3581 89.794 28.7025 89.7901C29.0426 89.7735 29.4156 89.7531 29.813 89.7306C30.6028 89.686 31.4916 89.6524 32.4606 89.5553C32.9468 89.5128 33.4525 89.4686 33.9728 89.4231C34.494 89.3603 35.0298 89.2963 35.5851 89.2305C36.692 89.1141 37.847 88.9028 39.0465 88.7244C39.646 88.6327 40.2488 88.4943 40.8612 88.3819C41.4755 88.262 42.0949 88.1465 42.7168 88.0015C43.3363 87.8591 43.9634 87.7185 44.5905 87.5779C45.2155 87.413 45.8405 87.248 46.4654 87.0831C47.0966 86.9324 47.7141 86.7387 48.333 86.5596C48.9514 86.3757 49.5715 86.2112 50.1754 86.0016C50.7806 85.8065 51.3836 85.6141 51.9768 85.4226C52.5661 85.2142 53.1506 85.0063 53.7236 84.8067C54.2969 84.612 54.851 84.3921 55.3987 84.1849C55.9487 83.9751 56.4854 83.7812 57.0014 83.5744C58.029 83.139 59.0183 82.7707 59.9092 82.3694C60.801 81.9778 61.6259 81.6337 62.3438 81.299C63.0648 80.9713 63.6994 80.6928 64.2085 80.4352C65.2385 79.9433 65.832 79.6709 65.832 79.6709Z" fill="#373533"/>
<path d="M89.1148 58.6631C89.1148 58.6631 89.0999 58.7722 89.0661 58.9736C89.0349 59.1772 89.002 59.474 88.8625 59.839C88.7951 60.0213 88.7431 60.239 88.6487 60.4481C88.5499 60.6625 88.4449 60.8898 88.334 61.1347C88.2262 61.3866 88.0707 61.6256 87.9297 61.8903C87.7812 62.1532 87.6269 62.4337 87.4351 62.7052C87.2534 62.9808 87.0655 63.2692 86.8661 63.5659C86.6535 63.8515 86.4315 64.1429 86.2033 64.447C85.7466 65.0505 85.2315 65.659 84.6827 66.2753C84.123 66.878 83.5517 67.5159 82.9248 68.1073C82.3173 68.7239 81.6551 69.3036 81.0115 69.8989C80.3462 70.4715 79.6726 71.0327 78.9995 71.5718C78.3158 72.1019 77.649 72.6282 76.9722 73.0965C76.3033 73.5715 75.6574 74.0298 75.0188 74.4311C74.3829 74.8346 73.7929 75.2316 73.2205 75.5487C72.6519 75.8827 72.129 76.1783 71.6642 76.437C71.1966 76.6935 70.7757 76.8945 70.4357 77.0688C69.7522 77.4054 69.3574 77.5967 69.3574 77.5967C69.3574 77.5967 69.7123 77.3402 70.332 76.8916C70.6438 76.6757 71.0221 76.4074 71.4536 76.1026C71.8815 75.7859 72.3627 75.4327 72.8933 75.058C73.4266 74.6855 73.9731 74.2384 74.5764 73.7985C75.1802 73.3635 75.7829 72.86 76.4285 72.37C77.0797 71.8892 77.7011 71.3203 78.3711 70.8011C79.0269 70.2611 79.6829 69.6942 80.3313 69.1255C80.9718 68.5501 81.6309 67.9902 82.2352 67.3935C82.8581 66.8123 83.4539 66.231 84.0211 65.6571C84.315 65.3766 84.5675 65.0703 84.8424 64.7964C85.1116 64.5131 85.3768 64.2401 85.6142 63.9572C85.8569 63.6787 86.0955 63.4104 86.3249 63.1478C86.5436 62.8763 86.7536 62.6154 86.9568 62.3625C87.168 62.1162 87.3368 61.8613 87.5121 61.6255C87.6796 61.383 87.8641 61.1684 87.9913 60.9417C88.2685 60.4985 88.5191 60.114 88.6705 59.7725C88.8523 59.443 88.9496 59.1552 89.0135 58.961C89.08 58.769 89.1148 58.6631 89.1148 58.6631Z" fill="#373533"/>
<path d="M89.7553 61.4434C94.67 61.616 100.764 58.3489 101.1 52.9274C101.117 52.6221 100.711 52.6185 100.583 52.8183C99.4559 54.5754 98.5165 56.3823 97.0174 57.8682C95.0851 59.7791 92.4171 61.0096 89.7542 61.3749C89.7082 61.3813 89.7111 61.4423 89.7553 61.4434Z" fill="#373533"/>
<path d="M36.1742 47.977C37.0345 42.9499 40.3317 38.8277 43.5631 35.0603C47.0828 30.9581 51.3792 28.4448 55.983 25.811C56.2477 25.6592 56.0938 25.2192 55.7975 25.2454C50.4661 25.7368 45.7612 30.2367 42.381 34.0234C39.0465 37.7583 36.3709 42.8977 36.1075 47.9706C36.1063 48.0101 36.1698 48.0139 36.1742 47.977Z" fill="#373533"/>
<path d="M47.612 41.0796C48.6913 36.6372 51.6436 33.2755 54.7709 30.092C57.8295 26.9816 61.6783 25.4173 65.0349 22.7868C65.2546 22.6152 65.1456 22.294 64.8706 22.284C60.7505 22.1292 56.7901 25.8482 54.0233 28.4915C50.5985 31.7633 48.0245 36.3075 47.5457 41.0646C47.5421 41.1065 47.6021 41.1209 47.612 41.0796Z" fill="#373533"/>
<path d="M59.2644 35.8323C62.0129 28.1544 69.5225 22.8227 77.527 21.8034C77.7972 21.7687 77.8322 21.4016 77.5648 21.3305C73.4686 20.2091 68.868 22.8456 65.5552 25.0174C62.2682 27.1703 60.0051 32.1016 59.1352 35.787C59.1178 35.8625 59.2384 35.9051 59.2644 35.8323Z" fill="#373533"/>
<path d="M68.0824 33.635C72.1685 28.1339 79.3947 24.5602 86.0833 23.7658C86.5002 23.7146 86.5707 23.1205 86.1406 23.0209C79.1557 21.386 71.2675 27.905 68.0283 33.5942C68.0092 33.6277 68.059 33.665 68.0824 33.635Z" fill="#373533"/>
<path d="M34.0433 42.0397C34.0433 42.0397 33.7271 42.3285 33.1736 42.8373C32.8939 43.0847 32.5525 43.3884 32.161 43.7358C31.7645 44.0698 31.3337 44.4743 30.8698 44.9095C30.4018 45.3459 29.8961 45.8181 29.3531 46.3041C28.8201 46.803 28.2859 47.3595 27.7078 47.9062C27.4227 48.1805 27.13 48.4621 26.8352 48.7464C26.5506 49.0437 26.2637 49.3437 25.9769 49.6436C25.4009 50.2506 24.7902 50.8421 24.2279 51.4741C23.6586 52.1047 23.0891 52.7352 22.5306 53.3524C21.9668 53.9696 21.4553 54.6172 20.9387 55.22C20.4315 55.8352 19.912 56.4039 19.4757 56.993C19.0314 57.5709 18.5991 58.1092 18.199 58.607C17.7903 59.1021 17.4526 59.5802 17.1414 59.9994C16.8304 60.4141 16.556 60.7786 16.332 61.0773C15.8734 61.6701 15.6085 62.011 15.6085 62.011C15.6085 62.011 15.8098 61.6303 16.1593 60.9684C16.3409 60.6387 16.5611 60.2378 16.812 59.7815C17.0683 59.3252 17.3469 58.8021 17.7132 58.2715C18.0626 57.7311 18.4467 57.1433 18.8591 56.5342C19.2574 55.9087 19.7361 55.2921 20.2292 54.6561C20.4775 54.3328 20.7271 54.0107 20.9798 53.6821C21.2316 53.3482 21.4876 53.0178 21.7761 52.7057C22.3364 52.0675 22.9041 51.4221 23.4743 50.7742C24.0523 50.1418 24.6789 49.5502 25.2722 48.9442C25.5717 48.6414 25.8703 48.3467 26.1695 48.0616C26.4797 47.7858 26.7881 47.5129 27.0909 47.2443C27.6943 46.7099 28.2768 46.194 28.849 45.7279C29.4308 45.2655 29.9877 44.8407 30.4998 44.4505C30.7565 44.2558 31.0023 44.0701 31.2359 43.8922C31.4789 43.7266 31.7074 43.5714 31.923 43.4234C32.3584 43.1355 32.7382 42.882 33.0507 42.6756C33.6812 42.272 34.0433 42.0397 34.0433 42.0397Z" fill="#373533"/>
<path d="M88.6421 28.9044C88.6421 28.9044 88.452 28.8035 88.0974 28.614C87.7409 28.4321 87.2334 28.1188 86.5325 27.8641C86.1825 27.7281 85.8079 27.5625 85.3855 27.4108C84.9533 27.2869 84.4906 27.151 83.9904 27.0061C83.4983 26.8409 82.9479 26.7666 82.3791 26.6498C81.8088 26.5407 81.2138 26.4063 80.5779 26.3549C79.9421 26.2944 79.2889 26.1879 78.6034 26.1533C77.9174 26.1273 77.2082 26.1 76.4788 26.0736C75.7502 26.057 74.9997 26.1166 74.2358 26.1334C73.8514 26.1577 73.4647 26.1487 73.0772 26.1885C72.6867 26.2302 72.2951 26.2711 71.8984 26.3122C71.1095 26.4072 70.2982 26.4382 69.4941 26.6061C68.6868 26.7441 67.8696 26.883 67.0441 27.0238C66.2252 27.1836 65.4087 27.3996 64.5812 27.5883L63.3433 27.8787C62.9333 27.9897 62.529 28.1236 62.1197 28.2442C61.3056 28.4847 60.4893 28.7278 59.6782 28.9663C58.8716 29.2312 58.0837 29.5387 57.2948 29.8184C56.9009 29.9609 56.5077 30.1041 56.1181 30.2458C55.7243 30.3794 55.3376 30.5235 54.9595 30.6928C54.2021 31.0123 53.4555 31.3275 52.7173 31.6408C51.2297 32.2308 49.8578 32.9449 48.5284 33.5729C47.8719 33.8962 47.2184 34.1858 46.6086 34.5121C46.0008 34.8402 45.4124 35.1574 44.848 35.4633C44.2835 35.7645 43.7407 36.057 43.2272 36.3334C42.7105 36.6072 42.2129 36.8566 41.7705 37.1341C40.8716 37.6684 40.0889 38.1335 39.444 38.516C38.1472 39.2706 37.4062 39.7031 37.4062 39.7031C37.4062 39.7031 38.1008 39.2046 39.335 38.3479C39.9548 37.9218 40.7066 37.4038 41.5692 36.8075C42.4289 36.2088 43.4551 35.6236 44.5565 34.9484C45.1094 34.6149 45.6839 34.2679 46.2801 33.9076C46.8794 33.5499 47.529 33.239 48.1791 32.8879C49.4965 32.2092 50.8537 31.4332 52.3499 30.8098C53.0885 30.4789 53.8382 30.1439 54.5983 29.804C55.3485 29.4468 56.1578 29.1932 56.9501 28.8848C57.7489 28.5954 58.5467 28.2782 59.3599 28.0055C60.184 27.7553 61.0123 27.5042 61.8399 27.2525C62.2554 27.1326 62.6661 27.004 63.0844 26.891L64.3468 26.6032C65.1888 26.4176 66.0213 26.2061 66.858 26.0476C68.5406 25.7789 70.194 25.4992 71.8214 25.4095C72.2244 25.3782 72.6252 25.3451 73.0227 25.3137C73.4196 25.2773 73.8165 25.2994 74.2089 25.2908C74.9911 25.2983 75.7556 25.264 76.4994 25.307C77.2427 25.363 77.9647 25.4191 78.6644 25.4701C79.3604 25.5405 80.0263 25.6802 80.6672 25.7765C81.3128 25.8587 81.9162 26.0181 82.489 26.1698C83.059 26.3282 83.6101 26.4392 84.0982 26.6415C84.5965 26.8208 85.0573 26.9912 85.4849 27.1473C85.905 27.3286 86.28 27.5261 86.6223 27.6872C87.3173 27.9865 87.781 28.3575 88.1276 28.5673C88.4627 28.7854 88.6421 28.9044 88.6421 28.9044Z" fill="#373533"/>
<path d="M54.7642 35.759C54.7642 35.759 54.222 36.0024 53.265 36.4069C52.7851 36.6034 52.2056 36.8516 51.5509 37.1492C50.8931 37.4488 50.1472 37.769 49.3453 38.1459C48.5424 38.5175 47.6707 38.9169 46.7609 39.3654C45.8433 39.7985 44.8968 40.2929 43.914 40.7973C42.9231 41.2904 41.9427 41.8735 40.9233 42.4193C39.9248 43.0096 38.898 43.5809 37.9197 44.2287C36.9099 44.8366 35.9538 45.5121 34.9977 46.1651C34.5359 46.5076 34.0745 46.8503 33.6215 47.1866C33.3933 47.3555 33.1686 47.5229 32.9447 47.6909C32.7303 47.867 32.5167 48.0437 32.3056 48.218C31.8838 48.5714 31.4587 48.904 31.0627 49.2566C30.6705 49.6124 30.2896 49.9595 29.9164 50.2996C29.5329 50.6266 29.2168 51.0012 28.8788 51.3348C28.5554 51.6762 28.2127 51.9879 27.9341 52.3263C27.6503 52.6603 27.3764 52.9846 27.118 53.2904C26.9864 53.4413 26.8578 53.5903 26.7337 53.7339C26.6209 53.8871 26.5136 54.0359 26.4075 54.1811C26.1966 54.4727 25.9989 54.7438 25.8178 54.9929C25.6273 55.243 25.4663 55.4774 25.3445 55.7041C24.8159 56.5896 24.4965 57.0965 24.4965 57.0965C24.4965 57.0965 24.7302 56.5538 25.1684 55.6058C25.2714 55.3633 25.411 55.1111 25.5755 54.8436C25.7349 54.5719 25.9068 54.2791 26.091 53.9651C26.1836 53.8085 26.2796 53.6458 26.3768 53.4795C26.4886 53.321 26.6051 53.1575 26.7203 52.9928C26.9626 52.66 27.2139 52.3122 27.4785 51.9485C27.7402 51.5824 28.0622 51.2443 28.3721 50.8691C28.6909 50.5058 29.0023 50.1094 29.374 49.7545C29.7376 49.3882 30.1112 49.0123 30.4914 48.6285C30.8726 48.2455 31.3045 47.9006 31.7217 47.5253C31.9312 47.3406 32.1439 47.1542 32.3589 46.9651C32.5819 46.7873 32.8061 46.6104 33.0313 46.43C33.4861 46.0727 33.9423 45.7031 34.4167 45.3578C35.3822 44.6856 36.3497 43.9836 37.3707 43.358C38.3725 42.7118 39.4202 42.1402 40.4379 41.5524C40.9519 41.2674 41.4745 41.0075 41.9831 40.745C42.4942 40.48 43.0017 40.2211 43.5086 39.9886C44.0142 39.7505 44.5114 39.5189 44.9968 39.291C45.487 39.0714 45.9744 38.8723 46.4428 38.6706C47.379 38.2577 48.2849 37.9185 49.121 37.6019C49.9467 37.2719 50.7283 37.0266 51.4155 36.7923C52.1009 36.5565 52.702 36.3669 53.1982 36.2201C54.1922 35.9188 54.7642 35.759 54.7642 35.759Z" fill="#373533"/>
<path d="M85.4816 31.646C85.4816 31.646 85.4627 31.6256 85.423 31.5923C85.3811 31.5617 85.3336 31.4948 85.2459 31.4437C85.0779 31.3432 84.8175 31.2239 84.455 31.1405C83.7424 30.9481 82.679 30.8622 81.4055 30.8389C80.7701 30.8284 80.0754 30.8402 79.3448 30.8624C78.6165 30.882 77.8439 30.9411 77.0492 30.9861C75.4568 31.1097 73.7608 31.2726 72.0729 31.5052C71.2282 31.6164 70.3843 31.7373 69.5577 31.8772C68.7318 32.0222 67.9164 32.1445 67.1327 32.3069C65.5658 32.6096 64.1104 32.9427 62.8725 33.2646C62.2553 33.4316 61.6868 33.5808 61.1882 33.7346C60.6876 33.8823 60.2563 34.0205 59.8972 34.1381C59.185 34.3785 58.7773 34.5186 58.7773 34.5186C58.7773 34.5186 58.8705 34.4661 59.0472 34.3666C59.226 34.2733 59.4794 34.112 59.82 33.9472C60.4901 33.6039 61.4752 33.151 62.6945 32.7008C63.304 32.4733 63.969 32.2473 64.6821 32.0347C65.3934 31.8206 66.1496 31.6036 66.9405 31.4202C67.7305 31.2315 68.5482 31.0437 69.3879 30.8967C70.2255 30.7435 71.0795 30.6086 71.9375 30.486C72.7969 30.3826 73.6573 30.2845 74.5056 30.2169C75.3558 30.1374 76.1931 30.1146 77.0042 30.0834C78.6288 30.0453 80.1499 30.0962 81.4447 30.25C82.7389 30.3989 83.8133 30.6381 84.5211 30.9436C84.8786 31.0814 85.1302 31.2701 85.2866 31.4058C85.3633 31.4701 85.3993 31.5454 85.4345 31.584C85.4649 31.623 85.4816 31.646 85.4816 31.646Z" fill="#373533"/>
<path d="M79.0525 29.7057C80.8739 27.9496 82.9881 26.9978 85.3996 26.3361C87.7439 25.69 90.1151 26.2469 92.4666 26.4674C92.7012 26.4885 92.9599 26.1695 92.7046 25.9958C88.2191 22.9169 81.9133 25.6815 79.0009 29.6625C78.9739 29.6984 79.0205 29.7374 79.0525 29.7057Z" fill="#373533"/>
</svg>
