<?xml version="1.0" encoding="UTF-8"?>
<svg xmlns="http://www.w3.org/2000/svg" viewBox="0 0 200 200">
  <defs>
    <radialGradient id="grad-philosophy" cx="50%" cy="40%" r="75%">
      <stop offset="0%" stop-color="#EDE7D8" stop-opacity="0.95"/>
      <stop offset="60%" stop-color="#CBB9A4" stop-opacity="0.7"/>
      <stop offset="100%" stop-color="#A48D78" stop-opacity="0.45"/>
    </radialGradient>
  </defs>
  <path fill="url(#grad-philosophy)"
    d="M45.1,-49.4C56.1,-44.6,60.8,-28.1,62.8,-11.8C64.9,4.6,64.3,20.7,58.8,37.5C53.3,54.4,43,72,29.3,74.3C15.6,76.6,-1.3,63.4,-18.2,55.1C-35.1,46.7,-51.8,43.1,-60.6,32.7C-69.5,22.2,-70.5,4.8,-68.1,-12.5C-65.6,-29.8,-59.8,-47.1,-47.9,-51.7C-36,-56.3,-18,-48.3,-0.4,-47.8C17.1,-47.3,34.2,-54.2,45.1,-49.4Z"
    transform="translate(100 100)" />
</svg>
