<svg width="113" height="98" viewBox="0 0 113 98" fill="none" xmlns="http://www.w3.org/2000/svg">
<path d="M93.6236 76.6866C86.2815 88.9373 70.3602 88.8648 58.5989 84.0331C53.2026 81.8155 47.9977 79.1425 42.9834 76.1678C27.1958 66.8075 10.9937 52.0771 13.8201 31.9096C13.8836 31.4626 13.2322 31.4055 13.141 31.8277C8.64908 52.3329 26.6271 68.3194 42.5144 77.7086C57.1413 86.3527 82.4725 97.2327 93.3568 77.5408C93.4981 77.2837 93.6264 77.0219 93.743 76.7521C93.7754 76.6831 93.6658 76.6212 93.6236 76.6866Z" fill="#373533"/>
<path d="M19.0357 16.4281C22.9506 18.0741 24.056 22.9886 27.1838 25.6164C29.091 27.2184 32.0355 27.1813 33.6524 25.3222C33.3291 25.2416 33.0062 25.1601 32.6833 25.0785C32.9952 27.9552 31.5404 30.4084 30.9967 33.1231C30.9043 33.5787 31.5394 33.7713 31.7932 33.4373C33.6173 31.0395 33.4143 27.9039 33.7562 25.0673C33.8138 24.5861 33.2581 24.3064 32.883 24.5801C28.9676 27.4563 26.0083 22.7108 24.1537 19.915C22.9344 18.0781 21.2431 16.7408 19.0687 16.2968C18.9905 16.2798 18.9689 16.3997 19.0357 16.4281Z" fill="#373533"/>
<path d="M32.2893 31.4816C34.415 31.0804 36.8594 30.6614 38.5934 32.3657C39.232 32.9926 39.5842 34.0736 40.0872 34.8308C40.8081 35.918 41.5991 36.8428 42.5349 37.7531C45.5178 40.658 49.6829 42.7466 53.2587 44.8296C54.9948 45.842 56.7669 46.7959 58.5494 47.7312C59.3018 48.1262 60.6684 48.4987 60.9619 49.4283C61.2373 50.2962 61.6602 51.1626 62.1303 51.9398C63.8645 54.8041 66.1672 57.2766 69.4949 58.0838C69.8496 58.1688 69.9825 57.6626 69.7378 57.467C67.9932 56.1048 66.2072 54.8157 64.7555 53.123C64.0572 52.3068 63.5317 51.359 63.0445 50.4067C62.6644 49.655 62.5611 48.4553 62.0558 47.8152C61.0779 46.5766 58.123 45.6635 56.7846 44.9108C54.5322 43.6418 52.3295 42.2866 50.165 40.8773C48.2705 39.6442 46.4056 38.3598 44.6313 36.968C43.4222 36.0215 42.3607 34.9924 41.429 33.7681C40.8212 32.9658 40.4237 31.9488 39.6438 31.276C37.2545 29.2126 34.825 29.954 32.2158 31.2194C32.0815 31.2855 32.1315 31.5116 32.2893 31.4816Z" fill="#373533"/>
<path d="M69.3659 60.5048C72.0957 62.1779 74.5534 64.3359 76.4693 66.9027C77.9882 68.9357 78.8517 71.215 81.4036 72.085C83.5023 72.7975 86.0673 72.1481 88.2333 72.3929C91.0961 72.7113 93.175 74.7497 95.8623 75.2173C96.0937 75.2575 96.2734 74.996 96.1829 74.7905C94.5145 70.9988 87.9753 70.569 84.4686 70.7177C82.0966 70.8167 80.6366 70.267 79.2584 68.1603C78.4148 66.8652 77.6005 65.702 76.5239 64.583C74.5141 62.4962 72.1706 61.2355 69.4315 60.3854C69.3622 60.3639 69.2972 60.4615 69.3659 60.5048Z" fill="#373533"/>
<path d="M21.2777 16.2222C22.3278 17.6258 23.6518 18.0751 25.3552 18.2286C26.5218 18.3333 27.7531 18.0281 28.8858 17.7819C29.4481 17.6597 35.9359 16.9593 34.8499 18.9341C32.9891 22.3312 37.6623 26.2832 39.8359 28.0414C43.6493 31.1266 48.2414 33.2027 52.5827 35.4127C57.6123 37.9721 61.8852 40.8646 65.8071 44.9332C66.0047 45.137 66.4424 44.9437 66.2748 44.6572C61.5201 36.5696 50.8859 33.4751 43.5043 28.4371C41.4184 27.0134 39.4899 25.3489 37.8723 23.4055C36.8252 22.1451 36.0186 20.6376 36.8037 19.0253C37.0622 18.4968 36.5186 17.9115 36.2694 17.5266C35.4849 16.3114 33.4277 15.7577 32.0848 15.8243C28.6131 15.9982 24.4411 19.1256 21.3859 16.1367C21.3232 16.0768 21.2233 16.1495 21.2777 16.2222Z" fill="#373533"/>
<path d="M19.4821 13.7493C36.1869 1.38595 57.0129 12.464 71.3969 22.8756C79.501 28.7437 87.1881 35.5156 92.5533 44.0451C95.0915 48.0809 96.9141 52.5792 98.0006 57.2128C99.0508 61.684 98.8876 66.1588 98.615 70.7021C98.6002 70.9245 98.9378 71.0363 99.0086 70.8013C101.623 62.246 98.6137 52.3699 94.5048 44.7785C89.3488 35.2403 81.0033 27.8757 72.2979 21.6514C57.5365 11.0962 35.9726 0.218949 19.3962 13.642C19.3282 13.6977 19.4117 13.8012 19.4821 13.7493Z" fill="#373533"/>
<path d="M18.4265 16.6294C13.6753 23.9817 11.6531 32.8474 12.8436 41.5447C13.9588 49.682 19.0785 58.3916 25.719 63.2254C26.2125 63.5849 26.7232 62.9591 26.4225 62.4934C22.1704 55.8404 17.4069 49.2805 14.99 41.6721C12.4388 33.6255 14.6925 23.9318 18.4877 16.6631C18.5043 16.6276 18.4492 16.5973 18.4265 16.6294Z" fill="#373533"/>
<path d="M21.5843 35.0075C16.6831 39.2802 17.9465 46.9903 19.5849 52.4789C20.7485 56.366 22.7676 59.9914 25.0212 63.346C27.1719 66.5492 29.7847 69.7847 33.4365 71.2755C33.8576 71.4508 34.2036 70.934 33.9478 70.5874C31.9962 67.9268 29.6719 65.5639 27.6949 62.9124C25.5096 59.9757 23.8269 56.7482 22.3856 53.3918C19.9758 47.762 18.1842 40.6456 21.6332 35.0547C21.6515 35.0246 21.6155 34.9821 21.5843 35.0075Z" fill="#373533"/>
<path d="M29.7098 49.1416C28.4175 53.9234 29.4777 59.3963 31.36 63.8718C33.3337 68.5605 36.8517 74.8288 42.0483 76.4851C42.398 76.594 42.5948 76.1845 42.3425 75.9494C38.4707 72.3585 35.3505 68.7511 33.0941 63.9006C31.0007 59.3997 29.0289 54.2011 29.777 49.1587C29.7835 49.1207 29.7196 49.1047 29.7098 49.1416Z" fill="#373533"/>
<path d="M37.0246 63.6161C37.1097 67.2171 38.0328 70.6751 40.1102 73.6459C41.8786 76.1738 44.7805 79.2207 48.0373 79.385C48.2608 79.3966 48.4513 79.1353 48.283 78.9419C46.3953 76.782 43.8023 75.4599 41.9087 73.2354C39.5538 70.472 37.8407 67.1563 37.0915 63.6038C37.0818 63.5598 37.0226 63.5713 37.0246 63.6161Z" fill="#373533"/>
<path d="M46.9577 71.1216C47.1797 75.2646 48.9248 79.0474 52.0912 81.7609C54.7028 84.0006 58.267 86.6605 61.9118 86.2535C62.145 86.2282 62.1953 85.8682 61.9659 85.7921C55.3499 83.6154 48.3701 78.2101 47.0924 71.1045C47.0774 71.0146 46.9524 71.0352 46.9577 71.1216Z" fill="#373533"/>
<path d="M55.8651 75.9127C57.6845 81.9741 63.52 87.8591 70.1564 87.7292C70.5442 87.7234 70.578 87.1261 70.2427 87.0077C64.4093 84.9616 58.6137 81.7723 55.9291 75.8883C55.9085 75.844 55.8542 75.872 55.8651 75.9127Z" fill="#373533"/>
<path d="M76.7869 84.053C72.5561 85.1318 67.5786 83.5295 63.5955 82.212C56.759 79.9551 50.3053 76.5153 44.3409 72.508C37.3344 67.8019 30.9675 61.9842 25.7531 55.341C19.8868 47.8655 16.4016 39.3981 14.0346 30.2803C13.9124 29.8186 13.2393 29.892 13.2877 30.3846C15.1403 48.595 28.8928 63.9103 43.6899 73.3986C49.95 77.4107 56.78 80.6643 63.9138 82.7906C67.8397 83.9624 72.7232 85.2882 76.8037 84.1178C76.8444 84.107 76.8232 84.0441 76.7869 84.053Z" fill="#373533"/>
<path d="M39.4754 63.6341C39.4754 63.6341 38.9589 63.2368 38.0668 62.5191C37.6223 62.1663 37.0975 61.7108 36.4926 61.1931C35.8788 60.6796 35.2129 60.0773 34.4986 59.406C33.7675 58.7505 33.0273 57.989 32.229 57.1952C31.4576 56.3782 30.6192 55.5331 29.8204 54.5996C29.4192 54.1377 29.0074 53.6646 28.5936 53.1871C28.1953 52.6969 27.793 52.1979 27.3874 51.6977C26.9774 51.1995 26.5965 50.6716 26.2036 50.1466C25.8172 49.624 25.411 49.1052 25.0438 48.5601C24.6754 48.0184 24.3069 47.4765 23.9373 46.938C23.591 46.3859 23.2415 45.8326 22.9005 45.2861C22.5462 44.7458 22.2305 44.1902 21.9226 43.6337C21.6166 43.0816 21.2907 42.5443 21.0119 41.9984C20.4511 40.9054 19.8991 39.8487 19.4535 38.8124C19.2252 38.2996 18.9909 37.8029 18.787 37.3137C18.5952 36.8215 18.4084 36.3458 18.2298 35.8878C17.8518 34.9789 17.5893 34.1157 17.3436 33.3578C17.2207 32.9789 17.1038 32.6241 16.998 32.2992C16.9067 31.9647 16.823 31.6599 16.747 31.3843C16.4475 30.2796 16.292 29.6475 16.292 29.6475C16.292 29.6475 16.5342 30.2535 16.9354 31.3207C17.0368 31.5871 17.146 31.8825 17.2674 32.2047C17.3993 32.5186 17.546 32.8622 17.7031 33.2279C18.0151 33.9549 18.3507 34.7785 18.7733 35.6559C18.9796 36.0983 19.1941 36.5583 19.4148 37.0317C19.6521 37.5 19.8955 37.9816 20.1472 38.4809C20.6352 39.4812 21.2288 40.4943 21.8067 41.5604C22.0979 42.0924 22.4342 42.6115 22.7492 43.1486C23.0719 43.6848 23.3923 44.2274 23.7413 44.7621C24.087 45.2956 24.4336 45.8368 24.7802 46.378C25.149 46.9089 25.5177 47.4397 25.8864 47.9706C26.2439 48.5121 26.6371 49.0262 27.0171 49.5465C27.4014 50.0647 27.7681 50.5912 28.1716 51.087C28.5619 51.5889 28.9489 52.0897 29.3318 52.5817C29.7292 53.0642 30.1244 53.5423 30.5079 54.0124C30.887 54.4846 31.2832 54.93 31.6652 55.3739C32.0505 55.819 32.4163 56.257 32.7871 56.6711C33.5476 57.4878 34.2321 58.2915 34.9139 58.9915C35.5869 59.6955 36.1923 60.353 36.7524 60.9131C37.3069 61.4786 37.7857 61.9797 38.2019 62.3699C39.0164 63.1695 39.4754 63.6341 39.4754 63.6341Z" fill="#373533"/>
<path d="M67.18 78.3275C67.18 78.3275 67.0724 78.3508 66.8716 78.3879C66.6696 78.4282 66.3794 78.4989 65.9887 78.4926C65.7944 78.4917 65.5721 78.5172 65.3433 78.5C65.108 78.4805 64.8585 78.4595 64.5905 78.4391C64.3168 78.424 64.0391 78.3596 63.7421 78.3177C63.4443 78.268 63.128 78.219 62.8072 78.1316C62.4861 78.0551 62.1508 77.9772 61.8038 77.8913C61.4627 77.7891 61.113 77.6802 60.7491 77.5698C60.0259 77.347 59.2779 77.0711 58.511 76.7663C57.7533 76.4464 56.9584 76.1277 56.1883 75.7409C55.4011 75.3809 54.6299 74.957 53.8503 74.5557C53.0847 74.1264 52.327 73.6854 51.5902 73.2373C50.8582 72.7762 50.1356 72.3295 49.464 71.8537C48.7889 71.3876 48.1374 70.9374 47.5419 70.4746C46.9452 70.015 46.3703 69.5964 45.8765 69.1669C45.3683 68.7469 44.9116 68.3567 44.5095 68.0083C44.1086 67.6567 43.7758 67.3298 43.4957 67.07C42.9457 66.5429 42.6309 66.2373 42.6309 66.2373C42.6309 66.2373 42.9932 66.483 43.6267 66.912C43.9363 67.1311 44.3178 67.3949 44.7517 67.6961C45.1957 67.9899 45.6922 68.3212 46.2258 68.6917C46.7582 69.0654 47.3653 69.426 47.985 69.8425C48.6002 70.2611 49.2795 70.6553 49.9608 71.0943C50.6353 71.5418 51.3824 71.9312 52.0994 72.3831C52.8312 72.8148 53.5883 73.2373 54.3445 73.6521C55.1043 74.0572 55.8558 74.485 56.6232 74.8488C57.3824 75.2353 58.1324 75.5964 58.8657 75.9331C59.2298 76.1133 59.604 76.2458 59.9554 76.4105C60.3136 76.5666 60.6609 76.7224 61.008 76.8487C61.3526 76.9815 61.6864 77.114 62.0116 77.2397C62.3415 77.3524 62.6585 77.4604 62.9657 77.5649C63.2694 77.6791 63.5666 77.7506 63.8482 77.8347C64.1333 77.9091 64.3981 78.0091 64.6546 78.0511C65.1659 78.16 65.6128 78.2639 65.9856 78.2894C66.3574 78.3476 66.6611 78.3406 66.8654 78.3342C67.0686 78.331 67.18 78.3275 67.18 78.3275Z" fill="#373533"/>
<path d="M64.7858 79.8796C66.3045 84.557 71.4587 89.1656 76.6684 87.6276C76.9612 87.5395 76.8254 87.1559 76.5942 87.1048C74.5574 86.6462 72.5382 86.3814 70.6292 85.4809C68.1726 84.3187 66.1038 82.2325 64.8499 79.8552C64.828 79.8142 64.7717 79.8377 64.7858 79.8796Z" fill="#373533"/>
<path d="M59.1145 24.9255C64.1327 24.0146 69.134 25.7031 73.7793 27.4511C78.8379 29.3555 82.6692 32.5331 86.7187 35.9585C86.9519 36.1554 87.3127 35.8602 87.1868 35.5907C84.9015 30.7489 79.0639 27.8668 74.3494 25.9856C69.6993 24.1297 63.9547 23.3732 59.0977 24.8607C59.0601 24.8731 59.0783 24.934 59.1145 24.9255Z" fill="#373533"/>
<path d="M69.5072 33.3135C74.0508 32.8083 78.2196 34.4329 82.2806 36.2827C86.2496 38.0931 89.0359 41.1747 92.6558 43.4292C92.8922 43.5769 93.1568 43.3647 93.0721 43.1029C91.8083 39.1783 86.9592 36.7287 83.5289 35.0328C79.2831 32.9336 74.1326 32.069 69.4987 33.2461C69.458 33.257 69.4651 33.3184 69.5072 33.3135Z" fill="#373533"/>
<path d="M78.4247 42.4682C86.5796 42.4249 94.1582 47.6581 97.8537 54.8313C97.9787 55.0733 98.3356 54.9806 98.3111 54.7051C97.9638 50.4724 93.9128 47.0509 90.7389 44.6807C87.5917 42.3283 82.1838 41.8883 78.4231 42.3314C78.3462 42.3408 78.3474 42.4687 78.4247 42.4682Z" fill="#373533"/>
<path d="M83.5051 50.004C90.072 51.9622 95.9017 57.5303 98.9358 63.5438C99.1265 63.9181 99.7089 63.7811 99.6553 63.3429C98.8027 56.2201 89.9789 51.0373 83.525 49.9392C83.4869 49.9327 83.4689 49.9923 83.5051 50.004Z" fill="#373533"/>
<path d="M63.9652 20.8911C63.9652 20.8911 63.5856 20.6927 62.9182 20.3466C62.5901 20.1684 62.1879 19.9515 61.7276 19.7024C61.2781 19.4441 60.7507 19.1775 60.183 18.8905C59.6129 18.6 58.9962 18.2863 58.3538 17.9423C57.7027 17.612 56.997 17.3004 56.2856 16.9442C55.9303 16.77 55.5656 16.5914 55.1976 16.4115C54.8209 16.2458 54.4409 16.0788 54.0609 15.9119C53.2935 15.5782 52.5289 15.2066 51.7427 14.8944C50.9554 14.5751 50.1682 14.2556 49.3972 13.9419C48.6243 13.6231 47.8408 13.364 47.0977 13.0847C46.3462 12.8185 45.634 12.5248 44.9312 12.3164C44.2363 12.0965 43.5826 11.8744 42.978 11.6687C42.3729 11.454 41.8082 11.3002 41.3078 11.1511C40.8117 11.0006 40.3753 10.8675 40.0181 10.7592C39.3042 10.5309 38.8932 10.3986 38.8932 10.3986C38.8932 10.3986 39.3198 10.4576 40.0613 10.5597C40.4332 10.6176 40.8853 10.6873 41.3999 10.767C41.9163 10.8518 42.5032 10.9346 43.1271 11.0974C43.7544 11.2409 44.4381 11.4009 45.1515 11.5801C45.8755 11.7404 46.6186 11.9793 47.3849 12.2251C47.7736 12.3479 48.1617 12.4723 48.5569 12.5974C48.9568 12.7198 49.3548 12.8474 49.7468 13.0117C50.5381 13.3199 51.3388 13.6327 52.1427 13.9469C52.9346 14.2737 53.7048 14.6602 54.4772 15.0104C54.8642 15.1883 55.2432 15.3681 55.6134 15.5517C55.9787 15.749 56.3406 15.9453 56.6966 16.1381C57.4051 16.5223 58.0892 16.8932 58.7228 17.2715C59.3564 17.66 59.946 18.0381 60.4879 18.3859C60.7586 18.5604 61.0171 18.728 61.2642 18.8866C61.5029 19.0583 61.7269 19.2199 61.9397 19.372C62.3592 19.6826 62.7273 19.9528 63.0281 20.1758C63.623 20.6303 63.9652 20.8911 63.9652 20.8911Z" fill="#373533"/>
<path d="M94.9817 67.7056C94.9817 67.7056 95.0115 67.4924 95.0683 67.0943C95.1173 66.6971 95.2381 66.113 95.2377 65.3673C95.2458 64.9919 95.2734 64.5832 95.2714 64.1344C95.24 63.6859 95.2095 63.2047 95.1746 62.6851C95.1614 62.1661 95.043 61.6235 94.9583 61.0491C94.8657 60.4759 94.7885 59.8708 94.6194 59.2557C94.4587 58.6375 94.3354 57.9873 94.1335 57.3313C93.9232 56.6777 93.7064 56.002 93.4817 55.3075C93.2481 54.6172 92.9354 53.9323 92.6584 53.2203C92.504 52.8673 92.3803 52.5009 92.2104 52.1504C92.0376 51.7977 91.8652 51.4437 91.6909 51.085C91.3319 50.3762 91.0252 49.6244 90.5924 48.9262C90.1866 48.2147 89.7767 47.4944 89.362 46.7668C88.9317 46.0519 88.4495 45.3585 87.9891 44.6456L87.2929 43.5816C87.0483 43.2343 86.7842 42.9002 86.5309 42.5568C86.0265 41.874 85.5188 41.1901 85.0173 40.5095C84.4926 39.8422 83.9341 39.207 83.4014 38.5613C83.1328 38.2399 82.8637 37.9194 82.5974 37.6017C82.3371 37.2774 82.0695 36.9633 81.7811 36.6659C81.2217 36.0634 80.6702 35.4697 80.1234 34.8831C79.0602 33.687 77.9199 32.6421 76.875 31.6077C76.3468 31.1014 75.8511 30.5863 75.3359 30.1248C74.8197 29.6659 74.3204 29.2216 73.8399 28.7958C73.3638 28.3684 72.9033 27.9583 72.4679 27.5703C72.0339 27.1784 71.6294 26.7961 71.2173 26.4753C70.4078 25.8134 69.703 25.237 69.123 24.7618C67.9704 23.8013 67.3105 23.2529 67.3105 23.2529C67.3105 23.2529 68.0166 23.735 69.2437 24.6019C69.856 25.0385 70.6 25.5678 71.4554 26.1745C72.312 26.7775 73.2128 27.5418 74.2241 28.3458C74.7266 28.7513 75.2491 29.1725 75.7916 29.6094C76.3327 30.0502 76.847 30.5544 77.3993 31.0452C78.4877 32.051 79.6811 33.0609 80.7785 34.2537C81.3421 34.8346 81.9134 35.4245 82.4927 36.0224C83.0849 36.6053 83.6 37.279 84.1608 37.918C84.7059 38.5697 85.2769 39.2109 85.8114 39.8818C86.3283 40.5706 86.8476 41.2631 87.3671 41.9547C87.6219 42.3042 87.8831 42.646 88.1324 43.0005L88.8347 44.0884C89.2971 44.816 89.7806 45.526 90.2156 46.2581C91.0436 47.7473 91.8719 49.2053 92.5128 50.7039C92.6801 51.0719 92.8483 51.4372 93.0137 51.8C93.1837 52.1605 93.2986 52.541 93.4409 52.9068C93.7014 53.6444 93.9951 54.3511 94.2091 55.0647C94.4107 55.7823 94.6049 56.48 94.7963 57.1549C94.9682 57.8331 95.0647 58.5065 95.1934 59.1418C95.337 59.7766 95.3936 60.398 95.4469 60.9882C95.493 61.578 95.5772 62.1338 95.5541 62.6616C95.556 63.1912 95.5535 63.6825 95.553 64.1378C95.5264 64.5945 95.469 65.0144 95.4347 65.3912C95.3911 66.1467 95.2011 66.7092 95.1225 67.1067C95.0322 67.4962 94.9817 67.7056 94.9817 67.7056Z" fill="#373533"/>
<path d="M76.9537 38.2145C76.9537 38.2145 76.5395 37.7883 75.8322 37.0272C75.4834 36.6435 75.052 36.1839 74.5484 35.6704C74.0419 35.1548 73.4858 34.5634 72.8574 33.9388C72.2336 33.3114 71.5602 32.6288 70.8275 31.9273C70.1068 31.2132 69.3185 30.4929 68.5083 29.7418C67.706 28.9793 66.8228 28.2575 65.9612 27.4863C65.065 26.7498 64.1771 25.9804 63.2337 25.2826C62.317 24.5416 61.3552 23.8742 60.4146 23.1991C59.9349 22.8824 59.455 22.5659 58.9841 22.2553C58.7473 22.0986 58.5132 21.9447 58.2787 21.7918C58.0399 21.6505 57.8008 21.5103 57.5649 21.3715C57.0885 21.096 56.6305 20.8103 56.1638 20.5589C55.6953 20.312 55.2388 20.0727 54.7916 19.8383C54.3531 19.5899 53.8931 19.4209 53.464 19.2174C53.0326 19.0303 52.6224 18.8149 52.2091 18.6688C51.7982 18.5163 51.3998 18.3699 51.024 18.2316C50.8372 18.1596 50.6533 18.0897 50.4758 18.0222C50.2933 17.9686 50.1168 17.9187 49.9441 17.8687C49.5979 17.7702 49.2755 17.6771 48.9796 17.5922C48.6793 17.4987 48.4041 17.4275 48.1494 17.3907C47.1364 17.1968 46.5508 17.07 46.5508 17.07C46.5508 17.07 47.1408 17.104 48.1815 17.1915C48.4445 17.2054 48.7294 17.2503 49.037 17.3134C49.3468 17.3703 49.6808 17.4316 50.0388 17.4973C50.2176 17.5308 50.4034 17.5653 50.5929 17.5998C50.78 17.6506 50.9736 17.7042 51.1677 17.7561C51.5633 17.87 51.9761 17.9872 52.4083 18.1114C52.8419 18.2321 53.2697 18.4191 53.7283 18.582C54.1787 18.7573 54.6577 18.9144 55.1184 19.1423C55.5869 19.3587 56.0679 19.5811 56.5586 19.8071C57.0488 20.0344 57.5207 20.3222 58.0161 20.5859C58.2613 20.7196 58.5092 20.8557 58.7604 20.9931C59.0037 21.1419 59.2466 21.292 59.4932 21.442C59.9845 21.7471 60.4878 22.0493 60.9746 22.3771C61.9364 23.0544 62.927 23.7235 63.8641 24.4689C64.8139 25.1893 65.7094 25.9784 66.6098 26.7336C67.0535 27.1191 67.4764 27.5213 67.8971 27.9095C68.3208 28.2992 68.7378 28.6875 69.1296 29.0843C69.5262 29.478 69.914 29.8659 70.2942 30.2442C70.6681 30.6297 71.022 31.0196 71.3717 31.3908C72.0799 32.1293 72.7084 32.8646 73.292 33.5419C73.8844 34.2049 74.3822 34.8555 74.8374 35.4212C75.2935 35.9846 75.6771 36.4845 75.9848 36.9006C76.6079 37.7316 76.9537 38.2145 76.9537 38.2145Z" fill="#373533"/>
<path d="M91.3249 65.6728C91.3249 65.6728 91.3376 65.6481 91.3553 65.5994C91.3698 65.5496 91.4164 65.4821 91.4344 65.3821C91.4713 65.1899 91.4944 64.9045 91.4488 64.5353C91.3859 63.7998 91.1029 62.7712 90.6892 61.5666C90.4818 60.9658 90.2331 60.317 89.9623 59.6382C89.6948 58.9605 89.3751 58.2546 89.061 57.5232C88.4002 56.0692 87.6671 54.5312 86.8711 53.0247C86.4778 52.2689 86.0755 51.5172 85.6613 50.7883C85.2426 50.0619 84.8488 49.3375 84.4282 48.6566C83.6078 47.2877 82.797 46.034 82.0711 44.9808C81.7031 44.4579 81.3685 43.9747 81.0534 43.5589C80.7434 43.139 80.4661 42.7809 80.2327 42.4837C79.7632 41.8967 79.4922 41.5615 79.4922 41.5615C79.4922 41.5615 79.5734 41.6311 79.7273 41.7632C79.8761 41.8992 80.1144 42.0822 80.3857 42.3458C80.9375 42.8581 81.7 43.6289 82.5401 44.6208C82.9623 45.1157 83.4021 45.6632 83.8458 46.2607C84.2903 46.8559 84.7528 47.4922 85.1956 48.1727C85.6431 48.8505 86.0994 49.5546 86.5246 50.2934C86.955 51.0282 87.374 51.7845 87.7826 52.5488C88.1737 53.321 88.5601 54.096 88.9138 54.87C89.2793 55.6418 89.5871 56.4208 89.8939 57.1723C90.4852 58.6859 90.9577 60.1327 91.256 61.4019C91.5588 62.669 91.7015 63.7604 91.6564 64.53C91.6492 64.9131 91.558 65.2141 91.4839 65.4075C91.4497 65.5015 91.3913 65.5611 91.3671 65.6074C91.3408 65.6493 91.3249 65.6728 91.3249 65.6728Z" fill="#373533"/>
<path d="M90.9486 58.9684C93.2218 60.0793 94.8393 61.7405 96.286 63.7802C97.6949 65.7622 97.9825 68.1808 98.5796 70.4659C98.6399 70.6936 99.0282 70.8276 99.1041 70.5283C100.463 65.2602 95.7087 60.2803 90.9717 58.9051C90.9287 58.892 90.9079 58.9491 90.9486 58.9684Z" fill="#373533"/>
</svg>
