<svg width="171" height="187" viewBox="0 0 171 187" fill="none" xmlns="http://www.w3.org/2000/svg">
<g opacity="0.9">
<path d="M139.804 42.5258C157.004 57.4433 152.483 82.4179 141.642 99.5445C136.667 107.402 131.03 114.834 124.972 121.882C105.907 144.076 78.2966 165.434 47.4181 155.414C46.7339 155.191 46.464 156.197 47.1016 156.457C78.0492 169.185 108.123 145.387 127.261 123.045C144.88 102.475 168.973 65.7192 141.071 43.1811C140.707 42.8881 140.331 42.6141 139.94 42.3565C139.841 42.2864 139.713 42.4415 139.804 42.5258" fill="#D0C9BE"/>
<path d="M24.557 142.94C28.2247 137.25 36.246 136.874 41.2372 132.692C44.2802 130.141 45.0369 125.508 42.5659 122.455C42.35 122.94 42.1326 123.425 41.9152 123.909C46.5176 124.216 49.9661 127.179 54.0775 128.784C54.7672 129.055 55.2453 128.111 54.7911 127.62C51.5317 124.093 46.553 123.544 42.1944 122.222C41.4551 121.998 40.862 122.793 41.188 123.458C44.6195 130.4 36.3503 133.733 31.4478 135.87C28.2266 137.276 25.659 139.561 24.3601 142.852C24.3116 142.97 24.4939 143.037 24.557 142.94" fill="#D0C9BE"/>
<path d="M51.858 126.301C51.8166 122.853 51.8354 118.899 54.991 116.649C56.152 115.82 57.9464 115.566 59.2744 114.986C61.1808 114.156 62.8516 113.17 64.5397 111.953C69.9258 108.074 74.3576 102.113 78.6177 97.0761C80.6876 94.6309 82.6756 92.113 84.6373 89.5735C85.4658 88.5017 86.4289 86.4593 87.9694 86.256C89.4081 86.0638 90.8855 85.6398 92.2356 85.1169C97.2123 83.1873 101.731 80.2566 103.92 75.256C104.151 74.7226 103.393 74.3739 103.019 74.7039C100.397 77.0657 97.879 79.5127 94.8198 81.3232C93.3453 82.1936 91.7118 82.7561 90.0819 83.2573C88.7965 83.646 86.8846 83.476 85.7398 84.0921C83.5247 85.2845 81.2732 89.6706 79.7211 91.5634C77.1054 94.7481 74.3681 97.8309 71.5565 100.839C69.0962 103.472 66.5636 106.044 63.8876 108.444C62.0669 110.08 60.1574 111.462 57.9775 112.586C56.5497 113.318 54.8431 113.66 53.571 114.698C49.6704 117.878 50.1617 121.897 51.4261 126.344C51.4927 126.573 51.8614 126.557 51.858 126.301" fill="#D0C9BE"/>
<path d="M107.685 76.1282C111.067 72.3059 115.135 69.0449 119.695 66.7477C123.308 64.926 127.125 64.2012 129.197 60.4359C130.896 57.3383 130.587 53.1318 131.571 49.7991C132.863 45.3929 136.639 42.6937 138.117 38.6043C138.244 38.252 137.883 37.8976 137.535 37.9827C131.121 39.5524 128.636 49.6994 127.899 55.2456C127.398 58.9968 126.131 61.1367 122.442 62.7172C120.175 63.683 118.124 64.6395 116.069 66.0198C112.236 68.5973 109.609 71.9275 107.516 75.9923C107.463 76.0951 107.598 76.224 107.685 76.1282" fill="#D0C9BE"/>
<path d="M24.8553 139.363C27.3495 138.103 28.4212 136.149 29.1338 133.517C29.6211 131.715 29.4829 129.697 29.4098 127.851C29.3736 126.934 30.0701 116.555 32.8697 118.807C37.6876 122.669 45.1855 116.426 48.5473 113.501C54.4464 108.368 58.9769 101.734 63.6481 95.5298C69.0583 88.3424 74.782 82.4351 82.255 77.4043C82.6296 77.1505 82.4473 76.4099 81.9512 76.5936C67.9383 81.8192 60.1366 97.6573 50.184 107.851C47.3716 110.732 44.2246 113.298 40.726 115.3C38.4574 116.595 35.8675 117.444 33.5537 115.765C32.7955 115.213 31.7262 115.904 31.0529 116.189C28.9282 117.084 27.4893 120.16 27.2221 122.287C26.5342 127.785 30.2889 135.201 24.751 139.17C24.6396 139.251 24.7261 139.428 24.8553 139.363" fill="#D0C9BE"/>
<path d="M20.4757 141.498C5.69079 111.851 28.8472 82.223 49.1739 62.5238C60.6296 51.4255 73.3887 41.2322 88.2643 35.1704C95.3027 32.3029 102.869 30.6868 110.444 30.2637C117.754 29.8528 124.734 31.3477 131.791 33.0333C132.136 33.1181 132.405 32.6191 132.056 32.4428C119.348 25.9703 103.011 27.9607 89.9559 32.3098C73.5546 37.7638 59.6828 48.8268 47.5014 60.7704C26.8448 81.0225 3.79939 111.865 20.2836 141.603C20.3522 141.726 20.5378 141.623 20.4757 141.498" fill="#D0C9BE"/>
<path d="M24.7049 143.953C34.932 153.447 48.2904 159.076 62.2738 159.614C75.3573 160.116 90.4477 154.49 99.8744 145.403C100.576 144.728 99.7343 143.753 98.92 144.096C87.2985 148.93 75.6815 154.592 63.068 156.28C49.7295 158.058 35.1352 151.836 24.7747 143.866C24.7236 143.83 24.6608 143.908 24.7049 143.953Z" fill="#D0C9BE"/>
<path d="M54.4306 144.082C59.7816 152.959 72.2353 153.11 81.3055 152.058C87.7298 151.307 93.9803 149.141 99.8704 146.531C105.495 144.042 111.297 140.835 114.648 135.515C115.04 134.903 114.325 134.216 113.71 134.522C108.993 136.849 104.64 139.844 99.9299 142.214C94.7147 144.832 89.182 146.58 83.5139 147.913C74.0086 150.138 62.3406 150.981 54.5182 144.019C54.4761 143.982 54.3994 144.026 54.4306 144.082" fill="#D0C9BE"/>
<path d="M78.8692 135.238C86.0185 138.59 94.9037 138.441 102.451 136.725C110.358 134.924 121.172 131.136 125.211 123.437C125.479 122.918 124.891 122.496 124.452 122.827C117.743 127.911 111.215 131.811 102.976 134.01C95.3307 136.051 86.6236 137.707 78.9147 135.137C78.8568 135.116 78.8141 135.212 78.8692 135.238" fill="#D0C9BE"/>
<path d="M103.618 127.761C109.294 128.624 114.979 128.132 120.218 125.693C124.676 123.617 130.262 119.905 131.422 114.837C131.502 114.49 131.144 114.118 130.794 114.329C126.881 116.695 124.087 120.399 120.071 122.756C115.081 125.688 109.401 127.46 103.617 127.653C103.545 127.656 103.547 127.752 103.618 127.761" fill="#D0C9BE"/>
<path d="M118.149 114.245C124.714 115.043 131.136 113.351 136.273 109.131C140.512 105.651 145.674 100.792 146.044 94.9575C146.069 94.5843 145.518 94.4058 145.335 94.7448C140.086 104.529 129.668 113.99 118.159 114.029C118.014 114.027 118.012 114.229 118.149 114.245" fill="#D0C9BE"/>
<path d="M128.137 101.588C138.157 100.41 149.011 92.8777 150.644 82.4233C150.742 81.813 149.814 81.5946 149.535 82.0881C144.708 90.6796 138.097 98.8953 128.117 101.481C128.042 101.501 128.071 101.594 128.137 101.588" fill="#D0C9BE"/>
<path d="M146.708 70.9963C147.231 77.9369 143.337 85.3076 140.166 91.1958C134.731 101.304 127.544 110.483 119.602 118.737C110.274 128.434 99.379 136.819 87.5064 143.166C74.1467 150.306 59.889 153.434 44.9198 154.626C44.1612 154.69 44.0901 155.767 44.8767 155.827C73.9781 157.96 101.828 140.609 120.82 120.006C128.852 111.289 135.85 101.467 141.163 90.8563C144.089 85.0175 147.522 77.7178 146.815 70.9879C146.809 70.921 146.704 70.9369 146.708 70.9963" fill="#D0C9BE"/>
<path d="M104.324 123.92C104.324 123.92 103.557 124.62 102.183 125.822C101.506 126.422 100.646 127.12 99.6661 127.926C98.6899 128.748 97.56 129.627 96.3084 130.562C95.0771 131.528 93.6766 132.48 92.2095 133.513C90.7133 134.498 89.1546 135.58 87.468 136.576C86.6318 137.078 85.7751 137.593 84.9109 138.111C84.0311 138.6 83.1363 139.094 82.2387 139.592C81.3431 140.098 80.409 140.55 79.476 141.021C78.5486 141.483 77.6217 141.977 76.6644 142.403C75.7118 142.831 74.7593 143.26 73.8115 143.691C72.8489 144.082 71.8835 144.477 70.9312 144.861C69.9849 145.268 69.0252 145.61 68.0663 145.939C67.1149 146.267 66.1811 146.63 65.247 146.916C63.3759 147.494 61.5642 148.068 59.814 148.481C58.9456 148.697 58.1011 148.928 57.2766 149.112C56.4508 149.277 55.6523 149.439 54.8839 149.592C53.3524 149.934 51.9246 150.107 50.6668 150.283C50.0379 150.371 49.4486 150.457 48.9091 150.533C48.3588 150.583 47.8571 150.63 47.4034 150.673C45.5863 150.838 44.5508 150.907 44.5508 150.907C44.5508 150.907 45.5692 150.695 47.3557 150.36C47.802 150.275 48.296 150.185 48.8355 150.084C49.3647 149.963 49.9448 149.828 50.5623 149.683C51.7899 149.394 53.1759 149.095 54.6703 148.675C55.4218 148.473 56.2035 148.264 57.0077 148.048C57.8086 147.806 58.632 147.557 59.4855 147.3C61.191 146.811 62.9457 146.159 64.7794 145.547C65.6953 145.237 66.6033 144.853 67.5336 144.507C68.4647 144.149 69.4053 143.796 70.3413 143.396C71.2746 143.001 72.2201 142.607 73.1657 142.213C74.1012 141.781 75.0366 141.349 75.9721 140.917C76.9212 140.506 77.8371 140.031 78.759 139.578C79.679 139.118 80.607 138.688 81.497 138.192C82.3931 137.718 83.2864 137.249 84.1647 136.784C85.0323 136.294 85.8922 135.806 86.7365 135.334C87.5827 134.87 88.3916 134.371 89.1942 133.894C89.9996 133.412 90.7884 132.959 91.5412 132.492C93.0339 131.524 94.4851 130.672 95.7727 129.795C97.0642 128.934 98.264 128.165 99.2984 127.441C100.34 126.727 101.259 126.114 101.987 125.569C103.467 124.511 104.324 123.92 104.324 123.92" fill="#D0C9BE"/>
<path d="M135.059 84.4934C135.059 84.4934 135.066 84.6687 135.069 84.9943C135.076 85.3225 135.107 85.7977 134.989 86.4093C134.933 86.7141 134.912 87.0702 134.822 87.4247C134.726 87.7887 134.624 88.1745 134.518 88.5896C134.418 89.015 134.24 89.4333 134.092 89.8878C133.932 90.3416 133.767 90.8247 133.541 91.3041C133.332 91.787 133.117 92.2917 132.886 92.8127C132.631 93.32 132.364 93.8389 132.09 94.3795C131.54 95.4533 130.899 96.5511 130.209 97.6707C129.497 98.7717 128.776 99.9314 127.956 101.033C127.173 102.169 126.294 103.263 125.448 104.376C124.562 105.459 123.66 106.526 122.753 107.559C121.826 108.58 120.925 109.591 119.992 110.514C119.073 111.444 118.186 112.343 117.295 113.149C116.408 113.959 115.592 114.746 114.781 115.402C113.981 116.083 113.242 116.692 112.584 117.227C111.921 117.759 111.315 118.191 110.83 118.559C109.85 119.277 109.283 119.686 109.283 119.686C109.283 119.686 109.769 119.185 110.618 118.31C111.048 117.884 111.568 117.358 112.161 116.761C112.745 116.145 113.402 115.457 114.132 114.722C114.866 113.99 115.6 113.136 116.425 112.279C117.253 111.429 118.06 110.472 118.937 109.523C119.827 108.588 120.645 107.523 121.553 106.523C122.433 105.494 123.306 104.422 124.166 103.35C125.013 102.269 125.892 101.208 126.676 100.104C127.493 99.0187 128.267 97.9412 128.999 96.8833C129.382 96.3615 129.694 95.8108 130.05 95.3046C130.394 94.7855 130.735 94.2833 131.029 93.7735C131.333 93.2692 131.633 92.7819 131.921 92.3061C132.189 91.8194 132.446 91.3518 132.695 90.8984C132.959 90.4532 133.153 90.0064 133.363 89.5876C133.559 89.1606 133.789 88.7727 133.926 88.3816C134.239 87.6091 134.526 86.9361 134.669 86.358C134.863 85.7904 134.936 85.3117 134.983 84.9891C135.034 84.6693 135.059 84.4934 135.059 84.4934" fill="#D0C9BE"/>
<path d="M136.834 88.6816C144.598 87.5922 153.259 80.7763 152.287 72.172C152.23 71.6879 151.59 71.7949 151.446 72.1437C150.162 75.2144 149.187 78.311 147.245 81.0587C144.741 84.5935 140.893 87.2638 136.813 88.5743C136.743 88.5972 136.764 88.6922 136.834 88.6816" fill="#D0C9BE"/>
<path d="M48.9911 82.3728C48.9501 74.2427 52.9853 66.8585 57.0155 60.0497C61.4054 52.6353 67.4545 47.5003 73.9529 42.0911C74.3266 41.7795 73.9632 41.1314 73.5052 41.2545C65.2715 43.5018 59.1309 51.8685 54.8726 58.749C50.6717 65.5355 47.894 74.3444 48.8846 82.3812C48.8937 82.4436 48.9945 82.4319 48.9911 82.3728" fill="#D0C9BE"/>
<path d="M65.0366 68.3784C65.5013 61.1056 69.2056 55.0108 73.2338 49.1474C77.1746 43.4177 82.7837 39.8965 87.3251 34.8377C87.6225 34.5075 87.3625 34.0334 86.928 34.0938C80.4169 34.9914 75.229 41.926 71.6171 46.8418C67.1463 52.9261 64.3632 60.7726 64.9285 68.3732C64.9343 68.4401 65.0326 68.4459 65.0366 68.3784" fill="#D0C9BE"/>
<path d="M81.8776 56.9141C84.067 44.0999 94.3805 33.6508 106.665 29.8348C107.079 29.7057 107.032 29.1197 106.593 29.0819C99.852 28.4555 93.3593 33.868 88.7598 38.1945C84.1955 42.4842 82.0077 50.8523 81.6623 56.8788C81.6558 57.0021 81.857 57.0357 81.8776 56.9141" fill="#D0C9BE"/>
<path d="M95.1133 51.0245C100.005 41.2572 110.36 33.6465 120.641 30.5479C121.281 30.3522 121.227 29.3999 120.525 29.3627C109.107 28.7296 98.5276 41.1473 95.0172 50.9753C94.9964 51.0333 95.085 51.078 95.1133 51.0245Z" fill="#D0C9BE"/>
<path d="M44.0011 73.6413C44.0011 73.6413 43.5846 74.1823 42.8565 75.1341C42.4859 75.6 42.034 76.1713 41.5156 76.825C40.9856 77.4592 40.4212 78.2134 39.8134 79.0251C39.1995 79.8396 38.5363 80.721 37.8184 81.6343C37.1197 82.565 36.4352 83.5866 35.679 84.6048C35.3073 85.1144 34.9258 85.6375 34.5417 86.1654C34.1771 86.7109 33.8099 87.2612 33.4426 87.8115C32.7063 88.9239 31.9113 90.0214 31.2035 91.1693C30.4844 92.3169 29.7648 93.4643 29.0589 94.5879C28.3446 95.7129 27.7209 96.8712 27.0768 97.9605C26.4508 99.0666 25.7926 100.103 25.2708 101.149C24.7333 102.179 24.2036 103.144 23.7132 104.036C23.2087 104.926 22.811 105.771 22.4384 106.515C22.0649 107.252 21.7351 107.9 21.4661 108.431C20.9102 109.489 20.5887 110.097 20.5887 110.097C20.5887 110.097 20.7994 109.444 21.1649 108.308C21.3587 107.74 21.5934 107.05 21.8609 106.264C22.1369 105.477 22.4295 104.578 22.8578 103.644C23.2566 102.699 23.697 101.67 24.1759 100.599C24.6279 99.5072 25.2087 98.4066 25.8068 97.2717C26.1071 96.6954 26.4098 96.1205 26.7156 95.5347C27.0184 94.9409 27.3289 94.3514 27.6954 93.7815C28.3983 92.6245 29.1109 91.4541 29.8268 90.2791C30.559 89.1263 31.379 88.0242 32.1426 86.9085C32.529 86.3502 32.9162 85.805 33.307 85.2746C33.7177 84.7557 34.1262 84.2419 34.5272 83.7365C35.3266 82.7305 36.0983 81.7593 36.8675 80.8692C37.6529 79.9822 38.4095 79.1612 39.1056 78.4068C39.4545 78.0301 39.7892 77.6706 40.1066 77.3266C40.4422 76.9994 40.758 76.6925 41.0555 76.4005C41.6593 75.8279 42.1854 75.3248 42.6188 74.9143C43.497 74.1062 44.0011 73.6413 44.0011 73.6413" fill="#D0C9BE"/>
<path d="M126.081 37.9066C126.081 37.9066 125.754 37.8007 125.145 37.6014C124.535 37.4145 123.651 37.0632 122.481 36.8573C121.894 36.7408 121.26 36.5844 120.555 36.4632C119.842 36.3883 119.078 36.303 118.252 36.214C117.434 36.091 116.549 36.1267 115.624 36.1007C114.699 36.0873 113.727 36.041 112.715 36.1363C111.7 36.2174 110.645 36.231 109.559 36.3664C108.475 36.5156 107.354 36.6689 106.202 36.8295C105.053 37.0051 103.892 37.3063 102.697 37.5442C102.1 37.6888 101.491 37.7816 100.893 37.9513C100.292 38.125 99.6885 38.2976 99.0771 38.4719C97.8649 38.8394 96.5998 39.1128 95.384 39.5988C94.1547 40.039 92.9103 40.4832 91.6533 40.9328C90.4119 41.4104 89.1899 41.9754 87.9431 42.5008L86.08 43.2993C85.4672 43.5871 84.8696 43.9092 84.2603 44.2118C83.0488 44.8147 81.8346 45.4224 80.6273 46.0214C79.4344 46.6604 78.2826 47.3614 77.1216 48.0188C76.5425 48.3516 75.9649 48.6852 75.3925 49.0154C74.8113 49.3343 74.2441 49.6674 73.6974 50.0379C72.5967 50.7493 71.5119 51.4508 70.4398 52.1469C68.2677 53.4849 66.3117 54.9857 64.3984 56.3397C63.4574 57.0289 62.5116 57.6645 61.6445 58.3455C60.7812 59.0288 59.9453 59.6898 59.144 60.3262C58.3411 60.9554 57.5699 61.5647 56.8402 62.1408C56.1048 62.7137 55.3927 63.2429 54.775 63.8011C53.5118 64.8887 52.4118 65.8355 51.5053 66.6145C49.6783 68.1581 48.6348 69.0422 48.6348 69.0422C48.6348 69.0422 49.5871 68.0673 51.2876 66.3808C52.1426 65.5403 53.1795 64.5189 54.3686 63.344C55.5525 62.1661 57.0016 60.9635 58.5438 59.5985C59.3194 58.9218 60.1253 58.2181 60.9614 57.4874C61.8033 56.76 62.7371 56.0921 63.6605 55.361C65.5408 53.9308 67.4566 52.3368 69.633 50.9441C70.7009 50.2201 71.7851 49.4866 72.8842 48.7426C73.9632 47.9742 75.1635 47.3521 76.3218 46.6486C77.4958 45.9732 78.6605 45.2543 79.8617 44.601C81.0861 43.9801 82.317 43.3567 83.5465 42.7324C84.1657 42.4291 84.7747 42.1137 85.4002 41.8204L87.3024 41.0191C88.5728 40.4947 89.8213 39.9322 91.091 39.4518C93.658 38.5642 96.1763 37.6675 98.7063 37.0761C99.3303 36.9154 99.9503 36.7525 100.566 36.5932C101.179 36.4262 101.808 36.351 102.422 36.2289C103.652 36.0242 104.842 35.7587 106.022 35.6202C107.204 35.5024 108.353 35.3906 109.466 35.277C110.578 35.1949 111.662 35.2299 112.695 35.2036C113.731 35.1539 114.723 35.2371 115.664 35.3168C116.602 35.4076 117.498 35.4293 118.321 35.6118C119.153 35.7554 119.923 35.8953 120.638 36.022C121.347 36.1903 121.991 36.3966 122.573 36.5548C123.747 36.8323 124.577 37.2863 125.179 37.5197C125.766 37.7693 126.081 37.9066 126.081 37.9066" fill="#D0C9BE"/>
<path d="M74.792 58.0454C74.792 58.0454 74.0082 58.5776 72.6177 59.4774C71.9187 59.9188 71.0777 60.4688 70.1322 61.1172C69.1825 61.7697 68.1002 62.4789 66.9456 63.2925C65.788 64.0981 64.5301 64.9665 63.2259 65.9225C61.9053 66.8563 60.5563 67.8944 59.153 68.9584C57.7338 70.0068 56.3562 71.1936 54.907 72.3327C53.5027 73.5358 52.049 74.7168 50.6923 76.0046C49.2754 77.2386 47.9614 78.5637 46.6411 79.8535C46.0111 80.519 45.3815 81.1847 44.7635 81.8381C44.4519 82.1664 44.1455 82.4914 43.8405 82.8172C43.5527 83.1529 43.2663 83.4894 42.9831 83.8215C42.4187 84.4931 41.8434 85.1329 41.3195 85.7961C40.8023 86.4631 40.3003 87.1136 39.8085 87.7508C39.2971 88.3704 38.9045 89.0459 38.4662 89.6631C38.053 90.2886 37.6013 90.8728 37.2577 91.4813C36.9045 92.0842 36.5642 92.6691 36.2432 93.2207C36.0784 93.4941 35.9178 93.7635 35.7627 94.0234C35.6281 94.295 35.5008 94.5583 35.3745 94.8157C35.1241 95.3319 34.8887 95.8122 34.6734 96.2533C34.4436 96.6987 34.2557 97.1112 34.1273 97.5008C33.5425 99.0374 33.1813 99.9216 33.1813 99.9216C33.1813 99.9216 33.3981 99.0048 33.8235 97.3953C33.9181 96.9861 34.0674 96.5514 34.2516 96.086C34.4268 95.6154 34.6155 95.1081 34.8177 94.5641C34.9198 94.2927 35.0254 94.0106 35.1319 93.7227C35.2636 93.443 35.4012 93.154 35.5365 92.8636C35.8248 92.274 36.123 91.6584 36.4377 91.0142C36.7472 90.367 37.1591 89.7471 37.5418 89.0723C37.9417 88.4137 38.3209 87.7052 38.8062 87.0451C39.2757 86.3695 39.758 85.676 40.2487 84.9682C40.7412 84.2614 41.3237 83.6003 41.8747 82.8956C42.1525 82.5477 42.4348 82.1962 42.7199 81.8399C43.0209 81.499 43.3238 81.1593 43.6275 80.8137C44.2426 80.1269 44.8564 79.4203 45.5056 78.7469C46.8352 77.4244 48.1598 76.0545 49.5895 74.7898C50.9833 73.498 52.4699 72.3106 53.9049 71.1061C54.6329 70.5163 55.3814 69.9638 56.1072 69.4108C56.8363 68.8534 57.5613 68.3063 58.2927 67.801C59.0206 67.2874 59.7369 66.7861 60.436 66.2939C61.1446 65.8136 61.8548 65.3659 62.5343 64.9197C63.8897 64.0123 65.218 63.2291 66.443 62.5005C67.6478 61.754 68.8069 61.1526 69.821 60.5945C70.8317 60.0345 71.7228 59.5706 72.4612 59.2027C73.9382 58.4546 74.792 58.0454 74.792 58.0454" fill="#D0C9BE"/>
<path d="M121.878 43.0845C121.878 43.0845 121.842 43.0577 121.771 43.0165C121.696 42.98 121.603 42.8881 121.451 42.8322C121.16 42.721 120.718 42.6058 120.126 42.5752C118.954 42.4703 117.261 42.63 115.255 42.9459C114.255 43.1052 113.167 43.316 112.027 43.5532C110.889 43.7856 109.692 44.0921 108.457 44.3828C105.991 45.0177 103.374 45.7428 100.788 46.5753C99.4929 46.9836 98.2015 47.407 96.9426 47.8555C95.6862 48.3118 94.44 48.7295 93.2546 49.2013C90.8786 50.1103 88.6859 51.0362 86.8316 51.8842C85.9089 52.3171 85.0576 52.7087 84.3176 53.0883C83.5726 53.4587 82.9337 53.795 82.4025 54.0791C81.3509 54.6537 80.7498 54.9863 80.7498 54.9863C80.7498 54.9863 80.8815 54.8781 81.1314 54.673C81.3862 54.4771 81.7394 54.1537 82.2284 53.8007C83.1854 53.0763 84.6066 52.0925 86.3962 51.0483C87.29 50.5225 88.2714 49.9836 89.3321 49.4525C90.3895 48.9194 91.5165 48.3694 92.7074 47.8626C93.8953 47.3477 95.1271 46.8264 96.4046 46.3632C97.6772 45.8909 98.9805 45.4426 100.294 45.0127C101.614 44.6125 102.938 44.2204 104.251 43.8794C105.563 43.5192 106.872 43.2517 108.136 42.978C110.676 42.4687 113.078 42.1275 115.153 42.0105C117.227 41.8859 118.979 41.964 120.175 42.2478C120.774 42.3651 121.222 42.5916 121.505 42.7615C121.643 42.8412 121.72 42.9494 121.786 43.0002C121.845 43.053 121.878 43.0845 121.878 43.0845" fill="#D0C9BE"/>
<path d="M111.247 41.8195C113.621 38.5583 116.676 36.4789 120.279 34.7725C123.78 33.1093 127.657 33.3272 131.41 33.0225C131.784 32.9907 132.102 32.4182 131.653 32.2162C123.759 28.6242 114.625 34.7099 111.155 41.7659C111.122 41.8297 111.206 41.8781 111.247 41.8195" fill="#D0C9BE"/>
</g>
</svg>
